<svg width="100" height="100" viewBox="0 0 100 100" fill="none" xmlns="http://www.w3.org/2000/svg">
<g filter="url(#filter0_d_5_147)">
<path d="M83.3333 41.6667C84.1479 38.0521 83.1417 33.7917 78.125 29.1667C69.9708 36.5479 72.3021 44.2229 75 47.9167C75 47.9167 74.6542 50 66.6667 50C58.6792 50 4.16667 50 4.16667 50C4.16667 50 0.347923 83.3334 37.5 83.3334C69.9854 83.3334 79.1104 58.3271 80.8917 51.925C81.6292 52.025 82.4563 52.0896 83.3333 52.0834C87.8063 52.0479 93.6042 49.6438 95.8333 40.6584C89.9208 38.6104 86.1229 39.5375 83.3333 41.6667Z" fill="#03A9F4"/>
<path d="M4.51042 58.3333C6.04167 68.2062 12.4646 83.3333 37.5 83.3333C62.8854 83.3333 74.0062 68.0625 78.5042 58.3333H4.51042Z" fill="#0288D1"/>
<path d="M41.275 83.2042C39.3583 82.5333 30.7083 80.9333 29.1667 68.75C20.3979 72.6312 12.6292 71.6146 9.21042 70.85C13.7146 77.5771 22.0646 83.3333 37.5 83.3333C38.7979 83.3333 40.05 83.2833 41.275 83.2042Z" fill="#81D4FA"/>
<path d="M37.5 62.5C36.3949 62.5 35.3351 62.939 34.5537 63.7204C33.7723 64.5018 33.3333 65.5616 33.3333 66.6667C33.3333 67.7717 33.7723 68.8315 34.5537 69.6129C35.3351 70.3943 36.3949 70.8333 37.5 70.8333C38.6051 70.8333 39.6649 70.3943 40.4463 69.6129C41.2277 68.8315 41.6667 67.7717 41.6667 66.6667C41.6667 65.5616 41.2277 64.5018 40.4463 63.7204C39.6649 62.939 38.6051 62.5 37.5 62.5Z" fill="white"/>
<path d="M31.0708 69.9938C31.5375 71.0459 31.1125 72.4146 30.0083 72.7396C23.1313 74.7667 17.2042 75.0354 12.7229 75.0354C11.3813 73.7458 10.2354 72.3709 9.27292 70.9459C14.6583 70.9459 23.2521 70.6959 28.3229 68.9334C29.4104 68.5542 30.6042 68.9375 31.0708 69.9938ZM4.16667 56.25C4.16667 56.25 8.07292 56.5104 10.4167 54.1667C14.3229 57.6834 22.7917 56.4334 25 54.1667C27.2146 57.6834 39.4542 57.0313 41.6667 54.1667C44.2708 57.1625 55.4688 57.8125 58.3333 54.1667C59.3313 57.2104 72.5396 58.0709 75 54.1667C77.2104 56.4334 85.5479 58.2042 90.2313 54.1667C91.4062 56.6417 95.8333 56.25 95.8333 56.25V58.3334H4.16667M35.4167 66.6667C35.4167 67.8167 36.35 68.75 37.5 68.75C38.65 68.75 39.5833 67.8167 39.5833 66.6667C39.5833 65.5167 38.65 64.5834 37.5 64.5834C36.35 64.5834 35.4167 65.5167 35.4167 66.6667Z" fill="#37474F"/>
<path d="M22.9167 50H12.5V39.5834H22.9167V50ZM43.75 39.5834H33.3333V50H43.75V39.5834ZM64.5833 39.5834H54.1667V50H64.5833V39.5834ZM33.3333 29.1667H22.9167V39.5834H33.3333V29.1667ZM54.1667 29.1667H43.75V39.5834H54.1667V29.1667Z" fill="#01579B"/>
<path d="M33.3333 50H22.9167V39.5833H33.3333V50ZM54.1667 39.5833H43.75V50H54.1667V39.5833ZM54.1667 18.75H43.75V29.1667H54.1667V18.75ZM43.75 29.1667H33.3333V39.5833H43.75V29.1667Z" fill="#0288D1"/>
</g>
<defs>
<filter id="filter0_d_5_147" x="-4" y="0" width="108" height="108" filterUnits="userSpaceOnUse" color-interpolation-filters="sRGB">
<feFlood flood-opacity="0" result="BackgroundImageFix"/>
<feColorMatrix in="SourceAlpha" type="matrix" values="0 0 0 0 0 0 0 0 0 0 0 0 0 0 0 0 0 0 127 0" result="hardAlpha"/>
<feOffset dy="4"/>
<feGaussianBlur stdDeviation="2"/>
<feComposite in2="hardAlpha" operator="out"/>
<feColorMatrix type="matrix" values="0 0 0 0 0 0 0 0 0 0 0 0 0 0 0 0 0 0 0.25 0"/>
<feBlend mode="normal" in2="BackgroundImageFix" result="effect1_dropShadow_5_147"/>
<feBlend mode="normal" in="SourceGraphic" in2="effect1_dropShadow_5_147" result="shape"/>
</filter>
</defs>
</svg>
