<svg width="100" height="100" viewBox="0 0 100 100" fill="none" xmlns="http://www.w3.org/2000/svg">
<g filter="url(#filter0_d_5_162)">
<path d="M87.9167 46.0417L53.9583 12.0834C52.9167 11.0417 51.4583 10.4167 50 10.4167C48.5417 10.4167 47.0833 11.0417 46.0417 12.0834L38.75 19.375L47.2917 27.9167C48.125 27.5 48.9583 27.2917 50 27.2917C53.5417 27.2917 56.25 30 56.25 33.5417C56.25 34.5834 56.0417 35.4167 55.625 36.25L63.9583 44.5834C64.7917 44.1667 65.625 43.9584 66.6667 43.9584C70.2083 43.9584 72.9167 46.6667 72.9167 50.2084C72.9167 53.75 70.2083 56.4584 66.6667 56.4584C63.125 56.4584 60.4167 53.75 60.4167 50.2084C60.4167 49.1667 60.625 48.3334 61.0417 47.5L52.7083 39.1667C52.5 39.1667 52.2917 39.375 52.0833 39.375V61.0417C54.5833 61.875 56.25 64.1667 56.25 66.875C56.25 70.4167 53.5417 73.125 50 73.125C46.4583 73.125 43.75 70.4167 43.75 66.875C43.75 64.1667 45.4167 61.875 47.9167 61.0417V39.1667C45.4167 38.3334 43.75 36.0417 43.75 33.3334C43.75 32.2917 43.9583 31.4584 44.375 30.625L35.8333 22.0834L12.0833 46.0417C11.0417 47.0834 10.4167 48.5417 10.4167 50C10.4167 51.4584 11.0417 52.9167 12.0833 53.9584L46.0417 87.9167C47.0833 88.9584 48.5417 89.5834 50 89.5834C51.4583 89.5834 52.9167 88.9584 53.9583 87.9167L87.9167 53.9584C88.9583 52.9167 89.5833 51.4584 89.5833 50C89.5833 48.5417 88.9583 47.0834 87.9167 46.0417Z" fill="#F4511E"/>
</g>
<defs>
<filter id="filter0_d_5_162" x="-4" y="0" width="108" height="108" filterUnits="userSpaceOnUse" color-interpolation-filters="sRGB">
<feFlood flood-opacity="0" result="BackgroundImageFix"/>
<feColorMatrix in="SourceAlpha" type="matrix" values="0 0 0 0 0 0 0 0 0 0 0 0 0 0 0 0 0 0 127 0" result="hardAlpha"/>
<feOffset dy="4"/>
<feGaussianBlur stdDeviation="2"/>
<feComposite in2="hardAlpha" operator="out"/>
<feColorMatrix type="matrix" values="0 0 0 0 0 0 0 0 0 0 0 0 0 0 0 0 0 0 0.25 0"/>
<feBlend mode="normal" in2="BackgroundImageFix" result="effect1_dropShadow_5_162"/>
<feBlend mode="normal" in="SourceGraphic" in2="effect1_dropShadow_5_162" result="shape"/>
</filter>
</defs>
</svg>
