<svg width="100" height="100" viewBox="0 0 100 100" fill="none" xmlns="http://www.w3.org/2000/svg">
<g filter="url(#filter0_d_5_164)">
<path d="M12.5 87.5V12.5H87.5V87.5H12.5Z" fill="#FFD600"/>
<path d="M61.5375 68.6396C62.9792 70.9812 64.5458 73.225 67.8646 73.225C70.6521 73.225 72.1146 71.8396 72.1146 69.9229C72.1146 67.6291 70.6021 66.8146 67.5354 65.4791L65.8542 64.7625C61.0021 62.7041 57.775 60.125 57.775 54.6771C57.775 49.6562 61.6188 45.8354 67.625 45.8354C71.9021 45.8354 74.975 47.3166 77.1917 51.1958L71.9542 54.5437C70.8021 52.4854 69.5563 51.675 67.625 51.675C65.6542 51.675 64.4063 52.9187 64.4063 54.5437C64.4063 56.5521 65.6563 57.3646 68.5417 58.6083L70.2229 59.325C75.9417 61.7604 79.1667 64.2479 79.1667 69.8396C79.1667 75.8646 74.4083 79.1666 68.0208 79.1666C61.7729 79.1666 58.225 76.0312 56.25 72.15L61.5375 68.6396ZM37.4 68.8104C38.4542 70.6979 40.0563 72.15 42.3604 72.15C44.5646 72.15 45.8333 71.2791 45.8333 67.8937V45.8333H52.7771V68.9604C52.7771 75.975 48.7083 79.1666 42.7667 79.1666C37.3979 79.1666 33.5229 75.5291 31.9438 72.15L37.4 68.8104Z" fill="#000001"/>
</g>
<defs>
<filter id="filter0_d_5_164" x="-4" y="0" width="108" height="108" filterUnits="userSpaceOnUse" color-interpolation-filters="sRGB">
<feFlood flood-opacity="0" result="BackgroundImageFix"/>
<feColorMatrix in="SourceAlpha" type="matrix" values="0 0 0 0 0 0 0 0 0 0 0 0 0 0 0 0 0 0 127 0" result="hardAlpha"/>
<feOffset dy="4"/>
<feGaussianBlur stdDeviation="2"/>
<feComposite in2="hardAlpha" operator="out"/>
<feColorMatrix type="matrix" values="0 0 0 0 0 0 0 0 0 0 0 0 0 0 0 0 0 0 0.25 0"/>
<feBlend mode="normal" in2="BackgroundImageFix" result="effect1_dropShadow_5_164"/>
<feBlend mode="normal" in="SourceGraphic" in2="effect1_dropShadow_5_164" result="shape"/>
</filter>
</defs>
</svg>
