<svg width="100" height="100" viewBox="0 0 100 100" fill="none" xmlns="http://www.w3.org/2000/svg">
<g filter="url(#filter0_d_5_155)">
<path d="M53.9062 50.4334C54.1187 50.7063 54.2083 51.1 54.1479 51.4646L53.5729 53.9813C53.5125 54.375 53.2396 54.6792 52.9083 54.8604L50.5792 55.9521C50.2458 56.1334 49.8229 56.1334 49.4896 55.9521L47.1604 54.8604C46.8271 54.6792 46.5562 54.375 46.4958 53.9813L45.9208 51.4646C45.8604 51.1 45.9521 50.7063 46.1625 50.4334L47.7958 48.4021C48.0062 48.0979 48.3708 47.9167 48.7625 47.9167H51.3042C51.6979 47.9167 52.0604 48.0979 52.2729 48.4021L53.9062 50.4334Z" fill="#0277BD"/>
<path d="M52.7333 31.9375L52.8333 32.7187C53.1125 34.8791 53.3125 37.0625 53.5125 39.2229C53.5917 40.0833 53.6729 40.925 53.7312 41.7854C53.7708 42.4458 54.5104 42.7854 55.05 42.4062C55.7292 41.9062 56.4292 41.4062 57.1479 40.925C58.9458 39.7041 60.7229 38.4833 62.5604 37.3021L63.2396 36.8812C60.3833 34.2791 56.7479 32.4979 52.7333 31.9375ZM52.7333 31.9375L52.8333 32.7187C53.1125 34.8791 53.3125 37.0625 53.5125 39.2229C53.5917 40.0833 53.6729 40.925 53.7312 41.7854C53.7708 42.4458 54.5104 42.7854 55.05 42.4062C55.7292 41.9062 56.4292 41.4062 57.1479 40.925C58.9458 39.7041 60.7229 38.4833 62.5604 37.3021L63.2396 36.8812C60.3833 34.2791 56.7479 32.4979 52.7333 31.9375ZM52.7333 31.9375L52.8333 32.7187C53.1125 34.8791 53.3125 37.0625 53.5125 39.2229C53.5917 40.0833 53.6729 40.925 53.7312 41.7854C53.7708 42.4458 54.5104 42.7854 55.05 42.4062C55.7292 41.9062 56.4292 41.4062 57.1479 40.925C58.9458 39.7041 60.7229 38.4833 62.5604 37.3021L63.2396 36.8812C60.3833 34.2791 56.7479 32.4979 52.7333 31.9375ZM52.7333 31.9375L52.8333 32.7187C53.1125 34.8791 53.3125 37.0625 53.5125 39.2229C53.5917 40.0833 53.6729 40.925 53.7312 41.7854C53.7708 42.4458 54.5104 42.7854 55.05 42.4062C55.7292 41.9062 56.4292 41.4062 57.1479 40.925C58.9458 39.7041 60.7229 38.4833 62.5604 37.3021L63.2396 36.8812C60.3833 34.2791 56.7479 32.4979 52.7333 31.9375ZM52.7333 31.9375L52.8333 32.7187C53.1125 34.8791 53.3125 37.0625 53.5125 39.2229C53.5917 40.0833 53.6729 40.925 53.7312 41.7854C53.7708 42.4458 54.5104 42.7854 55.05 42.4062C55.7292 41.9062 56.4292 41.4062 57.1479 40.925C58.9458 39.7041 60.7229 38.4833 62.5604 37.3021L63.2396 36.8812C60.3833 34.2791 56.7479 32.4979 52.7333 31.9375ZM66.9146 41.3229L66.375 41.9041C64.8771 43.5062 63.3396 45.0458 61.8 46.5875C60.8208 47.5875 59.7625 48.5479 58.7437 49.5291C60.1021 49.8687 61.4604 50.2291 62.8187 50.6291C64.9167 51.2291 66.9937 51.8104 69.0708 52.4896L69.8104 52.7291C69.8312 52.4083 69.8312 52.0687 69.8312 51.7291C69.8312 47.9083 68.7729 44.3458 66.9146 41.3229ZM66.9146 41.3229L66.375 41.9041C64.8771 43.5062 63.3396 45.0458 61.8 46.5875C60.8208 47.5875 59.7625 48.5479 58.7437 49.5291C60.1021 49.8687 61.4604 50.2291 62.8187 50.6291C64.9167 51.2291 66.9937 51.8104 69.0708 52.4896L69.8104 52.7291C69.8312 52.4083 69.8312 52.0687 69.8312 51.7291C69.8312 47.9083 68.7729 44.3458 66.9146 41.3229ZM52.7333 31.9375L52.8333 32.7187C53.1125 34.8791 53.3125 37.0625 53.5125 39.2229C53.5917 40.0833 53.6729 40.925 53.7312 41.7854C53.7708 42.4458 54.5104 42.7854 55.05 42.4062C55.7292 41.9062 56.4292 41.4062 57.1479 40.925C58.9458 39.7041 60.7229 38.4833 62.5604 37.3021L63.2396 36.8812C60.3833 34.2791 56.7479 32.4979 52.7333 31.9375ZM52.7333 31.9375L52.8333 32.7187C53.1125 34.8791 53.3125 37.0625 53.5125 39.2229C53.5917 40.0833 53.6729 40.925 53.7312 41.7854C53.7708 42.4458 54.5104 42.7854 55.05 42.4062C55.7292 41.9062 56.4292 41.4062 57.1479 40.925C58.9458 39.7041 60.7229 38.4833 62.5604 37.3021L63.2396 36.8812C60.3833 34.2791 56.7479 32.4979 52.7333 31.9375ZM67.9729 58.375C65.7958 58.2354 63.6375 58.0354 61.4604 57.8354C60.5208 57.7562 59.6021 57.6562 58.6646 57.5541C58.0646 57.475 57.5854 58.075 57.8062 58.6541C58.1458 59.5541 58.4646 60.4562 58.7854 61.3771C59.4854 63.4187 60.2042 65.4791 60.8625 67.5604L61.0812 68.2812C64.5562 65.9 67.2542 62.4583 68.6708 58.4146L67.9729 58.375ZM66.9146 41.3229L66.375 41.9041C64.8771 43.5062 63.3396 45.0458 61.8 46.5875C60.8208 47.5875 59.7625 48.5479 58.7437 49.5291C60.1021 49.8687 61.4604 50.2291 62.8187 50.6291C64.9167 51.2291 66.9937 51.8104 69.0708 52.4896L69.8104 52.7291C69.8312 52.4083 69.8312 52.0687 69.8312 51.7291C69.8312 47.9083 68.7729 44.3458 66.9146 41.3229ZM66.9146 41.3229L66.375 41.9041C64.8771 43.5062 63.3396 45.0458 61.8 46.5875C60.8208 47.5875 59.7625 48.5479 58.7437 49.5291C60.1021 49.8687 61.4604 50.2291 62.8187 50.6291C64.9167 51.2291 66.9937 51.8104 69.0708 52.4896L69.8104 52.7291C69.8312 52.4083 69.8312 52.0687 69.8312 51.7291C69.8312 47.9083 68.7729 44.3458 66.9146 41.3229ZM67.9729 58.375C65.7958 58.2354 63.6375 58.0354 61.4604 57.8354C60.5208 57.7562 59.6021 57.6562 58.6646 57.5541C58.0646 57.475 57.5854 58.075 57.8062 58.6541C58.1458 59.5541 58.4646 60.4562 58.7854 61.3771C59.4854 63.4187 60.2042 65.4791 60.8625 67.5604L61.0812 68.2812C64.5562 65.9 67.2542 62.4583 68.6708 58.4146L67.9729 58.375ZM52.7333 31.9375L52.8333 32.7187C53.1125 34.8791 53.3125 37.0625 53.5125 39.2229C53.5917 40.0833 53.6729 40.925 53.7312 41.7854C53.7708 42.4458 54.5104 42.7854 55.05 42.4062C55.7292 41.9062 56.4292 41.4062 57.1479 40.925C58.9458 39.7041 60.7229 38.4833 62.5604 37.3021L63.2396 36.8812C60.3833 34.2791 56.7479 32.4979 52.7333 31.9375ZM52.7333 31.9375L52.8333 32.7187C53.1125 34.8791 53.3125 37.0625 53.5125 39.2229C53.5917 40.0833 53.6729 40.925 53.7312 41.7854C53.7708 42.4458 54.5104 42.7854 55.05 42.4062C55.7292 41.9062 56.4292 41.4062 57.1479 40.925C58.9458 39.7041 60.7229 38.4833 62.5604 37.3021L63.2396 36.8812C60.3833 34.2791 56.7479 32.4979 52.7333 31.9375ZM67.9729 58.375C65.7958 58.2354 63.6375 58.0354 61.4604 57.8354C60.5208 57.7562 59.6021 57.6562 58.6646 57.5541C58.0646 57.475 57.5854 58.075 57.8062 58.6541C58.1458 59.5541 58.4646 60.4562 58.7854 61.3771C59.4854 63.4187 60.2042 65.4791 60.8625 67.5604L61.0812 68.2812C64.5562 65.9 67.2542 62.4583 68.6708 58.4146L67.9729 58.375ZM66.9146 41.3229L66.375 41.9041C64.8771 43.5062 63.3396 45.0458 61.8 46.5875C60.8208 47.5875 59.7625 48.5479 58.7437 49.5291C60.1021 49.8687 61.4604 50.2291 62.8187 50.6291C64.9167 51.2291 66.9937 51.8104 69.0708 52.4896L69.8104 52.7291C69.8312 52.4083 69.8312 52.0687 69.8312 51.7291C69.8312 47.9083 68.7729 44.3458 66.9146 41.3229ZM66.9146 41.3229L66.375 41.9041C64.8771 43.5062 63.3396 45.0458 61.8 46.5875C60.8208 47.5875 59.7625 48.5479 58.7437 49.5291C60.1021 49.8687 61.4604 50.2291 62.8187 50.6291C64.9167 51.2291 66.9937 51.8104 69.0708 52.4896L69.8104 52.7291C69.8312 52.4083 69.8312 52.0687 69.8312 51.7291C69.8312 47.9083 68.7729 44.3458 66.9146 41.3229ZM67.9729 58.375C65.7958 58.2354 63.6375 58.0354 61.4604 57.8354C60.5208 57.7562 59.6021 57.6562 58.6646 57.5541C58.0646 57.475 57.5854 58.075 57.8062 58.6541C58.1458 59.5541 58.4646 60.4562 58.7854 61.3771C59.4854 63.4187 60.2042 65.4791 60.8625 67.5604L61.0812 68.2812C64.5562 65.9 67.2542 62.4583 68.6708 58.4146L67.9729 58.375ZM52.7333 31.9375L52.8333 32.7187C53.1125 34.8791 53.3125 37.0625 53.5125 39.2229C53.5917 40.0833 53.6729 40.925 53.7312 41.7854C53.7708 42.4458 54.5104 42.7854 55.05 42.4062C55.7292 41.9062 56.4292 41.4062 57.1479 40.925C58.9458 39.7041 60.7229 38.4833 62.5604 37.3021L63.2396 36.8812C60.3833 34.2791 56.7479 32.4979 52.7333 31.9375ZM55.4292 70.0416C54.2708 68.2 53.1917 66.3 52.1125 64.4187C51.6333 63.5979 51.1729 62.7771 50.7333 61.9375C50.4146 61.3562 49.5937 61.3562 49.275 61.9375C48.8146 62.7979 48.3354 63.6396 47.8375 64.4583C46.7396 66.3396 45.6396 68.2208 44.4812 70.0625L43.9812 70.8625C45.8396 71.4437 47.8167 71.7437 49.8542 71.7437C51.9521 71.7437 53.9896 71.4229 55.8875 70.8021L55.4292 70.0416ZM52.7333 31.9375L52.8333 32.7187C53.1125 34.8791 53.3125 37.0625 53.5125 39.2229C53.5917 40.0833 53.6729 40.925 53.7312 41.7854C53.7708 42.4458 54.5104 42.7854 55.05 42.4062C55.7292 41.9062 56.4292 41.4062 57.1479 40.925C58.9458 39.7041 60.7229 38.4833 62.5604 37.3021L63.2396 36.8812C60.3833 34.2791 56.7479 32.4979 52.7333 31.9375ZM67.9729 58.375C65.7958 58.2354 63.6375 58.0354 61.4604 57.8354C60.5208 57.7562 59.6021 57.6562 58.6646 57.5541C58.0646 57.475 57.5854 58.075 57.8062 58.6541C58.1458 59.5541 58.4646 60.4562 58.7854 61.3771C59.4854 63.4187 60.2042 65.4791 60.8625 67.5604L61.0812 68.2812C64.5562 65.9 67.2542 62.4583 68.6708 58.4146L67.9729 58.375ZM66.9146 41.3229L66.375 41.9041C64.8771 43.5062 63.3396 45.0458 61.8 46.5875C60.8208 47.5875 59.7625 48.5479 58.7437 49.5291C60.1021 49.8687 61.4604 50.2291 62.8187 50.6291C64.9167 51.2291 66.9937 51.8104 69.0708 52.4896L69.8104 52.7291C69.8312 52.4083 69.8312 52.0687 69.8312 51.7291C69.8312 47.9083 68.7729 44.3458 66.9146 41.3229ZM66.9146 41.3229L66.375 41.9041C64.8771 43.5062 63.3396 45.0458 61.8 46.5875C60.8208 47.5875 59.7625 48.5479 58.7437 49.5291C60.1021 49.8687 61.4604 50.2291 62.8187 50.6291C64.9167 51.2291 66.9937 51.8104 69.0708 52.4896L69.8104 52.7291C69.8312 52.4083 69.8312 52.0687 69.8312 51.7291C69.8312 47.9083 68.7729 44.3458 66.9146 41.3229ZM67.9729 58.375C65.7958 58.2354 63.6375 58.0354 61.4604 57.8354C60.5208 57.7562 59.6021 57.6562 58.6646 57.5541C58.0646 57.475 57.5854 58.075 57.8062 58.6541C58.1458 59.5541 58.4646 60.4562 58.7854 61.3771C59.4854 63.4187 60.2042 65.4791 60.8625 67.5604L61.0812 68.2812C64.5562 65.9 67.2542 62.4583 68.6708 58.4146L67.9729 58.375ZM52.7333 31.9375L52.8333 32.7187C53.1125 34.8791 53.3125 37.0625 53.5125 39.2229C53.5917 40.0833 53.6729 40.925 53.7312 41.7854C53.7708 42.4458 54.5104 42.7854 55.05 42.4062C55.7292 41.9062 56.4292 41.4062 57.1479 40.925C58.9458 39.7041 60.7229 38.4833 62.5604 37.3021L63.2396 36.8812C60.3833 34.2791 56.7479 32.4979 52.7333 31.9375ZM55.4292 70.0416C54.2708 68.2 53.1917 66.3 52.1125 64.4187C51.6333 63.5979 51.1729 62.7771 50.7333 61.9375C50.4146 61.3562 49.5937 61.3562 49.275 61.9375C48.8146 62.7979 48.3354 63.6396 47.8375 64.4583C46.7396 66.3396 45.6396 68.2208 44.4812 70.0625L43.9812 70.8625C45.8396 71.4437 47.8167 71.7437 49.8542 71.7437C51.9521 71.7437 53.9896 71.4229 55.8875 70.8021L55.4292 70.0416ZM41.4062 57.275C40.4667 57.3958 39.5479 57.5354 38.6104 57.6354C36.4333 57.8958 34.2958 58.1562 32.1187 58.3562L31.0396 58.4562C32.4979 62.5396 35.2542 66.0208 38.7896 68.3833L39.0687 67.5416C39.7479 65.4604 40.4667 63.4187 41.2062 61.3583C41.5458 60.3583 41.9062 59.3771 42.2854 58.3771C42.525 57.7937 42.025 57.175 41.4062 57.275ZM55.4292 70.0416C54.2708 68.2 53.1917 66.3 52.1125 64.4187C51.6333 63.5979 51.1729 62.7771 50.7333 61.9375C50.4146 61.3562 49.5937 61.3562 49.275 61.9375C48.8146 62.7979 48.3354 63.6396 47.8375 64.4583C46.7396 66.3396 45.6396 68.2208 44.4812 70.0625L43.9812 70.8625C45.8396 71.4437 47.8167 71.7437 49.8542 71.7437C51.9521 71.7437 53.9896 71.4229 55.8875 70.8021L55.4292 70.0416ZM52.7333 31.9375L52.8333 32.7187C53.1125 34.8791 53.3125 37.0625 53.5125 39.2229C53.5917 40.0833 53.6729 40.925 53.7312 41.7854C53.7708 42.4458 54.5104 42.7854 55.05 42.4062C55.7292 41.9062 56.4292 41.4062 57.1479 40.925C58.9458 39.7041 60.7229 38.4833 62.5604 37.3021L63.2396 36.8812C60.3833 34.2791 56.7479 32.4979 52.7333 31.9375ZM67.9729 58.375C65.7958 58.2354 63.6375 58.0354 61.4604 57.8354C60.5208 57.7562 59.6021 57.6562 58.6646 57.5541C58.0646 57.475 57.5854 58.075 57.8062 58.6541C58.1458 59.5541 58.4646 60.4562 58.7854 61.3771C59.4854 63.4187 60.2042 65.4791 60.8625 67.5604L61.0812 68.2812C64.5562 65.9 67.2542 62.4583 68.6708 58.4146L67.9729 58.375ZM66.9146 41.3229L66.375 41.9041C64.8771 43.5062 63.3396 45.0458 61.8 46.5875C60.8208 47.5875 59.7625 48.5479 58.7437 49.5291C60.1021 49.8687 61.4604 50.2291 62.8187 50.6291C64.9167 51.2291 66.9937 51.8104 69.0708 52.4896L69.8104 52.7291C69.8312 52.4083 69.8312 52.0687 69.8312 51.7291C69.8312 47.9083 68.7729 44.3458 66.9146 41.3229ZM66.9146 41.3229L66.375 41.9041C64.8771 43.5062 63.3396 45.0458 61.8 46.5875C60.8208 47.5875 59.7625 48.5479 58.7437 49.5291C60.1021 49.8687 61.4604 50.2291 62.8187 50.6291C64.9167 51.2291 66.9937 51.8104 69.0708 52.4896L69.8104 52.7291C69.8312 52.4083 69.8312 52.0687 69.8312 51.7291C69.8312 47.9083 68.7729 44.3458 66.9146 41.3229ZM67.9729 58.375C65.7958 58.2354 63.6375 58.0354 61.4604 57.8354C60.5208 57.7562 59.6021 57.6562 58.6646 57.5541C58.0646 57.475 57.5854 58.075 57.8062 58.6541C58.1458 59.5541 58.4646 60.4562 58.7854 61.3771C59.4854 63.4187 60.2042 65.4791 60.8625 67.5604L61.0812 68.2812C64.5562 65.9 67.2542 62.4583 68.6708 58.4146L67.9729 58.375ZM52.7333 31.9375L52.8333 32.7187C53.1125 34.8791 53.3125 37.0625 53.5125 39.2229C53.5917 40.0833 53.6729 40.925 53.7312 41.7854C53.7708 42.4458 54.5104 42.7854 55.05 42.4062C55.7292 41.9062 56.4292 41.4062 57.1479 40.925C58.9458 39.7041 60.7229 38.4833 62.5604 37.3021L63.2396 36.8812C60.3833 34.2791 56.7479 32.4979 52.7333 31.9375ZM55.4292 70.0416C54.2708 68.2 53.1917 66.3 52.1125 64.4187C51.6333 63.5979 51.1729 62.7771 50.7333 61.9375C50.4146 61.3562 49.5937 61.3562 49.275 61.9375C48.8146 62.7979 48.3354 63.6396 47.8375 64.4583C46.7396 66.3396 45.6396 68.2208 44.4812 70.0625L43.9812 70.8625C45.8396 71.4437 47.8167 71.7437 49.8542 71.7437C51.9521 71.7437 53.9896 71.4229 55.8875 70.8021L55.4292 70.0416ZM41.4062 57.275C40.4667 57.3958 39.5479 57.5354 38.6104 57.6354C36.4333 57.8958 34.2958 58.1562 32.1187 58.3562L31.0396 58.4562C32.4979 62.5396 35.2542 66.0208 38.7896 68.3833L39.0687 67.5416C39.7479 65.4604 40.4667 63.4187 41.2062 61.3583C41.5458 60.3583 41.9062 59.3771 42.2854 58.3771C42.525 57.7937 42.025 57.175 41.4062 57.275ZM41.4062 57.275C40.4667 57.3958 39.5479 57.5354 38.6104 57.6354C36.4333 57.8958 34.2958 58.1562 32.1187 58.3562L31.0396 58.4562C32.4979 62.5396 35.2542 66.0208 38.7896 68.3833L39.0687 67.5416C39.7479 65.4604 40.4667 63.4187 41.2062 61.3583C41.5458 60.3583 41.9062 59.3771 42.2854 58.3771C42.525 57.7937 42.025 57.175 41.4062 57.275ZM55.4292 70.0416C54.2708 68.2 53.1917 66.3 52.1125 64.4187C51.6333 63.5979 51.1729 62.7771 50.7333 61.9375C50.4146 61.3562 49.5937 61.3562 49.275 61.9375C48.8146 62.7979 48.3354 63.6396 47.8375 64.4583C46.7396 66.3396 45.6396 68.2208 44.4812 70.0625L43.9812 70.8625C45.8396 71.4437 47.8167 71.7437 49.8542 71.7437C51.9521 71.7437 53.9896 71.4229 55.8875 70.8021L55.4292 70.0416ZM52.7333 31.9375L52.8333 32.7187C53.1125 34.8791 53.3125 37.0625 53.5125 39.2229C53.5917 40.0833 53.6729 40.925 53.7312 41.7854C53.7708 42.4458 54.5104 42.7854 55.05 42.4062C55.7292 41.9062 56.4292 41.4062 57.1479 40.925C58.9458 39.7041 60.7229 38.4833 62.5604 37.3021L63.2396 36.8812C60.3833 34.2791 56.7479 32.4979 52.7333 31.9375ZM67.9729 58.375C65.7958 58.2354 63.6375 58.0354 61.4604 57.8354C60.5208 57.7562 59.6021 57.6562 58.6646 57.5541C58.0646 57.475 57.5854 58.075 57.8062 58.6541C58.1458 59.5541 58.4646 60.4562 58.7854 61.3771C59.4854 63.4187 60.2042 65.4791 60.8625 67.5604L61.0812 68.2812C64.5562 65.9 67.2542 62.4583 68.6708 58.4146L67.9729 58.375ZM66.9146 41.3229L66.375 41.9041C64.8771 43.5062 63.3396 45.0458 61.8 46.5875C60.8208 47.5875 59.7625 48.5479 58.7437 49.5291C60.1021 49.8687 61.4604 50.2291 62.8187 50.6291C64.9167 51.2291 66.9937 51.8104 69.0708 52.4896L69.8104 52.7291C69.8312 52.4083 69.8312 52.0687 69.8312 51.7291C69.8312 47.9083 68.7729 44.3458 66.9146 41.3229ZM66.9146 41.3229L66.375 41.9041C64.8771 43.5062 63.3396 45.0458 61.8 46.5875C60.8208 47.5875 59.7625 48.5479 58.7437 49.5291C60.1021 49.8687 61.4604 50.2291 62.8187 50.6291C64.9167 51.2291 66.9937 51.8104 69.0708 52.4896L69.8104 52.7291C69.8312 52.4083 69.8312 52.0687 69.8312 51.7291C69.8312 47.9083 68.7729 44.3458 66.9146 41.3229ZM67.9729 58.375C65.7958 58.2354 63.6375 58.0354 61.4604 57.8354C60.5208 57.7562 59.6021 57.6562 58.6646 57.5541C58.0646 57.475 57.5854 58.075 57.8062 58.6541C58.1458 59.5541 58.4646 60.4562 58.7854 61.3771C59.4854 63.4187 60.2042 65.4791 60.8625 67.5604L61.0812 68.2812C64.5562 65.9 67.2542 62.4583 68.6708 58.4146L67.9729 58.375ZM52.7333 31.9375L52.8333 32.7187C53.1125 34.8791 53.3125 37.0625 53.5125 39.2229C53.5917 40.0833 53.6729 40.925 53.7312 41.7854C53.7708 42.4458 54.5104 42.7854 55.05 42.4062C55.7292 41.9062 56.4292 41.4062 57.1479 40.925C58.9458 39.7041 60.7229 38.4833 62.5604 37.3021L63.2396 36.8812C60.3833 34.2791 56.7479 32.4979 52.7333 31.9375ZM55.4292 70.0416C54.2708 68.2 53.1917 66.3 52.1125 64.4187C51.6333 63.5979 51.1729 62.7771 50.7333 61.9375C50.4146 61.3562 49.5937 61.3562 49.275 61.9375C48.8146 62.7979 48.3354 63.6396 47.8375 64.4583C46.7396 66.3396 45.6396 68.2208 44.4812 70.0625L43.9812 70.8625C45.8396 71.4437 47.8167 71.7437 49.8542 71.7437C51.9521 71.7437 53.9896 71.4229 55.8875 70.8021L55.4292 70.0416ZM41.4062 57.275C40.4667 57.3958 39.5479 57.5354 38.6104 57.6354C36.4333 57.8958 34.2958 58.1562 32.1187 58.3562L31.0396 58.4562C32.4979 62.5396 35.2542 66.0208 38.7896 68.3833L39.0687 67.5416C39.7479 65.4604 40.4667 63.4187 41.2062 61.3583C41.5458 60.3583 41.9062 59.3771 42.2854 58.3771C42.525 57.7937 42.025 57.175 41.4062 57.275ZM40.2875 48.1479C39.6083 47.5271 38.95 46.9062 38.2896 46.2458C36.7312 44.7041 35.1937 43.1833 33.675 41.6021L33.0354 40.9416C31.0375 44.0437 29.8792 47.7458 29.8792 51.7291C29.8792 52.1104 29.9 52.4687 29.9 52.8291L30.8396 52.5083C32.8979 51.7687 34.975 51.1271 37.0312 50.4479C38.0104 50.1271 38.9896 49.8479 39.9667 49.5479C40.5875 49.3687 40.7667 48.5875 40.2875 48.1479ZM41.4062 57.275C40.4667 57.3958 39.5479 57.5354 38.6104 57.6354C36.4333 57.8958 34.2958 58.1562 32.1187 58.3562L31.0396 58.4562C32.4979 62.5396 35.2542 66.0208 38.7896 68.3833L39.0687 67.5416C39.7479 65.4604 40.4667 63.4187 41.2062 61.3583C41.5458 60.3583 41.9062 59.3771 42.2854 58.3771C42.525 57.7937 42.025 57.175 41.4062 57.275ZM55.4292 70.0416C54.2708 68.2 53.1917 66.3 52.1125 64.4187C51.6333 63.5979 51.1729 62.7771 50.7333 61.9375C50.4146 61.3562 49.5937 61.3562 49.275 61.9375C48.8146 62.7979 48.3354 63.6396 47.8375 64.4583C46.7396 66.3396 45.6396 68.2208 44.4812 70.0625L43.9812 70.8625C45.8396 71.4437 47.8167 71.7437 49.8542 71.7437C51.9521 71.7437 53.9896 71.4229 55.8875 70.8021L55.4292 70.0416ZM52.7333 31.9375L52.8333 32.7187C53.1125 34.8791 53.3125 37.0625 53.5125 39.2229C53.5917 40.0833 53.6729 40.925 53.7312 41.7854C53.7708 42.4458 54.5104 42.7854 55.05 42.4062C55.7292 41.9062 56.4292 41.4062 57.1479 40.925C58.9458 39.7041 60.7229 38.4833 62.5604 37.3021L63.2396 36.8812C60.3833 34.2791 56.7479 32.4979 52.7333 31.9375ZM67.9729 58.375C65.7958 58.2354 63.6375 58.0354 61.4604 57.8354C60.5208 57.7562 59.6021 57.6562 58.6646 57.5541C58.0646 57.475 57.5854 58.075 57.8062 58.6541C58.1458 59.5541 58.4646 60.4562 58.7854 61.3771C59.4854 63.4187 60.2042 65.4791 60.8625 67.5604L61.0812 68.2812C64.5562 65.9 67.2542 62.4583 68.6708 58.4146L67.9729 58.375ZM66.9146 41.3229L66.375 41.9041C64.8771 43.5062 63.3396 45.0458 61.8 46.5875C60.8208 47.5875 59.7625 48.5479 58.7437 49.5291C60.1021 49.8687 61.4604 50.2291 62.8187 50.6291C64.9167 51.2291 66.9937 51.8104 69.0708 52.4896L69.8104 52.7291C69.8312 52.4083 69.8312 52.0687 69.8312 51.7291C69.8312 47.9083 68.7729 44.3458 66.9146 41.3229ZM66.9146 41.3229L66.375 41.9041C64.8771 43.5062 63.3396 45.0458 61.8 46.5875C60.8208 47.5875 59.7625 48.5479 58.7437 49.5291C60.1021 49.8687 61.4604 50.2291 62.8187 50.6291C64.9167 51.2291 66.9937 51.8104 69.0708 52.4896L69.8104 52.7291C69.8312 52.4083 69.8312 52.0687 69.8312 51.7291C69.8312 47.9083 68.7729 44.3458 66.9146 41.3229ZM61.4604 57.8354C60.5208 57.7562 59.6021 57.6562 58.6646 57.5541C58.0646 57.475 57.5854 58.075 57.8062 58.6541C58.1458 59.5541 58.4646 60.4562 58.7854 61.3771C59.4854 63.4187 60.2042 65.4791 60.8625 67.5604L61.0812 68.2812C64.5562 65.9 67.2542 62.4583 68.6708 58.4146L67.9708 58.375C65.7958 58.2354 63.6396 58.0354 61.4604 57.8354ZM63.2396 36.8812C60.3833 34.2791 56.7479 32.4979 52.7333 31.9375L52.8333 32.7187C53.1125 34.8791 53.3125 37.0625 53.5125 39.2229C53.5917 40.0833 53.6729 40.925 53.7312 41.7854C53.7708 42.4458 54.5104 42.7854 55.05 42.4062C55.7292 41.9062 56.4292 41.4062 57.1479 40.925C58.9458 39.7041 60.7229 38.4833 62.5604 37.3021L63.2396 36.8812ZM52.1125 64.4187C51.6333 63.5979 51.1729 62.7771 50.7333 61.9375C50.4146 61.3562 49.5937 61.3562 49.275 61.9375C48.8146 62.7979 48.3354 63.6396 47.8375 64.4583C46.7396 66.3396 45.6396 68.2208 44.4812 70.0625L43.9812 70.8625C45.8396 71.4437 47.8167 71.7437 49.8542 71.7437C51.9521 71.7437 53.9896 71.4229 55.8875 70.8021L55.4271 70.0416C54.2708 68.202 53.1917 66.3 52.1125 64.4187ZM41.4062 57.275C40.4667 57.3958 39.5479 57.5354 38.6104 57.6354C36.4333 57.8958 34.2958 58.1562 32.1187 58.3562L31.0396 58.4562C32.4979 62.5396 35.2542 66.0208 38.7896 68.3833L39.0687 67.5416C39.7479 65.4604 40.4667 63.4187 41.2062 61.3583C41.5458 60.3583 41.9062 59.3771 42.2854 58.3771C42.525 57.7937 42.025 57.175 41.4062 57.275ZM39.9687 49.5479C40.5875 49.3687 40.7687 48.5875 40.2875 48.1479C39.6083 47.5271 38.95 46.9062 38.2896 46.2458C36.7312 44.7041 35.1937 43.1833 33.675 41.6021L33.0354 40.9416C31.0375 44.0437 29.8792 47.7458 29.8792 51.7291C29.8792 52.1104 29.9 52.4687 29.9 52.8291L30.8396 52.5083C32.8979 51.7687 34.975 51.1271 37.0312 50.4479C38.0104 50.1291 38.9896 49.85 39.9687 49.5479ZM93.2625 58.6958L85.6312 25.1125C85.2917 23.6125 84.2937 22.3708 82.9146 21.6896L52.0333 6.76039C50.6542 6.07914 49.0562 6.07914 47.6792 6.76039L16.7979 21.6896C15.4187 22.3708 14.4208 23.6104 14.0812 25.1125L6.45 58.6958C6.11041 60.1958 6.47083 61.7583 7.40833 62.9396L28.7812 89.8771C29.7396 91.077 31.1979 91.7791 32.7167 91.7791H66.9937C68.5125 91.7791 69.9708 91.0791 70.9292 89.8771L92.3021 62.9396C93.2417 61.7562 93.6021 60.1958 93.2625 58.6958ZM82.5958 60.0958C81.9958 60.2354 81.3979 60.0958 80.9187 59.7958C79.9396 59.1354 78.9021 58.775 77.8625 58.475C77.3438 58.3354 76.8042 58.2146 76.2854 58.1354C75.7667 57.975 75.1667 58.1354 74.5667 58.4146C73.9667 58.7541 73.4271 58.6958 72.8688 58.6541H72.8083C71.0896 64.3583 67.3146 69.1812 62.3208 72.2437V72.2645C62.4812 72.7854 62.6604 73.2854 62.5 73.9666C62.3604 74.6271 62.3396 75.2271 62.6208 75.7083C62.8396 76.1896 63.0812 76.6896 63.3396 77.15C63.8792 78.0896 64.4792 79.0312 65.3562 79.8125C66.2354 80.6333 66.2958 81.9937 65.4958 82.8937C64.6771 83.775 63.3187 83.8333 62.4187 83.0333C61.9583 82.6125 61.7187 82.0521 61.7187 81.4729C61.6792 80.2916 61.3792 79.2521 61.0187 78.2104C60.8396 77.7104 60.6396 77.2104 60.4 76.7104C60.2208 76.1896 59.7417 75.8291 59.1604 75.4896C58.6021 75.1896 58.3208 74.7687 58.0417 74.3083C55.4854 75.25 52.7292 75.75 49.8521 75.75C47.0167 75.75 44.3 75.25 41.7812 74.35C41.5417 74.7896 41.2625 75.1896 40.7021 75.4916C40.1229 75.8125 39.6437 76.1916 39.4646 76.7125C39.225 77.1937 39.0042 77.6937 38.825 78.1937C38.4646 79.2354 38.1458 80.275 38.125 81.4562C38.0854 82.6562 37.0667 83.5979 35.8687 83.5583C34.6708 83.5187 33.7312 82.5187 33.7708 81.3166C33.7917 80.6958 34.0708 80.1562 34.4896 79.775C35.3687 78.975 35.9687 78.0541 36.5271 77.1333C36.7875 76.6521 37.0271 76.1729 37.2458 75.6729C37.525 75.2125 37.5062 74.5916 37.3854 73.9312C37.2458 73.3104 37.3854 72.8104 37.5458 72.35C32.5312 69.3271 28.6958 64.525 26.9396 58.8208C26.4792 58.8604 26.0417 58.8604 25.5208 58.6C24.9021 58.3396 24.3229 58.1791 23.8021 58.3604C23.2625 58.4604 22.7437 58.6 22.225 58.7604C21.1854 59.1 20.1667 59.4812 19.2083 60.1604C18.2292 60.8604 16.8708 60.6208 16.1729 59.6396C15.4937 58.6583 15.7125 57.2979 16.6917 56.6166C17.1917 56.2562 17.8104 56.1354 18.3687 56.2354C19.5083 56.475 20.6062 56.3958 21.6854 56.2562C22.225 56.1958 22.7646 56.0958 23.2833 55.9562C23.8229 55.9166 24.3021 55.5166 24.7417 55.0166C25.1208 54.5771 25.5604 54.3958 26 54.2354C25.9208 53.4146 25.8792 52.575 25.8792 51.7333C25.8792 46.6104 27.4771 41.8666 30.2146 37.9646C29.8542 37.6041 29.5146 37.2437 29.375 36.6041C29.1958 35.9646 28.9562 35.4041 28.4958 35.1041C28.0771 34.7437 27.6562 34.4229 27.2167 34.1229C26.2979 33.5229 25.3583 32.9625 24.2396 32.6229C23.0812 32.3021 22.4021 31.0812 22.7417 29.9416C23.0812 28.7812 24.2792 28.1208 25.4375 28.4416C26.0167 28.6208 26.4958 29.0229 26.7562 29.5229C27.2958 30.5646 28.0354 31.3833 28.8146 32.1437C29.1937 32.525 29.6146 32.8833 30.0333 33.2041C30.4125 33.6041 31.0125 33.725 31.6708 33.7646C32.3708 33.7854 32.8083 34.0854 33.2687 34.3854L33.2896 34.4062C37.0458 30.7646 41.9979 28.3625 47.4917 27.8416C47.5521 27.3021 47.5917 26.7604 48.0104 26.2208C48.4104 25.6812 48.6896 25.1396 48.6292 24.6C48.65 24.0604 48.6292 23.5187 48.5896 22.9583C48.4687 21.8771 48.3104 20.7958 47.85 19.7166C47.3708 18.6166 47.8896 17.3354 48.9896 16.8541C50.0875 16.3937 51.3667 16.8937 51.8458 17.9958C52.0854 18.5771 52.0646 19.1958 51.8458 19.7166C51.3854 20.7979 51.2271 21.8771 51.1062 22.9583C51.0667 23.5187 51.0458 24.0583 51.0667 24.6C51.0062 25.1396 51.2854 25.6812 51.6854 26.2208C52.1042 26.7604 52.1458 27.3021 52.2042 27.8416C57.8375 28.3812 62.9104 30.8833 66.7062 34.6854C67.1667 34.3854 67.6042 34.0646 68.3042 34.0458C68.9625 34.0062 69.5625 33.8854 69.9417 33.4854C70.3604 33.1458 70.7604 32.7854 71.1604 32.4041C71.9187 31.6437 72.6583 30.8229 73.1979 29.7833C73.7375 28.7021 75.0562 28.2833 76.1146 28.8437C77.1937 29.3833 77.6125 30.7041 77.0542 31.7666C76.775 32.3271 76.2958 32.7083 75.7354 32.8666C74.6167 33.1875 73.6771 33.7666 72.7792 34.3666C72.3396 34.6875 71.9 35.0062 71.5 35.3666C71.0396 35.6666 70.8 36.2271 70.6208 36.8666C70.4812 37.5479 70.1021 37.9271 69.7229 38.3271C72.3187 42.15 73.8187 46.7729 73.8187 51.7354C73.8187 52.4958 73.7792 53.2562 73.7187 53.9979H73.7396C74.2583 54.1583 74.7792 54.2979 75.2375 54.8375C75.6979 55.3187 76.1771 55.6771 76.7167 55.7187C77.2562 55.8396 77.775 55.9187 78.3146 55.9791C79.4125 56.0791 80.4917 56.1187 81.65 55.8583C82.8292 55.5979 83.9875 56.3396 84.2458 57.5187C84.5125 58.675 83.7729 59.8354 82.5958 60.0958ZM66.375 41.9041C64.8771 43.5062 63.3396 45.0458 61.8 46.5875C60.8208 47.5875 59.7625 48.5479 58.7437 49.5291C60.1021 49.8687 61.4604 50.2291 62.8187 50.6291C64.9167 51.2291 66.9937 51.8104 69.0708 52.4896L69.8104 52.7291C69.8312 52.4083 69.8312 52.0687 69.8312 51.7291C69.8312 47.9062 68.7729 44.3437 66.9146 41.3229L66.375 41.9041ZM61.4604 57.8354C60.5208 57.7562 59.6021 57.6562 58.6646 57.5541C58.0646 57.475 57.5854 58.075 57.8062 58.6541C58.1458 59.5541 58.4646 60.4562 58.7854 61.3771C59.4854 63.4187 60.2042 65.4791 60.8625 67.5604L61.0812 68.2812C64.5562 65.9 67.2542 62.4583 68.6708 58.4146L67.9708 58.375C65.7958 58.2354 63.6396 58.0354 61.4604 57.8354ZM63.2396 36.8812C60.3833 34.2791 56.7479 32.4979 52.7333 31.9375L52.8333 32.7187C53.1125 34.8791 53.3125 37.0625 53.5125 39.2229C53.5917 40.0833 53.6729 40.925 53.7312 41.7854C53.7708 42.4458 54.5104 42.7854 55.05 42.4062C55.7292 41.9062 56.4292 41.4062 57.1479 40.925C58.9458 39.7041 60.7229 38.4833 62.5604 37.3021L63.2396 36.8812ZM52.1125 64.4187C51.6333 63.5979 51.1729 62.7771 50.7333 61.9375C50.4146 61.3562 49.5937 61.3562 49.275 61.9375C48.8146 62.7979 48.3354 63.6396 47.8375 64.4583C46.7396 66.3396 45.6396 68.2208 44.4812 70.0625L43.9812 70.8625C45.8396 71.4437 47.8167 71.7437 49.8542 71.7437C51.9521 71.7437 53.9896 71.4229 55.8875 70.8021L55.4271 70.0416C54.2708 68.202 53.1917 66.3 52.1125 64.4187ZM46.2 39.2229C46.4 37.0604 46.6 34.8791 46.8792 32.7187L46.9792 31.9375C43.125 32.4771 39.6292 34.1396 36.8312 36.5812L37.45 36.9625C39.3083 38.1229 41.1062 39.3437 42.9042 40.5646C43.9437 41.225 44.9208 41.9646 45.9 42.6666C45.9812 41.5229 46.0812 40.3625 46.2 39.2229ZM41.4062 57.275C40.4667 57.3958 39.5479 57.5354 38.6104 57.6354C36.4333 57.8958 34.2958 58.1562 32.1187 58.3562L31.0396 58.4562C32.4979 62.5396 35.2542 66.0208 38.7896 68.3833L39.0687 67.5416C39.7479 65.4604 40.4667 63.4187 41.2062 61.3583C41.5458 60.3583 41.9062 59.3771 42.2854 58.3771C42.525 57.7937 42.025 57.175 41.4062 57.275ZM39.9687 49.5479C40.5875 49.3687 40.7687 48.5875 40.2875 48.1479C39.6083 47.5271 38.95 46.9062 38.2896 46.2458C36.7312 44.7041 35.1937 43.1833 33.675 41.6021L33.0354 40.9416C31.0375 44.0437 29.8792 47.7458 29.8792 51.7291C29.8792 52.1104 29.9 52.4687 29.9 52.8291L30.8396 52.5083C32.8979 51.7687 34.975 51.1271 37.0312 50.4479C38.0104 50.1291 38.9896 49.85 39.9687 49.5479ZM40.2875 48.1479C39.6083 47.5271 38.95 46.9062 38.2896 46.2458C36.7312 44.7041 35.1937 43.1833 33.675 41.6021L33.0354 40.9416C31.0375 44.0437 29.8792 47.7458 29.8792 51.7291C29.8792 52.1104 29.9 52.4687 29.9 52.8291L30.8396 52.5083C32.8979 51.7687 34.975 51.1271 37.0312 50.4479C38.0104 50.1271 38.9896 49.8479 39.9667 49.5479C40.5875 49.3687 40.7667 48.5875 40.2875 48.1479ZM41.4062 57.275C40.4667 57.3958 39.5479 57.5354 38.6104 57.6354C36.4333 57.8958 34.2958 58.1562 32.1187 58.3562L31.0396 58.4562C32.4979 62.5396 35.2542 66.0208 38.7896 68.3833L39.0687 67.5416C39.7479 65.4604 40.4667 63.4187 41.2062 61.3583C41.5458 60.3583 41.9062 59.3771 42.2854 58.3771C42.525 57.7937 42.025 57.175 41.4062 57.275ZM55.4292 70.0416C54.2708 68.2 53.1917 66.3 52.1125 64.4187C51.6333 63.5979 51.1729 62.7771 50.7333 61.9375C50.4146 61.3562 49.5937 61.3562 49.275 61.9375C48.8146 62.7979 48.3354 63.6396 47.8375 64.4583C46.7396 66.3396 45.6396 68.2208 44.4812 70.0625L43.9812 70.8625C45.8396 71.4437 47.8167 71.7437 49.8542 71.7437C51.9521 71.7437 53.9896 71.4229 55.8875 70.8021L55.4292 70.0416ZM52.7333 31.9375L52.8333 32.7187C53.1125 34.8791 53.3125 37.0625 53.5125 39.2229C53.5917 40.0833 53.6729 40.925 53.7312 41.7854C53.7708 42.4458 54.5104 42.7854 55.05 42.4062C55.7292 41.9062 56.4292 41.4062 57.1479 40.925C58.9458 39.7041 60.7229 38.4833 62.5604 37.3021L63.2396 36.8812C60.3833 34.2791 56.7479 32.4979 52.7333 31.9375ZM67.9729 58.375C65.7958 58.2354 63.6375 58.0354 61.4604 57.8354C60.5208 57.7562 59.6021 57.6562 58.6646 57.5541C58.0646 57.475 57.5854 58.075 57.8062 58.6541C58.1458 59.5541 58.4646 60.4562 58.7854 61.3771C59.4854 63.4187 60.2042 65.4791 60.8625 67.5604L61.0812 68.2812C64.5562 65.9 67.2542 62.4583 68.6708 58.4146L67.9729 58.375ZM66.9146 41.3229L66.375 41.9041C64.8771 43.5062 63.3396 45.0458 61.8 46.5875C60.8208 47.5875 59.7625 48.5479 58.7437 49.5291C60.1021 49.8687 61.4604 50.2291 62.8187 50.6291C64.9167 51.2291 66.9937 51.8104 69.0708 52.4896L69.8104 52.7291C69.8312 52.4083 69.8312 52.0687 69.8312 51.7291C69.8312 47.9083 68.7729 44.3458 66.9146 41.3229ZM66.9146 41.3229L66.375 41.9041C64.8771 43.5062 63.3396 45.0458 61.8 46.5875C60.8208 47.5875 59.7625 48.5479 58.7437 49.5291C60.1021 49.8687 61.4604 50.2291 62.8187 50.6291C64.9167 51.2291 66.9937 51.8104 69.0708 52.4896L69.8104 52.7291C69.8312 52.4083 69.8312 52.0687 69.8312 51.7291C69.8312 47.9083 68.7729 44.3458 66.9146 41.3229ZM67.9729 58.375C65.7958 58.2354 63.6375 58.0354 61.4604 57.8354C60.5208 57.7562 59.6021 57.6562 58.6646 57.5541C58.0646 57.475 57.5854 58.075 57.8062 58.6541C58.1458 59.5541 58.4646 60.4562 58.7854 61.3771C59.4854 63.4187 60.2042 65.4791 60.8625 67.5604L61.0812 68.2812C64.5562 65.9 67.2542 62.4583 68.6708 58.4146L67.9729 58.375ZM52.7333 31.9375L52.8333 32.7187C53.1125 34.8791 53.3125 37.0625 53.5125 39.2229C53.5917 40.0833 53.6729 40.925 53.7312 41.7854C53.7708 42.4458 54.5104 42.7854 55.05 42.4062C55.7292 41.9062 56.4292 41.4062 57.1479 40.925C58.9458 39.7041 60.7229 38.4833 62.5604 37.3021L63.2396 36.8812C60.3833 34.2791 56.7479 32.4979 52.7333 31.9375ZM55.4292 70.0416C54.2708 68.2 53.1917 66.3 52.1125 64.4187C51.6333 63.5979 51.1729 62.7771 50.7333 61.9375C50.4146 61.3562 49.5937 61.3562 49.275 61.9375C48.8146 62.7979 48.3354 63.6396 47.8375 64.4583C46.7396 66.3396 45.6396 68.2208 44.4812 70.0625L43.9812 70.8625C45.8396 71.4437 47.8167 71.7437 49.8542 71.7437C51.9521 71.7437 53.9896 71.4229 55.8875 70.8021L55.4292 70.0416ZM41.4062 57.275C40.4667 57.3958 39.5479 57.5354 38.6104 57.6354C36.4333 57.8958 34.2958 58.1562 32.1187 58.3562L31.0396 58.4562C32.4979 62.5396 35.2542 66.0208 38.7896 68.3833L39.0687 67.5416C39.7479 65.4604 40.4667 63.4187 41.2062 61.3583C41.5458 60.3583 41.9062 59.3771 42.2854 58.3771C42.525 57.7937 42.025 57.175 41.4062 57.275ZM40.2875 48.1479C39.6083 47.5271 38.95 46.9062 38.2896 46.2458C36.7312 44.7041 35.1937 43.1833 33.675 41.6021L33.0354 40.9416C31.0375 44.0437 29.8792 47.7458 29.8792 51.7291C29.8792 52.1104 29.9 52.4687 29.9 52.8291L30.8396 52.5083C32.8979 51.7687 34.975 51.1271 37.0312 50.4479C38.0104 50.1271 38.9896 49.8479 39.9667 49.5479C40.5875 49.3687 40.7667 48.5875 40.2875 48.1479ZM41.4062 57.275C40.4667 57.3958 39.5479 57.5354 38.6104 57.6354C36.4333 57.8958 34.2958 58.1562 32.1187 58.3562L31.0396 58.4562C32.4979 62.5396 35.2542 66.0208 38.7896 68.3833L39.0687 67.5416C39.7479 65.4604 40.4667 63.4187 41.2062 61.3583C41.5458 60.3583 41.9062 59.3771 42.2854 58.3771C42.525 57.7937 42.025 57.175 41.4062 57.275ZM55.4292 70.0416C54.2708 68.2 53.1917 66.3 52.1125 64.4187C51.6333 63.5979 51.1729 62.7771 50.7333 61.9375C50.4146 61.3562 49.5937 61.3562 49.275 61.9375C48.8146 62.7979 48.3354 63.6396 47.8375 64.4583C46.7396 66.3396 45.6396 68.2208 44.4812 70.0625L43.9812 70.8625C45.8396 71.4437 47.8167 71.7437 49.8542 71.7437C51.9521 71.7437 53.9896 71.4229 55.8875 70.8021L55.4292 70.0416ZM52.7333 31.9375L52.8333 32.7187C53.1125 34.8791 53.3125 37.0625 53.5125 39.2229C53.5917 40.0833 53.6729 40.925 53.7312 41.7854C53.7708 42.4458 54.5104 42.7854 55.05 42.4062C55.7292 41.9062 56.4292 41.4062 57.1479 40.925C58.9458 39.7041 60.7229 38.4833 62.5604 37.3021L63.2396 36.8812C60.3833 34.2791 56.7479 32.4979 52.7333 31.9375ZM67.9729 58.375C65.7958 58.2354 63.6375 58.0354 61.4604 57.8354C60.5208 57.7562 59.6021 57.6562 58.6646 57.5541C58.0646 57.475 57.5854 58.075 57.8062 58.6541C58.1458 59.5541 58.4646 60.4562 58.7854 61.3771C59.4854 63.4187 60.2042 65.4791 60.8625 67.5604L61.0812 68.2812C64.5562 65.9 67.2542 62.4583 68.6708 58.4146L67.9729 58.375ZM66.9146 41.3229L66.375 41.9041C64.8771 43.5062 63.3396 45.0458 61.8 46.5875C60.8208 47.5875 59.7625 48.5479 58.7437 49.5291C60.1021 49.8687 61.4604 50.2291 62.8187 50.6291C64.9167 51.2291 66.9937 51.8104 69.0708 52.4896L69.8104 52.7291C69.8312 52.4083 69.8312 52.0687 69.8312 51.7291C69.8312 47.9083 68.7729 44.3458 66.9146 41.3229ZM66.9146 41.3229L66.375 41.9041C64.8771 43.5062 63.3396 45.0458 61.8 46.5875C60.8208 47.5875 59.7625 48.5479 58.7437 49.5291C60.1021 49.8687 61.4604 50.2291 62.8187 50.6291C64.9167 51.2291 66.9937 51.8104 69.0708 52.4896L69.8104 52.7291C69.8312 52.4083 69.8312 52.0687 69.8312 51.7291C69.8312 47.9083 68.7729 44.3458 66.9146 41.3229ZM67.9729 58.375C65.7958 58.2354 63.6375 58.0354 61.4604 57.8354C60.5208 57.7562 59.6021 57.6562 58.6646 57.5541C58.0646 57.475 57.5854 58.075 57.8062 58.6541C58.1458 59.5541 58.4646 60.4562 58.7854 61.3771C59.4854 63.4187 60.2042 65.4791 60.8625 67.5604L61.0812 68.2812C64.5562 65.9 67.2542 62.4583 68.6708 58.4146L67.9729 58.375ZM52.7333 31.9375L52.8333 32.7187C53.1125 34.8791 53.3125 37.0625 53.5125 39.2229C53.5917 40.0833 53.6729 40.925 53.7312 41.7854C53.7708 42.4458 54.5104 42.7854 55.05 42.4062C55.7292 41.9062 56.4292 41.4062 57.1479 40.925C58.9458 39.7041 60.7229 38.4833 62.5604 37.3021L63.2396 36.8812C60.3833 34.2791 56.7479 32.4979 52.7333 31.9375ZM55.4292 70.0416C54.2708 68.2 53.1917 66.3 52.1125 64.4187C51.6333 63.5979 51.1729 62.7771 50.7333 61.9375C50.4146 61.3562 49.5937 61.3562 49.275 61.9375C48.8146 62.7979 48.3354 63.6396 47.8375 64.4583C46.7396 66.3396 45.6396 68.2208 44.4812 70.0625L43.9812 70.8625C45.8396 71.4437 47.8167 71.7437 49.8542 71.7437C51.9521 71.7437 53.9896 71.4229 55.8875 70.8021L55.4292 70.0416ZM41.4062 57.275C40.4667 57.3958 39.5479 57.5354 38.6104 57.6354C36.4333 57.8958 34.2958 58.1562 32.1187 58.3562L31.0396 58.4562C32.4979 62.5396 35.2542 66.0208 38.7896 68.3833L39.0687 67.5416C39.7479 65.4604 40.4667 63.4187 41.2062 61.3583C41.5458 60.3583 41.9062 59.3771 42.2854 58.3771C42.525 57.7937 42.025 57.175 41.4062 57.275ZM55.4292 70.0416C54.2708 68.2 53.1917 66.3 52.1125 64.4187C51.6333 63.5979 51.1729 62.7771 50.7333 61.9375C50.4146 61.3562 49.5937 61.3562 49.275 61.9375C48.8146 62.7979 48.3354 63.6396 47.8375 64.4583C46.7396 66.3396 45.6396 68.2208 44.4812 70.0625L43.9812 70.8625C45.8396 71.4437 47.8167 71.7437 49.8542 71.7437C51.9521 71.7437 53.9896 71.4229 55.8875 70.8021L55.4292 70.0416ZM52.7333 31.9375L52.8333 32.7187C53.1125 34.8791 53.3125 37.0625 53.5125 39.2229C53.5917 40.0833 53.6729 40.925 53.7312 41.7854C53.7708 42.4458 54.5104 42.7854 55.05 42.4062C55.7292 41.9062 56.4292 41.4062 57.1479 40.925C58.9458 39.7041 60.7229 38.4833 62.5604 37.3021L63.2396 36.8812C60.3833 34.2791 56.7479 32.4979 52.7333 31.9375ZM67.9729 58.375C65.7958 58.2354 63.6375 58.0354 61.4604 57.8354C60.5208 57.7562 59.6021 57.6562 58.6646 57.5541C58.0646 57.475 57.5854 58.075 57.8062 58.6541C58.1458 59.5541 58.4646 60.4562 58.7854 61.3771C59.4854 63.4187 60.2042 65.4791 60.8625 67.5604L61.0812 68.2812C64.5562 65.9 67.2542 62.4583 68.6708 58.4146L67.9729 58.375ZM66.9146 41.3229L66.375 41.9041C64.8771 43.5062 63.3396 45.0458 61.8 46.5875C60.8208 47.5875 59.7625 48.5479 58.7437 49.5291C60.1021 49.8687 61.4604 50.2291 62.8187 50.6291C64.9167 51.2291 66.9937 51.8104 69.0708 52.4896L69.8104 52.7291C69.8312 52.4083 69.8312 52.0687 69.8312 51.7291C69.8312 47.9083 68.7729 44.3458 66.9146 41.3229ZM66.9146 41.3229L66.375 41.9041C64.8771 43.5062 63.3396 45.0458 61.8 46.5875C60.8208 47.5875 59.7625 48.5479 58.7437 49.5291C60.1021 49.8687 61.4604 50.2291 62.8187 50.6291C64.9167 51.2291 66.9937 51.8104 69.0708 52.4896L69.8104 52.7291C69.8312 52.4083 69.8312 52.0687 69.8312 51.7291C69.8312 47.9083 68.7729 44.3458 66.9146 41.3229ZM67.9729 58.375C65.7958 58.2354 63.6375 58.0354 61.4604 57.8354C60.5208 57.7562 59.6021 57.6562 58.6646 57.5541C58.0646 57.475 57.5854 58.075 57.8062 58.6541C58.1458 59.5541 58.4646 60.4562 58.7854 61.3771C59.4854 63.4187 60.2042 65.4791 60.8625 67.5604L61.0812 68.2812C64.5562 65.9 67.2542 62.4583 68.6708 58.4146L67.9729 58.375ZM52.7333 31.9375L52.8333 32.7187C53.1125 34.8791 53.3125 37.0625 53.5125 39.2229C53.5917 40.0833 53.6729 40.925 53.7312 41.7854C53.7708 42.4458 54.5104 42.7854 55.05 42.4062C55.7292 41.9062 56.4292 41.4062 57.1479 40.925C58.9458 39.7041 60.7229 38.4833 62.5604 37.3021L63.2396 36.8812C60.3833 34.2791 56.7479 32.4979 52.7333 31.9375ZM55.4292 70.0416C54.2708 68.2 53.1917 66.3 52.1125 64.4187C51.6333 63.5979 51.1729 62.7771 50.7333 61.9375C50.4146 61.3562 49.5937 61.3562 49.275 61.9375C48.8146 62.7979 48.3354 63.6396 47.8375 64.4583C46.7396 66.3396 45.6396 68.2208 44.4812 70.0625L43.9812 70.8625C45.8396 71.4437 47.8167 71.7437 49.8542 71.7437C51.9521 71.7437 53.9896 71.4229 55.8875 70.8021L55.4292 70.0416ZM55.4292 70.0416C54.2708 68.2 53.1917 66.3 52.1125 64.4187C51.6333 63.5979 51.1729 62.7771 50.7333 61.9375C50.4146 61.3562 49.5937 61.3562 49.275 61.9375C48.8146 62.7979 48.3354 63.6396 47.8375 64.4583C46.7396 66.3396 45.6396 68.2208 44.4812 70.0625L43.9812 70.8625C45.8396 71.4437 47.8167 71.7437 49.8542 71.7437C51.9521 71.7437 53.9896 71.4229 55.8875 70.8021L55.4292 70.0416ZM52.7333 31.9375L52.8333 32.7187C53.1125 34.8791 53.3125 37.0625 53.5125 39.2229C53.5917 40.0833 53.6729 40.925 53.7312 41.7854C53.7708 42.4458 54.5104 42.7854 55.05 42.4062C55.7292 41.9062 56.4292 41.4062 57.1479 40.925C58.9458 39.7041 60.7229 38.4833 62.5604 37.3021L63.2396 36.8812C60.3833 34.2791 56.7479 32.4979 52.7333 31.9375ZM67.9729 58.375C65.7958 58.2354 63.6375 58.0354 61.4604 57.8354C60.5208 57.7562 59.6021 57.6562 58.6646 57.5541C58.0646 57.475 57.5854 58.075 57.8062 58.6541C58.1458 59.5541 58.4646 60.4562 58.7854 61.3771C59.4854 63.4187 60.2042 65.4791 60.8625 67.5604L61.0812 68.2812C64.5562 65.9 67.2542 62.4583 68.6708 58.4146L67.9729 58.375ZM66.9146 41.3229L66.375 41.9041C64.8771 43.5062 63.3396 45.0458 61.8 46.5875C60.8208 47.5875 59.7625 48.5479 58.7437 49.5291C60.1021 49.8687 61.4604 50.2291 62.8187 50.6291C64.9167 51.2291 66.9937 51.8104 69.0708 52.4896L69.8104 52.7291C69.8312 52.4083 69.8312 52.0687 69.8312 51.7291C69.8312 47.9083 68.7729 44.3458 66.9146 41.3229ZM66.9146 41.3229L66.375 41.9041C64.8771 43.5062 63.3396 45.0458 61.8 46.5875C60.8208 47.5875 59.7625 48.5479 58.7437 49.5291C60.1021 49.8687 61.4604 50.2291 62.8187 50.6291C64.9167 51.2291 66.9937 51.8104 69.0708 52.4896L69.8104 52.7291C69.8312 52.4083 69.8312 52.0687 69.8312 51.7291C69.8312 47.9083 68.7729 44.3458 66.9146 41.3229ZM67.9729 58.375C65.7958 58.2354 63.6375 58.0354 61.4604 57.8354C60.5208 57.7562 59.6021 57.6562 58.6646 57.5541C58.0646 57.475 57.5854 58.075 57.8062 58.6541C58.1458 59.5541 58.4646 60.4562 58.7854 61.3771C59.4854 63.4187 60.2042 65.4791 60.8625 67.5604L61.0812 68.2812C64.5562 65.9 67.2542 62.4583 68.6708 58.4146L67.9729 58.375ZM52.7333 31.9375L52.8333 32.7187C53.1125 34.8791 53.3125 37.0625 53.5125 39.2229C53.5917 40.0833 53.6729 40.925 53.7312 41.7854C53.7708 42.4458 54.5104 42.7854 55.05 42.4062C55.7292 41.9062 56.4292 41.4062 57.1479 40.925C58.9458 39.7041 60.7229 38.4833 62.5604 37.3021L63.2396 36.8812C60.3833 34.2791 56.7479 32.4979 52.7333 31.9375ZM55.4292 70.0416C54.2708 68.2 53.1917 66.3 52.1125 64.4187C51.6333 63.5979 51.1729 62.7771 50.7333 61.9375C50.4146 61.3562 49.5937 61.3562 49.275 61.9375C48.8146 62.7979 48.3354 63.6396 47.8375 64.4583C46.7396 66.3396 45.6396 68.2208 44.4812 70.0625L43.9812 70.8625C45.8396 71.4437 47.8167 71.7437 49.8542 71.7437C51.9521 71.7437 53.9896 71.4229 55.8875 70.8021L55.4292 70.0416ZM52.7333 31.9375L52.8333 32.7187C53.1125 34.8791 53.3125 37.0625 53.5125 39.2229C53.5917 40.0833 53.6729 40.925 53.7312 41.7854C53.7708 42.4458 54.5104 42.7854 55.05 42.4062C55.7292 41.9062 56.4292 41.4062 57.1479 40.925C58.9458 39.7041 60.7229 38.4833 62.5604 37.3021L63.2396 36.8812C60.3833 34.2791 56.7479 32.4979 52.7333 31.9375ZM67.9729 58.375C65.7958 58.2354 63.6375 58.0354 61.4604 57.8354C60.5208 57.7562 59.6021 57.6562 58.6646 57.5541C58.0646 57.475 57.5854 58.075 57.8062 58.6541C58.1458 59.5541 58.4646 60.4562 58.7854 61.3771C59.4854 63.4187 60.2042 65.4791 60.8625 67.5604L61.0812 68.2812C64.5562 65.9 67.2542 62.4583 68.6708 58.4146L67.9729 58.375ZM66.9146 41.3229L66.375 41.9041C64.8771 43.5062 63.3396 45.0458 61.8 46.5875C60.8208 47.5875 59.7625 48.5479 58.7437 49.5291C60.1021 49.8687 61.4604 50.2291 62.8187 50.6291C64.9167 51.2291 66.9937 51.8104 69.0708 52.4896L69.8104 52.7291C69.8312 52.4083 69.8312 52.0687 69.8312 51.7291C69.8312 47.9083 68.7729 44.3458 66.9146 41.3229ZM66.9146 41.3229L66.375 41.9041C64.8771 43.5062 63.3396 45.0458 61.8 46.5875C60.8208 47.5875 59.7625 48.5479 58.7437 49.5291C60.1021 49.8687 61.4604 50.2291 62.8187 50.6291C64.9167 51.2291 66.9937 51.8104 69.0708 52.4896L69.8104 52.7291C69.8312 52.4083 69.8312 52.0687 69.8312 51.7291C69.8312 47.9083 68.7729 44.3458 66.9146 41.3229ZM67.9729 58.375C65.7958 58.2354 63.6375 58.0354 61.4604 57.8354C60.5208 57.7562 59.6021 57.6562 58.6646 57.5541C58.0646 57.475 57.5854 58.075 57.8062 58.6541C58.1458 59.5541 58.4646 60.4562 58.7854 61.3771C59.4854 63.4187 60.2042 65.4791 60.8625 67.5604L61.0812 68.2812C64.5562 65.9 67.2542 62.4583 68.6708 58.4146L67.9729 58.375ZM52.7333 31.9375L52.8333 32.7187C53.1125 34.8791 53.3125 37.0625 53.5125 39.2229C53.5917 40.0833 53.6729 40.925 53.7312 41.7854C53.7708 42.4458 54.5104 42.7854 55.05 42.4062C55.7292 41.9062 56.4292 41.4062 57.1479 40.925C58.9458 39.7041 60.7229 38.4833 62.5604 37.3021L63.2396 36.8812C60.3833 34.2791 56.7479 32.4979 52.7333 31.9375ZM52.7333 31.9375L52.8333 32.7187C53.1125 34.8791 53.3125 37.0625 53.5125 39.2229C53.5917 40.0833 53.6729 40.925 53.7312 41.7854C53.7708 42.4458 54.5104 42.7854 55.05 42.4062C55.7292 41.9062 56.4292 41.4062 57.1479 40.925C58.9458 39.7041 60.7229 38.4833 62.5604 37.3021L63.2396 36.8812C60.3833 34.2791 56.7479 32.4979 52.7333 31.9375ZM66.9146 41.3229L66.375 41.9041C64.8771 43.5062 63.3396 45.0458 61.8 46.5875C60.8208 47.5875 59.7625 48.5479 58.7437 49.5291C60.1021 49.8687 61.4604 50.2291 62.8187 50.6291C64.9167 51.2291 66.9937 51.8104 69.0708 52.4896L69.8104 52.7291C69.8312 52.4083 69.8312 52.0687 69.8312 51.7291C69.8312 47.9083 68.7729 44.3458 66.9146 41.3229ZM66.9146 41.3229L66.375 41.9041C64.8771 43.5062 63.3396 45.0458 61.8 46.5875C60.8208 47.5875 59.7625 48.5479 58.7437 49.5291C60.1021 49.8687 61.4604 50.2291 62.8187 50.6291C64.9167 51.2291 66.9937 51.8104 69.0708 52.4896L69.8104 52.7291C69.8312 52.4083 69.8312 52.0687 69.8312 51.7291C69.8312 47.9083 68.7729 44.3458 66.9146 41.3229ZM52.7333 31.9375L52.8333 32.7187C53.1125 34.8791 53.3125 37.0625 53.5125 39.2229C53.5917 40.0833 53.6729 40.925 53.7312 41.7854C53.7708 42.4458 54.5104 42.7854 55.05 42.4062C55.7292 41.9062 56.4292 41.4062 57.1479 40.925C58.9458 39.7041 60.7229 38.4833 62.5604 37.3021L63.2396 36.8812C60.3833 34.2791 56.7479 32.4979 52.7333 31.9375ZM52.7333 31.9375L52.8333 32.7187C53.1125 34.8791 53.3125 37.0625 53.5125 39.2229C53.5917 40.0833 53.6729 40.925 53.7312 41.7854C53.7708 42.4458 54.5104 42.7854 55.05 42.4062C55.7292 41.9062 56.4292 41.4062 57.1479 40.925C58.9458 39.7041 60.7229 38.4833 62.5604 37.3021L63.2396 36.8812C60.3833 34.2791 56.7479 32.4979 52.7333 31.9375ZM66.9146 41.3229L66.375 41.9041C64.8771 43.5062 63.3396 45.0458 61.8 46.5875C60.8208 47.5875 59.7625 48.5479 58.7437 49.5291C60.1021 49.8687 61.4604 50.2291 62.8187 50.6291C64.9167 51.2291 66.9937 51.8104 69.0708 52.4896L69.8104 52.7291C69.8312 52.4083 69.8312 52.0687 69.8312 51.7291C69.8312 47.9083 68.7729 44.3458 66.9146 41.3229ZM66.9146 41.3229L66.375 41.9041C64.8771 43.5062 63.3396 45.0458 61.8 46.5875C60.8208 47.5875 59.7625 48.5479 58.7437 49.5291C60.1021 49.8687 61.4604 50.2291 62.8187 50.6291C64.9167 51.2291 66.9937 51.8104 69.0708 52.4896L69.8104 52.7291C69.8312 52.4083 69.8312 52.0687 69.8312 51.7291C69.8312 47.9083 68.7729 44.3458 66.9146 41.3229ZM52.7333 31.9375L52.8333 32.7187C53.1125 34.8791 53.3125 37.0625 53.5125 39.2229C53.5917 40.0833 53.6729 40.925 53.7312 41.7854C53.7708 42.4458 54.5104 42.7854 55.05 42.4062C55.7292 41.9062 56.4292 41.4062 57.1479 40.925C58.9458 39.7041 60.7229 38.4833 62.5604 37.3021L63.2396 36.8812C60.3833 34.2791 56.7479 32.4979 52.7333 31.9375ZM52.7333 31.9375L52.8333 32.7187C53.1125 34.8791 53.3125 37.0625 53.5125 39.2229C53.5917 40.0833 53.6729 40.925 53.7312 41.7854C53.7708 42.4458 54.5104 42.7854 55.05 42.4062C55.7292 41.9062 56.4292 41.4062 57.1479 40.925C58.9458 39.7041 60.7229 38.4833 62.5604 37.3021L63.2396 36.8812C60.3833 34.2791 56.7479 32.4979 52.7333 31.9375ZM52.7333 31.9375L52.8333 32.7187C53.1125 34.8791 53.3125 37.0625 53.5125 39.2229C53.5917 40.0833 53.6729 40.925 53.7312 41.7854C53.7708 42.4458 54.5104 42.7854 55.05 42.4062C55.7292 41.9062 56.4292 41.4062 57.1479 40.925C58.9458 39.7041 60.7229 38.4833 62.5604 37.3021L63.2396 36.8812C60.3833 34.2791 56.7479 32.4979 52.7333 31.9375Z" fill="#0277BD"/>
</g>
<defs>
<filter id="filter0_d_5_155" x="-4" y="0" width="108" height="108" filterUnits="userSpaceOnUse" color-interpolation-filters="sRGB">
<feFlood flood-opacity="0" result="BackgroundImageFix"/>
<feColorMatrix in="SourceAlpha" type="matrix" values="0 0 0 0 0 0 0 0 0 0 0 0 0 0 0 0 0 0 127 0" result="hardAlpha"/>
<feOffset dy="4"/>
<feGaussianBlur stdDeviation="2"/>
<feComposite in2="hardAlpha" operator="out"/>
<feColorMatrix type="matrix" values="0 0 0 0 0 0 0 0 0 0 0 0 0 0 0 0 0 0 0.25 0"/>
<feBlend mode="normal" in2="BackgroundImageFix" result="effect1_dropShadow_5_155"/>
<feBlend mode="normal" in="SourceGraphic" in2="effect1_dropShadow_5_155" result="shape"/>
</filter>
</defs>
</svg>
