<svg width="279" height="419" viewBox="0 0 279 419" fill="none" xmlns="http://www.w3.org/2000/svg">
<rect x="63.8297" y="22.25" width="151.016" height="2.5" rx="1.25" stroke="#4C5764" stroke-width="2.5"/>
<mask id="path-2-inside-1_33_117" fill="white">
<rect width="278.675" height="419" rx="5"/>
</mask>
<rect width="278.675" height="419" rx="5" stroke="#4C5764" stroke-width="20" mask="url(#path-2-inside-1_33_117)"/>
<g filter="url(#filter0_d_33_117)">
<mask id="path-3-inside-2_33_117" fill="white">
<rect x="17.6006" y="43" width="243.474" height="331" rx="5"/>
</mask>
<rect x="17.6006" y="43" width="243.474" height="331" rx="5" stroke="#4C5764" stroke-width="20" shape-rendering="crispEdges" mask="url(#path-3-inside-2_33_117)"/>
</g>
<path d="M147.105 395C147.105 399.195 143.794 402.5 139.827 402.5C135.86 402.5 132.549 399.195 132.549 395C132.549 390.805 135.86 387.5 139.827 387.5C143.794 387.5 147.105 390.805 147.105 395Z" fill="#84CC16" stroke="#4C5764" stroke-width="5"/>
<path d="M42.3926 341C42.3926 338.791 44.1834 337 46.3926 337H173.667C175.877 337 177.667 338.791 177.667 341V341C177.667 343.209 175.877 345 173.667 345H46.3926C44.1834 345 42.3926 343.209 42.3926 341V341Z" fill="#EF4444"/>
<path d="M42 300C42 297.791 43.7909 296 46 296H173.275C175.484 296 177.275 297.791 177.275 300V300C177.275 302.209 175.484 304 173.275 304H46C43.7909 304 42 302.209 42 300V300Z" fill="#EF4444"/>
<path d="M42 238C42 235.791 43.7909 234 46 234H126.981C129.19 234 130.981 235.791 130.981 238V238C130.981 240.209 129.19 242 126.981 242H46C43.7909 242 42 240.209 42 238V238Z" fill="#EF4444"/>
<path d="M42 201C42 198.791 43.7909 197 46 197H233.562C235.771 197 237.562 198.791 237.562 201V201C237.562 203.209 235.771 205 233.562 205H46C43.7909 205 42 203.209 42 201V201Z" fill="#84CC16"/>
<path d="M42 76C42 73.7909 43.7909 72 46 72H233.562C235.771 72 237.562 73.7909 237.562 76V76C237.562 78.2091 235.771 80 233.562 80H46C43.7909 80 42 78.2091 42 76V76Z" fill="#84CC16"/>
<path d="M42 137C42 134.791 43.7909 133 46 133H145.559C147.768 133 149.559 134.791 149.559 137V137C149.559 139.209 147.768 141 145.559 141H46C43.7909 141 42 139.209 42 137V137Z" fill="#84CC16"/>
<path d="M130.003 271C130.003 268.791 131.794 267 134.003 267H233.562C235.771 267 237.562 268.791 237.562 271V271C237.562 273.209 235.771 275 233.562 275H134.003C131.794 275 130.003 273.209 130.003 271V271Z" fill="#84CC16"/>
<defs>
<filter id="filter0_d_33_117" x="13.6006" y="43" width="251.474" height="339" filterUnits="userSpaceOnUse" color-interpolation-filters="sRGB">
<feFlood flood-opacity="0" result="BackgroundImageFix"/>
<feColorMatrix in="SourceAlpha" type="matrix" values="0 0 0 0 0 0 0 0 0 0 0 0 0 0 0 0 0 0 127 0" result="hardAlpha"/>
<feOffset dy="4"/>
<feGaussianBlur stdDeviation="2"/>
<feComposite in2="hardAlpha" operator="out"/>
<feColorMatrix type="matrix" values="0 0 0 0 0 0 0 0 0 0 0 0 0 0 0 0 0 0 0.25 0"/>
<feBlend mode="normal" in2="BackgroundImageFix" result="effect1_dropShadow_33_117"/>
<feBlend mode="normal" in="SourceGraphic" in2="effect1_dropShadow_33_117" result="shape"/>
</filter>
</defs>
</svg>
