<svg width="108" height="108" viewBox="0 0 108 108" fill="none" xmlns="http://www.w3.org/2000/svg">
<g filter="url(#filter0_d_7_244)">
<mask id="mask0_7_244" style="mask-type:alpha" maskUnits="userSpaceOnUse" x="4" y="0" width="100" height="100">
<path d="M7.86402 92.1467L4.00449 9.60446C3.87702 6.87842 6.48124 4.56812 9.87338 4.39796L97.3452 0.00996175C100.798 -0.163247 103.772 1.94295 103.988 4.71429C103.996 4.8187 104 4.92329 104 5.02791V94.9723C104 97.749 101.195 100 97.736 100C97.6422 100 97.5485 99.9983 97.4549 99.9949L13.8426 96.9808C10.5862 96.8634 7.98627 94.7612 7.86402 92.1467Z" fill="white"/>
</mask>
<g mask="url(#mask0_7_244)">
<path d="M7.86402 92.1467L4.00449 9.60446C3.87702 6.87842 6.48124 4.56812 9.87338 4.39796L97.3452 0.00996175C100.798 -0.163247 103.772 1.94295 103.988 4.71429C103.996 4.8187 104 4.92329 104 5.02791V94.9723C104 97.749 101.195 100 97.736 100C97.6422 100 97.5485 99.9983 97.4549 99.9949L13.8426 96.9808C10.5862 96.8634 7.98627 94.7612 7.86402 92.1467Z" fill="#FF4785"/>
<path d="M77.8424 12.2916L78.4399 0.757559L90.4524 0L90.9699 11.8946C90.9879 12.3086 90.5844 12.6559 90.0687 12.6704C89.8478 12.6766 89.6314 12.6197 89.4578 12.51L84.8254 9.58096L79.3408 12.9203C78.9296 13.1706 78.3435 13.106 78.0316 12.776C77.9003 12.6371 77.8334 12.4658 77.8424 12.2916ZM62.4796 37.6914C62.4796 39.6474 78.8954 38.7099 81.0991 37.3359C81.0991 24.0155 72.1941 17.0158 55.8876 17.0158C39.581 17.0158 30.4448 24.1244 30.4448 34.7873C30.4448 53.3585 61.67 53.7139 61.67 63.8437C61.67 66.6871 59.9353 68.3754 56.1189 68.3754C51.146 68.3754 49.1799 66.337 49.4112 59.4061C49.4112 57.9025 30.4448 57.4338 29.8665 59.4061C28.3941 76.2021 41.4314 81.0467 56.3502 81.0467C70.8063 81.0467 82.1399 74.862 82.1399 63.666C82.1399 43.7619 50.4521 44.295 50.4521 34.4319C50.4521 30.4333 54.1528 29.9001 56.3502 29.9001C58.6631 29.9001 62.8265 30.2273 62.4796 37.6914Z" fill="white"/>
</g>
</g>
<defs>
<filter id="filter0_d_7_244" x="0" y="0" width="108" height="108" filterUnits="userSpaceOnUse" color-interpolation-filters="sRGB">
<feFlood flood-opacity="0" result="BackgroundImageFix"/>
<feColorMatrix in="SourceAlpha" type="matrix" values="0 0 0 0 0 0 0 0 0 0 0 0 0 0 0 0 0 0 127 0" result="hardAlpha"/>
<feOffset dy="4"/>
<feGaussianBlur stdDeviation="2"/>
<feComposite in2="hardAlpha" operator="out"/>
<feColorMatrix type="matrix" values="0 0 0 0 0 0 0 0 0 0 0 0 0 0 0 0 0 0 0.25 0"/>
<feBlend mode="normal" in2="BackgroundImageFix" result="effect1_dropShadow_7_244"/>
<feBlend mode="normal" in="SourceGraphic" in2="effect1_dropShadow_7_244" result="shape"/>
</filter>
</defs>
</svg>
