<svg width="3555" height="1039" viewBox="0 0 3555 1039" fill="none" xmlns="http://www.w3.org/2000/svg">
<path d="M43.0078 323.331C43.0078 320.939 44.9468 319 47.3388 319H130.906C133.299 319 135.238 320.939 135.238 323.331C135.238 325.724 133.299 327.663 130.906 327.663H47.3388C44.9468 327.663 43.0078 325.724 43.0078 323.331Z" fill="#4C5764"/>
<path d="M43.0078 403.029C43.0078 400.637 44.9468 398.698 47.3388 398.698H130.906C133.299 398.698 135.238 400.637 135.238 403.029C135.238 405.421 133.299 407.361 130.906 407.361H47.3388C44.9468 407.361 43.0078 405.421 43.0078 403.029Z" fill="#4C5764"/>
<path d="M43.0078 363.18C43.0078 360.788 44.9468 358.849 47.3388 358.849H130.906C133.299 358.849 135.238 360.788 135.238 363.18C135.238 365.572 133.299 367.511 130.906 367.511H47.3388C44.9468 367.511 43.0078 365.572 43.0078 363.18Z" fill="#4C5764"/>
<path d="M312.012 363.18C312.012 360.788 313.951 358.849 316.343 358.849H525.96C528.35 358.849 530.29 360.788 530.29 363.18C530.29 365.572 528.35 367.511 525.96 367.511H316.343C313.951 367.511 312.012 365.572 312.012 363.18Z" fill="#4C5764"/>
<path d="M43.0078 442.878C43.0078 440.486 44.9468 438.546 47.3388 438.546H130.906C133.299 438.546 135.238 440.486 135.238 442.878C135.238 445.27 133.299 447.209 130.906 447.209H47.3388C44.9468 447.209 43.0078 445.27 43.0078 442.878Z" fill="#4C5764"/>
<path d="M43.0078 522.58C43.0078 520.18 44.9468 518.24 47.3388 518.24H130.906C133.299 518.24 135.238 520.18 135.238 522.58C135.238 524.97 133.299 526.91 130.906 526.91H47.3388C44.9468 526.91 43.0078 524.97 43.0078 522.58Z" fill="#4C5764"/>
<path d="M43.0078 482.727C43.0078 480.335 44.9468 478.396 47.3388 478.396H130.906C133.299 478.396 135.238 480.335 135.238 482.727C135.238 485.12 133.299 487.06 130.906 487.06H47.3388C44.9468 487.06 43.0078 485.12 43.0078 482.727Z" fill="#4C5764"/>
<path d="M158.295 323.331C158.295 320.939 160.234 319 162.626 319H438.34C440.73 319 442.67 320.939 442.67 323.331C442.67 325.724 440.73 327.663 438.34 327.663H162.626C160.234 327.663 158.295 325.724 158.295 323.331Z" fill="#84CC16"/>
<path d="M158.295 403.029C158.295 400.637 160.234 398.698 162.626 398.698H346.109C348.501 398.698 350.441 400.637 350.441 403.029C350.441 405.421 348.501 407.361 346.109 407.361H162.626C160.234 407.361 158.295 405.421 158.295 403.029Z" fill="#84CC16"/>
<path d="M158.295 363.18C158.295 360.788 160.234 358.849 162.626 358.849H292.308C294.701 358.849 296.64 360.788 296.64 363.18C296.64 365.572 294.701 367.511 292.308 367.511H162.626C160.234 367.511 158.295 365.572 158.295 363.18Z" fill="#EF4444"/>
<path d="M378.11 403.029C378.11 400.637 380.049 398.698 382.441 398.698H512.12C514.52 398.698 516.45 400.637 516.45 403.029C516.45 405.421 514.52 407.361 512.12 407.361H382.441C380.049 407.361 378.11 405.421 378.11 403.029Z" fill="#EF4444"/>
<path d="M158.295 442.878C158.295 440.486 160.234 438.546 162.626 438.546H469.08C471.47 438.546 473.41 440.486 473.41 442.878C473.41 445.27 471.47 447.209 469.08 447.209H162.626C160.234 447.209 158.295 445.27 158.295 442.878Z" fill="#EF4444"/>
<path d="M158.295 522.58C158.295 520.18 160.234 518.24 162.626 518.24H438.34C440.73 518.24 442.67 520.18 442.67 522.58C442.67 524.97 440.73 526.91 438.34 526.91H162.626C160.234 526.91 158.295 524.97 158.295 522.58Z" fill="#84CC16"/>
<path d="M282.806 482.727C282.806 480.335 284.745 478.396 287.137 478.396H562.85C565.24 478.396 567.18 480.335 567.18 482.727C567.18 485.12 565.24 487.06 562.85 487.06H287.137C284.745 487.06 282.806 485.12 282.806 482.727Z" fill="#84CC16"/>
<path d="M158.295 482.727C158.295 480.335 160.234 478.396 162.626 478.396H255.416C257.809 478.396 259.748 480.335 259.748 482.727C259.748 485.12 257.809 487.06 255.416 487.06H162.626C160.234 487.06 158.295 485.12 158.295 482.727Z" fill="#4C5764"/>
<path d="M43.0078 562.42C43.0078 560.03 44.9468 558.09 47.3388 558.09H130.906C133.299 558.09 135.238 560.03 135.238 562.42C135.238 564.82 133.299 566.76 130.906 566.76H47.3388C44.9468 566.76 43.0078 564.82 43.0078 562.42Z" fill="#4C5764"/>
<path d="M43.0078 642.12C43.0078 639.73 44.9468 637.79 47.3388 637.79H130.906C133.299 637.79 135.238 639.73 135.238 642.12C135.238 644.51 133.299 646.45 130.906 646.45H47.3388C44.9468 646.45 43.0078 644.51 43.0078 642.12Z" fill="#4C5764"/>
<path d="M43.0078 602.27C43.0078 599.88 44.9468 597.94 47.3388 597.94H130.906C133.299 597.94 135.238 599.88 135.238 602.27C135.238 604.67 133.299 606.6 130.906 606.6H47.3388C44.9468 606.6 43.0078 604.67 43.0078 602.27Z" fill="#4C5764"/>
<path d="M312.012 602.27C312.012 599.88 313.951 597.94 316.343 597.94H525.96C528.35 597.94 530.29 599.88 530.29 602.27C530.29 604.67 528.35 606.6 525.96 606.6H316.343C313.951 606.6 312.012 604.67 312.012 602.27Z" fill="#4C5764"/>
<path d="M43.0078 681.97C43.0078 679.58 44.9468 677.64 47.3388 677.64H130.906C133.299 677.64 135.238 679.58 135.238 681.97C135.238 684.36 133.299 686.3 130.906 686.3H47.3388C44.9468 686.3 43.0078 684.36 43.0078 681.97Z" fill="#4C5764"/>
<path d="M43.0078 761.67C43.0078 759.28 44.9468 757.34 47.3388 757.34H130.906C133.299 757.34 135.238 759.28 135.238 761.67C135.238 764.06 133.299 766 130.906 766H47.3388C44.9468 766 43.0078 764.06 43.0078 761.67Z" fill="#4C5764"/>
<path d="M43.0078 721.82C43.0078 719.43 44.9468 717.49 47.3388 717.49H130.906C133.299 717.49 135.238 719.43 135.238 721.82C135.238 724.21 133.299 726.15 130.906 726.15H47.3388C44.9468 726.15 43.0078 724.21 43.0078 721.82Z" fill="#4C5764"/>
<path d="M158.295 562.42C158.295 560.03 160.234 558.09 162.626 558.09H438.34C440.73 558.09 442.67 560.03 442.67 562.42C442.67 564.82 440.73 566.76 438.34 566.76H162.626C160.234 566.76 158.295 564.82 158.295 562.42Z" fill="#84CC16"/>
<path d="M158.295 642.12C158.295 639.73 160.234 637.79 162.626 637.79H346.109C348.501 637.79 350.441 639.73 350.441 642.12C350.441 644.51 348.501 646.45 346.109 646.45H162.626C160.234 646.45 158.295 644.51 158.295 642.12Z" fill="#84CC16"/>
<path d="M158.295 602.27C158.295 599.88 160.234 597.94 162.626 597.94H292.308C294.701 597.94 296.64 599.88 296.64 602.27C296.64 604.67 294.701 606.6 292.308 606.6H162.626C160.234 606.6 158.295 604.67 158.295 602.27Z" fill="#EF4444"/>
<path d="M378.11 642.12C378.11 639.73 380.049 637.79 382.441 637.79H512.12C514.52 637.79 516.45 639.73 516.45 642.12C516.45 644.51 514.52 646.45 512.12 646.45H382.441C380.049 646.45 378.11 644.51 378.11 642.12Z" fill="#EF4444"/>
<path d="M158.295 681.97C158.295 679.58 160.234 677.64 162.626 677.64H469.08C471.47 677.64 473.41 679.58 473.41 681.97C473.41 684.36 471.47 686.3 469.08 686.3H162.626C160.234 686.3 158.295 684.36 158.295 681.97Z" fill="#EF4444"/>
<path d="M158.295 761.67C158.295 759.28 160.234 757.34 162.626 757.34H438.34C440.73 757.34 442.67 759.28 442.67 761.67C442.67 764.06 440.73 766 438.34 766H162.626C160.234 766 158.295 764.06 158.295 761.67Z" fill="#84CC16"/>
<path d="M282.806 721.82C282.806 719.43 284.745 717.49 287.137 717.49H562.85C565.24 717.49 567.18 719.43 567.18 721.82C567.18 724.21 565.24 726.15 562.85 726.15H287.137C284.745 726.15 282.806 724.21 282.806 721.82Z" fill="#84CC16"/>
<path d="M158.295 721.82C158.295 719.43 160.234 717.49 162.626 717.49H255.416C257.809 717.49 259.748 719.43 259.748 721.82C259.748 724.21 257.809 726.15 255.416 726.15H162.626C160.234 726.15 158.295 724.21 158.295 721.82Z" fill="#4C5764"/>
<path d="M589 254.5H9C7.61929 254.5 6.5 255.619 6.5 257V801C6.5 802.381 7.61929 803.5 9 803.5H589C590.381 803.5 591.5 802.381 591.5 801V257C591.5 255.619 590.381 254.5 589 254.5Z" stroke="#4C5764" stroke-width="5"/>
<g filter="url(#filter0_d_61_304)">
<path d="M589 288.5H9C7.61929 288.5 6.5 289.619 6.5 291V801C6.5 802.381 7.61929 803.5 9 803.5H589C590.381 803.5 591.5 802.381 591.5 801V291C591.5 289.619 590.381 288.5 589 288.5Z" stroke="#4C5764" stroke-width="5"/>
</g>
<path d="M537 280C541.971 280 546 275.971 546 271C546 266.029 541.971 262 537 262C532.029 262 528 266.029 528 271C528 275.971 532.029 280 537 280Z" fill="#EF4444" stroke="#4C5764" stroke-width="2"/>
<path d="M497 280C501.971 280 506 275.971 506 271C506 266.029 501.971 262 497 262C492.029 262 488 266.029 488 271C488 275.971 492.029 280 497 280Z" fill="#F97316" stroke="#4C5764" stroke-width="2"/>
<path d="M574 280C578.971 280 583 275.971 583 271C583 266.029 578.971 262 574 262C569.029 262 565 266.029 565 271C565 275.971 569.029 280 574 280Z" fill="#84CC16" stroke="#4C5764" stroke-width="2"/>
<path d="M2397 487.5H1646C1644.62 487.5 1643.5 488.619 1643.5 490V907C1643.5 908.381 1644.62 909.5 1646 909.5H2397C2398.38 909.5 2399.5 908.381 2399.5 907V490C2399.5 488.619 2398.38 487.5 2397 487.5Z" fill="#4C5764" stroke="#D9D9D9" stroke-width="5"/>
<g filter="url(#filter1_d_61_304)">
<path d="M2371 514H1672C1669.24 514 1667 516.239 1667 519V849C1667 851.761 1669.24 854 1672 854H2371C2373.76 854 2376 851.761 2376 849V519C2376 516.239 2373.76 514 2371 514Z" fill="#84CC16"/>
<path d="M2371 516.5H1672C1670.62 516.5 1669.5 517.619 1669.5 519V849C1669.5 850.381 1670.62 851.5 1672 851.5H2371C2372.38 851.5 2373.5 850.381 2373.5 849V519C2373.5 517.619 2372.38 516.5 2371 516.5Z" stroke="#D9D9D9" stroke-width="5"/>
</g>
<path d="M2021.5 891C2027.3 891 2032 886.299 2032 880.5C2032 874.701 2027.3 870 2021.5 870C2015.7 870 2011 874.701 2011 880.5C2011 886.299 2015.7 891 2021.5 891Z" fill="#84CC16" stroke="#4C5764" stroke-width="2"/>
<path d="M2417 909.5H1627C1625.62 909.5 1624.5 910.619 1624.5 912V946C1624.5 947.381 1625.62 948.5 1627 948.5H2417C2418.38 948.5 2419.5 947.381 2419.5 946V912C2419.5 910.619 2418.38 909.5 2417 909.5Z" fill="#4C5764" stroke="#D9D9D9" stroke-width="5"/>
<path d="M2081 909.5H1963C1961.62 909.5 1960.5 910.619 1960.5 912V924C1960.5 925.381 1961.62 926.5 1963 926.5H2081C2082.38 926.5 2083.5 925.381 2083.5 924V912C2083.5 910.619 2082.38 909.5 2081 909.5Z" stroke="#D9D9D9" stroke-width="5"/>
<path d="M2149.5 341C2149.5 419.181 2087.01 482.5 2010 482.5C1932.99 482.5 1870.5 419.181 1870.5 341C1870.5 262.819 1932.99 199.5 2010 199.5C2087.01 199.5 2149.5 262.819 2149.5 341Z" fill="#4C5764" stroke="#84CC16" stroke-width="5"/>
<path d="M1967.48 300.031L1893.46 352.875" stroke="#84CC16" stroke-width="5"/>
<path d="M1977.7 382.512L1891.53 353.263" stroke="#84CC16" stroke-width="5"/>
<path d="M2042.17 382.987L2128.08 352.966" stroke="#84CC16" stroke-width="5"/>
<path d="M2055.53 300.956L2130.02 353.133" stroke="#84CC16" stroke-width="5"/>
<path d="M1986.77 391.862L2040.21 287.861" stroke="#84CC16" stroke-width="5"/>
<path d="M1443 493.5H692C690.619 493.5 689.5 494.619 689.5 496V913C689.5 914.381 690.619 915.5 692 915.5H1443C1444.38 915.5 1445.5 914.381 1445.5 913V496C1445.5 494.619 1444.38 493.5 1443 493.5Z" fill="#4C5764" stroke="#D9D9D9" stroke-width="5"/>
<g filter="url(#filter2_d_61_304)">
<path d="M1417 520H718C715.239 520 713 522.239 713 525V855C713 857.761 715.239 860 718 860H1417C1419.76 860 1422 857.761 1422 855V525C1422 522.239 1419.76 520 1417 520Z" fill="#84CC16"/>
<path d="M1417 522.5H718C716.619 522.5 715.5 523.619 715.5 525V855C715.5 856.381 716.619 857.5 718 857.5H1417C1418.38 857.5 1419.5 856.381 1419.5 855V525C1419.5 523.619 1418.38 522.5 1417 522.5Z" stroke="#D9D9D9" stroke-width="5"/>
</g>
<path d="M1067.5 897C1073.3 897 1078 892.299 1078 886.5C1078 880.701 1073.3 876 1067.5 876C1061.7 876 1057 880.701 1057 886.5C1057 892.299 1061.7 897 1067.5 897Z" fill="#84CC16" stroke="#4C5764" stroke-width="2"/>
<path d="M1102 915.5H1033C1031.62 915.5 1030.5 916.619 1030.5 918V975C1030.5 976.381 1031.62 977.5 1033 977.5H1102C1103.38 977.5 1104.5 976.381 1104.5 975V918C1104.5 916.619 1103.38 915.5 1102 915.5Z" fill="#4C5764" stroke="#D9D9D9" stroke-width="5"/>
<path d="M554.5 515.25H402.5C401.81 515.25 401.25 515.81 401.25 516.5C401.25 517.19 401.81 517.75 402.5 517.75H554.5C555.19 517.75 555.75 517.19 555.75 516.5C555.75 515.81 555.19 515.25 554.5 515.25Z" stroke="white" stroke-width="2.5"/>
<path d="M616 495.5H341C339.619 495.5 338.5 496.619 338.5 498V907C338.5 908.381 339.619 909.5 341 909.5H616C617.381 909.5 618.5 908.381 618.5 907V498C618.5 496.619 617.381 495.5 616 495.5Z" fill="#4C5764" stroke="#D9D9D9" stroke-width="5"/>
<g filter="url(#filter3_d_61_304)">
<path d="M598 536H359C356.239 536 354 538.239 354 541V862C354 864.761 356.239 867 359 867H598C600.761 867 603 864.761 603 862V541C603 538.239 600.761 536 598 536Z" fill="#84CC16"/>
<path d="M598 538H359C357.343 538 356 539.343 356 541V862C356 863.657 357.343 865 359 865H598C599.657 865 601 863.657 601 862V541C601 539.343 599.657 538 598 538Z" stroke="#D9D9D9" stroke-width="4"/>
</g>
<path d="M479 897C483.971 897 488 892.971 488 888C488 883.029 483.971 879 479 879C474.029 879 470 883.029 470 888C470 892.971 474.029 897 479 897Z" fill="#84CC16" stroke="#4C5764" stroke-width="2"/>
<path d="M553.5 515.25H401.5C400.81 515.25 400.25 515.81 400.25 516.5C400.25 517.19 400.81 517.75 401.5 517.75H553.5C554.19 517.75 554.75 517.19 554.75 516.5C554.75 515.81 554.19 515.25 553.5 515.25Z" stroke="#D9D9D9" stroke-width="2.5"/>
<path d="M957.5 329C957.5 407.181 895.01 470.5 818 470.5C740.99 470.5 678.5 407.181 678.5 329C678.5 250.819 740.99 187.5 818 187.5C895.01 187.5 957.5 250.819 957.5 329Z" fill="#4C5764" stroke="#84CC16" stroke-width="5"/>
<path d="M915 254.5H720C718.619 254.5 717.5 255.619 717.5 257V394C717.5 395.381 718.619 396.5 720 396.5H915C916.381 396.5 917.5 395.381 917.5 394V257C917.5 255.619 916.381 254.5 915 254.5Z" fill="#4C5764" stroke="#D9D9D9" stroke-width="5"/>
<g filter="url(#filter4_d_61_304)">
<path d="M908 262H727C724.239 262 722 264.239 722 267V374C722 376.761 724.239 379 727 379H908C910.761 379 913 376.761 913 374V267C913 264.239 910.761 262 908 262Z" fill="#84CC16"/>
<path d="M908 264.5H727C725.619 264.5 724.5 265.619 724.5 267V374C724.5 375.381 725.619 376.5 727 376.5H908C909.381 376.5 910.5 375.381 910.5 374V267C910.5 265.619 909.381 264.5 908 264.5Z" stroke="#D9D9D9" stroke-width="5"/>
</g>
<path d="M827.5 419.25H807.5C807.362 419.25 807.25 419.362 807.25 419.5C807.25 419.638 807.362 419.75 807.5 419.75H827.5C827.638 419.75 827.75 419.638 827.75 419.5C827.75 419.362 827.638 419.25 827.5 419.25Z" fill="#4C5764" stroke="#4C5764" stroke-width="0.5"/>
<path d="M820 388C820 389.786 818.76 391 817.5 391C816.24 391 815 389.786 815 388C815 386.214 816.24 385 817.5 385C818.76 385 820 386.214 820 388Z" fill="#84CC16" stroke="#4C5764" stroke-width="2"/>
<path d="M844 421.5H791C789.619 421.5 788.5 422.619 788.5 424V434C788.5 435.381 789.619 436.5 791 436.5H844C845.381 436.5 846.5 435.381 846.5 434V424C846.5 422.619 845.381 421.5 844 421.5Z" fill="#4C5764" stroke="#D9D9D9" stroke-width="5"/>
<path d="M823 396.5H812C810.619 396.5 809.5 397.619 809.5 399V419C809.5 420.381 810.619 421.5 812 421.5H823C824.381 421.5 825.5 420.381 825.5 419V399C825.5 397.619 824.381 396.5 823 396.5Z" fill="#4C5764" stroke="#D9D9D9" stroke-width="5"/>
<path d="M908 264.5H727C725.619 264.5 724.5 265.619 724.5 267V374C724.5 375.381 725.619 376.5 727 376.5H908C909.381 376.5 910.5 375.381 910.5 374V267C910.5 265.619 909.381 264.5 908 264.5Z" fill="#4C5764" stroke="#D9D9D9" stroke-width="5"/>
<g filter="url(#filter5_d_61_304)">
<path d="M915 252H720C717.239 252 715 254.239 715 257V394C715 396.761 717.239 399 720 399H915C917.761 399 920 396.761 920 394V257C920 254.239 917.761 252 915 252Z" fill="#4C5764"/>
<path d="M915 254.5H720C718.619 254.5 717.5 255.619 717.5 257V394C717.5 395.381 718.619 396.5 720 396.5H915C916.381 396.5 917.5 395.381 917.5 394V257C917.5 255.619 916.381 254.5 915 254.5Z" stroke="#D9D9D9" stroke-width="5"/>
</g>
<path d="M735.27 277.909C735.27 277.404 735.679 276.994 736.189 276.994H764.219C764.719 276.994 765.13 277.404 765.13 277.909C765.13 278.414 764.719 278.824 764.219 278.824H736.189C735.679 278.824 735.27 278.414 735.27 277.909Z" fill="#D9D9D9"/>
<path d="M735.27 294.74C735.27 294.235 735.679 293.825 736.189 293.825H764.219C764.719 293.825 765.13 294.235 765.13 294.74C765.13 295.245 764.719 295.655 764.219 295.655H736.189C735.679 295.655 735.27 295.245 735.27 294.74Z" fill="#D9D9D9"/>
<path d="M735.27 286.325C735.27 285.82 735.679 285.41 736.189 285.41H764.219C764.719 285.41 765.13 285.82 765.13 286.325C765.13 286.83 764.719 287.24 764.219 287.24H736.189C735.679 287.24 735.27 286.83 735.27 286.325Z" fill="#D9D9D9"/>
<path d="M822.36 286.325C822.36 285.82 822.77 285.41 823.27 285.41H892.1C892.61 285.41 893.02 285.82 893.02 286.325C893.02 286.83 892.61 287.24 892.1 287.24H823.27C822.77 287.24 822.36 286.83 822.36 286.325Z" fill="#4C5764"/>
<path d="M735.27 303.156C735.27 302.651 735.679 302.241 736.189 302.241H764.219C764.719 302.241 765.13 302.651 765.13 303.156C765.13 303.661 764.719 304.071 764.219 304.071H736.189C735.679 304.071 735.27 303.661 735.27 303.156Z" fill="#D9D9D9"/>
<path d="M735.27 319.988C735.27 319.482 735.679 319.073 736.189 319.073H764.219C764.719 319.073 765.13 319.482 765.13 319.988C765.13 320.493 764.719 320.902 764.219 320.902H736.189C735.679 320.902 735.27 320.493 735.27 319.988Z" fill="#D9D9D9"/>
<path d="M735.27 311.572C735.27 311.067 735.679 310.657 736.189 310.657H764.219C764.719 310.657 765.13 311.067 765.13 311.572C765.13 312.077 764.719 312.487 764.219 312.487H736.189C735.679 312.487 735.27 312.077 735.27 311.572Z" fill="#D9D9D9"/>
<path d="M772.59 277.909C772.59 277.404 773 276.994 773.51 276.994H863.74C864.25 276.994 864.66 277.404 864.66 277.909C864.66 278.414 864.25 278.824 863.74 278.824H773.51C773 278.824 772.59 278.414 772.59 277.909Z" fill="#84CC16"/>
<path d="M772.59 294.74C772.59 294.235 773 293.825 773.51 293.825H833.88C834.39 293.825 834.8 294.235 834.8 294.74C834.8 295.245 834.39 295.655 833.88 295.655H773.51C773 295.655 772.59 295.245 772.59 294.74Z" fill="#84CC16"/>
<path d="M772.59 286.325C772.59 285.82 773 285.41 773.51 285.41H816.47C816.97 285.41 817.38 285.82 817.38 286.325C817.38 286.83 816.97 287.24 816.47 287.24H773.51C773 287.24 772.59 286.83 772.59 286.325Z" fill="#EF4444"/>
<path d="M843.75 294.74C843.75 294.235 844.16 293.825 844.67 293.825H887.63C888.13 293.825 888.54 294.235 888.54 294.74C888.54 295.245 888.13 295.655 887.63 295.655H844.67C844.16 295.655 843.75 295.245 843.75 294.74Z" fill="#EF4444"/>
<path d="M772.59 303.156C772.59 302.651 773 302.241 773.51 302.241H873.69C874.2 302.241 874.61 302.651 874.61 303.156C874.61 303.661 874.2 304.071 873.69 304.071H773.51C773 304.071 772.59 303.661 772.59 303.156Z" fill="#EF4444"/>
<path d="M772.59 319.988C772.59 319.482 773 319.073 773.51 319.073H863.74C864.25 319.073 864.66 319.482 864.66 319.988C864.66 320.493 864.25 320.902 863.74 320.902H773.51C773 320.902 772.59 320.493 772.59 319.988Z" fill="#84CC16"/>
<path d="M812.9 311.572C812.9 311.067 813.31 310.657 813.82 310.657H904.05C904.55 310.657 904.96 311.067 904.96 311.572C904.96 312.077 904.55 312.487 904.05 312.487H813.82C813.31 312.487 812.9 312.077 812.9 311.572Z" fill="#84CC16"/>
<path d="M772.59 311.572C772.59 311.067 773 310.657 773.51 310.657H804.52C805.03 310.657 805.44 311.067 805.44 311.572C805.44 312.077 805.03 312.487 804.52 312.487H773.51C773 312.487 772.59 312.077 772.59 311.572Z" fill="#4C5764"/>
<path d="M735.27 328.403C735.27 327.898 735.679 327.488 736.189 327.488H764.219C764.719 327.488 765.13 327.898 765.13 328.403C765.13 328.908 764.719 329.318 764.219 329.318H736.189C735.679 329.318 735.27 328.908 735.27 328.403Z" fill="#D9D9D9"/>
<path d="M735.27 345.235C735.27 344.73 735.679 344.32 736.189 344.32H764.219C764.719 344.32 765.13 344.73 765.13 345.235C765.13 345.74 764.719 346.15 764.219 346.15H736.189C735.679 346.15 735.27 345.74 735.27 345.235Z" fill="#D9D9D9"/>
<path d="M735.27 336.819C735.27 336.314 735.679 335.904 736.189 335.904H764.219C764.719 335.904 765.13 336.314 765.13 336.819C765.13 337.324 764.719 337.734 764.219 337.734H736.189C735.679 337.734 735.27 337.324 735.27 336.819Z" fill="#D9D9D9"/>
<path d="M822.36 336.819C822.36 336.314 822.77 335.904 823.27 335.904H892.1C892.61 335.904 893.02 336.314 893.02 336.819C893.02 337.324 892.61 337.734 892.1 337.734H823.27C822.77 337.734 822.36 337.324 822.36 336.819Z" fill="#4C5764"/>
<path d="M735.27 353.65C735.27 353.145 735.679 352.735 736.189 352.735H764.219C764.719 352.735 765.13 353.145 765.13 353.65C765.13 354.155 764.719 354.565 764.219 354.565H736.189C735.679 354.565 735.27 354.155 735.27 353.65Z" fill="#D9D9D9"/>
<path d="M735.27 370.482C735.27 369.977 735.679 369.567 736.189 369.567H764.219C764.719 369.567 765.13 369.977 765.13 370.482C765.13 370.987 764.719 371.397 764.219 371.397H736.189C735.679 371.397 735.27 370.987 735.27 370.482Z" fill="#D9D9D9"/>
<path d="M735.27 362.066C735.27 361.561 735.679 361.151 736.189 361.151H764.219C764.719 361.151 765.13 361.561 765.13 362.066C765.13 362.571 764.719 362.981 764.219 362.981H736.189C735.679 362.981 735.27 362.571 735.27 362.066Z" fill="#D9D9D9"/>
<path d="M772.59 328.403C772.59 327.898 773 327.488 773.51 327.488H863.74C864.25 327.488 864.66 327.898 864.66 328.403C864.66 328.908 864.25 329.318 863.74 329.318H773.51C773 329.318 772.59 328.908 772.59 328.403Z" fill="#84CC16"/>
<path d="M772.59 345.235C772.59 344.73 773 344.32 773.51 344.32H833.88C834.39 344.32 834.8 344.73 834.8 345.235C834.8 345.74 834.39 346.15 833.88 346.15H773.51C773 346.15 772.59 345.74 772.59 345.235Z" fill="#84CC16"/>
<path d="M772.59 336.819C772.59 336.314 773 335.904 773.51 335.904H816.47C816.97 335.904 817.38 336.314 817.38 336.819C817.38 337.324 816.97 337.734 816.47 337.734H773.51C773 337.734 772.59 337.324 772.59 336.819Z" fill="#EF4444"/>
<path d="M843.75 345.235C843.75 344.73 844.16 344.32 844.67 344.32H887.63C888.13 344.32 888.54 344.73 888.54 345.235C888.54 345.74 888.13 346.15 887.63 346.15H844.67C844.16 346.15 843.75 345.74 843.75 345.235Z" fill="#EF4444"/>
<path d="M772.59 353.65C772.59 353.145 773 352.735 773.51 352.735H873.69C874.2 352.735 874.61 353.145 874.61 353.65C874.61 354.155 874.2 354.565 873.69 354.565H773.51C773 354.565 772.59 354.155 772.59 353.65Z" fill="#EF4444"/>
<path d="M772.59 370.482C772.59 369.977 773 369.567 773.51 369.567H863.74C864.25 369.567 864.66 369.977 864.66 370.482C864.66 370.987 864.25 371.397 863.74 371.397H773.51C773 371.397 772.59 370.987 772.59 370.482Z" fill="#84CC16"/>
<path d="M812.9 362.066C812.9 361.561 813.31 361.151 813.82 361.151H904.05C904.55 361.151 904.96 361.561 904.96 362.066C904.96 362.571 904.55 362.981 904.05 362.981H813.82C813.31 362.981 812.9 362.571 812.9 362.066Z" fill="#84CC16"/>
<path d="M772.59 362.066C772.59 361.561 773 361.151 773.51 361.151H804.52C805.03 361.151 805.44 361.561 805.44 362.066C805.44 362.571 805.03 362.981 804.52 362.981H773.51C773 362.981 772.59 362.571 772.59 362.066Z" fill="#4C5764"/>
<path d="M896 266C896 266.356 895.55 267 894.5 267C893.45 267 893 266.356 893 266C893 265.644 893.45 265 894.5 265C895.55 265 896 265.644 896 266Z" fill="#EF4444" stroke="#4C5764" stroke-width="2"/>
<path d="M884 266C884 266.039 883.96 266.269 883.48 266.546C883.02 266.807 882.32 267 881.5 267C880.68 267 879.98 266.807 879.52 266.546C879.04 266.269 879 266.039 879 266C879 265.961 879.04 265.731 879.52 265.454C879.98 265.193 880.68 265 881.5 265C882.32 265 883.02 265.193 883.48 265.454C883.96 265.731 884 265.961 884 266Z" fill="#F97316" stroke="#4C5764" stroke-width="2"/>
<path d="M909 266C909 266.039 908.96 266.269 908.48 266.546C908.02 266.807 907.32 267 906.5 267C905.68 267 904.98 266.807 904.52 266.546C904.04 266.269 904 266.039 904 266C904 265.961 904.04 265.731 904.52 265.454C904.98 265.193 905.68 265 906.5 265C907.32 265 908.02 265.193 908.48 265.454C908.96 265.731 909 265.961 909 266Z" fill="#84CC16" stroke="#4C5764" stroke-width="2"/>
<path d="M2878 952V892" stroke="#4C5764" stroke-width="10"/>
<mask id="mask0_61_304" style="mask-type:alpha" maskUnits="userSpaceOnUse" x="2453" y="455" width="781" height="447">
<path d="M3219 465H2468C2465.24 465 2463 467.239 2463 470V887C2463 889.761 2465.24 892 2468 892H3219C3221.76 892 3224 889.761 3224 887V470C3224 467.239 3221.76 465 3219 465Z" stroke="#4C5764" stroke-width="20"/>
</mask>
<g mask="url(#mask0_61_304)">
<path d="M3219 465H2468C2465.24 465 2463 467.239 2463 470V887C2463 889.761 2465.24 892 2468 892H3219C3221.76 892 3224 889.761 3224 887V470C3224 467.239 3221.76 465 3219 465Z" stroke="#4C5764" stroke-width="20"/>
</g>
<path d="M2880.5 949.5H2806.5C2805.4 949.5 2804.5 950.395 2804.5 951.5C2804.5 952.605 2805.4 953.5 2806.5 953.5H2880.5C2881.6 953.5 2882.5 952.605 2882.5 951.5C2882.5 950.395 2881.6 949.5 2880.5 949.5Z" fill="#4C5764" stroke="#4C5764"/>
<path d="M2804 952.01V892.01" stroke="#4C5764" stroke-width="10"/>
<path d="M2843.5 870C2848.75 870 2853 865.747 2853 860.5C2853 855.253 2848.75 851 2843.5 851C2838.25 851 2834 855.253 2834 860.5C2834 865.747 2838.25 870 2843.5 870Z" fill="#84CC16" stroke="#4C5764" stroke-width="4"/>
<mask id="mask1_61_304" style="mask-type:alpha" maskUnits="userSpaceOnUse" x="2717" y="939" width="253" height="79">
<path d="M2955 949H2732C2729.24 949 2727 951.239 2727 954V1003C2727 1005.76 2729.24 1008 2732 1008H2955C2957.76 1008 2960 1005.76 2960 1003V954C2960 951.239 2957.76 949 2955 949Z" stroke="#4C5764" stroke-width="20"/>
</mask>
<g mask="url(#mask1_61_304)">
<path d="M2955 949H2732C2729.24 949 2727 951.239 2727 954V1003C2727 1005.76 2729.24 1008 2732 1008H2955C2957.76 1008 2960 1005.76 2960 1003V954C2960 951.239 2957.76 949 2955 949Z" stroke="#4C5764" stroke-width="20"/>
</g>
<path d="M2535.88 538.65C2535.88 537.18 2537.06 536 2538.53 536H2644.06C2645.52 536 2646.71 537.18 2646.71 538.65C2646.71 540.11 2645.52 541.3 2644.06 541.3H2538.53C2537.06 541.3 2535.88 540.11 2535.88 538.65Z" fill="#4C5764"/>
<path d="M2535.88 587.42C2535.88 585.95 2537.06 584.77 2538.53 584.77H2644.06C2645.52 584.77 2646.71 585.95 2646.71 587.42C2646.71 588.88 2645.52 590.07 2644.06 590.07H2538.53C2537.06 590.07 2535.88 588.88 2535.88 587.42Z" fill="#4C5764"/>
<path d="M2535.88 563.03C2535.88 561.57 2537.06 560.38 2538.53 560.38H2644.06C2645.52 560.38 2646.71 561.57 2646.71 563.03C2646.71 564.5 2645.52 565.68 2644.06 565.68H2538.53C2537.06 565.68 2535.88 564.5 2535.88 563.03Z" fill="#4C5764"/>
<path d="M2859.14 563.03C2859.14 561.57 2860.32 560.38 2861.79 560.38H3118.79C3120.25 560.38 3121.44 561.57 3121.44 563.03C3121.44 564.5 3120.25 565.68 3118.79 565.68H2861.79C2860.32 565.68 2859.14 564.5 2859.14 563.03Z" fill="#4C5764"/>
<path d="M2535.88 611.8C2535.88 610.34 2537.06 609.15 2538.53 609.15H2644.06C2645.52 609.15 2646.71 610.34 2646.71 611.8C2646.71 613.26 2645.52 614.45 2644.06 614.45H2538.53C2537.06 614.45 2535.88 613.26 2535.88 611.8Z" fill="#4C5764"/>
<path d="M2535.88 660.57C2535.88 659.1 2537.06 657.92 2538.53 657.92H2644.06C2645.52 657.92 2646.71 659.1 2646.71 660.57C2646.71 662.03 2645.52 663.22 2644.06 663.22H2538.53C2537.06 663.22 2535.88 662.03 2535.88 660.57Z" fill="#4C5764"/>
<path d="M2535.88 636.18C2535.88 634.72 2537.06 633.53 2538.53 633.53H2644.06C2645.52 633.53 2646.71 634.72 2646.71 636.18C2646.71 637.65 2645.52 638.84 2644.06 638.84H2538.53C2537.06 638.84 2535.88 637.65 2535.88 636.18Z" fill="#4C5764"/>
<path d="M2674.42 538.65C2674.42 537.18 2675.6 536 2677.07 536H3013.5C3014.96 536 3016.15 537.18 3016.15 538.65C3016.15 540.11 3014.96 541.3 3013.5 541.3H2677.07C2675.6 541.3 2674.42 540.11 2674.42 538.65Z" fill="#84CC16"/>
<path d="M2674.42 587.42C2674.42 585.95 2675.6 584.77 2677.07 584.77H2902.67C2904.13 584.77 2905.32 585.95 2905.32 587.42C2905.32 588.88 2904.13 590.07 2902.67 590.07H2677.07C2675.6 590.07 2674.42 588.88 2674.42 587.42Z" fill="#84CC16"/>
<path d="M2674.42 563.03C2674.42 561.57 2675.6 560.38 2677.07 560.38H2838.01C2839.48 560.38 2840.66 561.57 2840.66 563.03C2840.66 564.5 2839.48 565.68 2838.01 565.68H2677.07C2675.6 565.68 2674.42 564.5 2674.42 563.03Z" fill="#EF4444"/>
<path d="M2938.57 587.42C2938.57 585.95 2939.75 584.77 2941.22 584.77H3102.16C3103.63 584.77 3104.81 585.95 3104.81 587.42C3104.81 588.88 3103.63 590.07 3102.16 590.07H2941.22C2939.75 590.07 2938.57 588.88 2938.57 587.42Z" fill="#EF4444"/>
<path d="M2674.42 611.8C2674.42 610.34 2675.6 609.15 2677.07 609.15H3050.44C3051.91 609.15 3053.09 610.34 3053.09 611.8C3053.09 613.26 3051.91 614.45 3050.44 614.45H2677.07C2675.6 614.45 2674.42 613.26 2674.42 611.8Z" fill="#EF4444"/>
<path d="M2674.42 660.57C2674.42 659.1 2675.6 657.92 2677.07 657.92H3013.5C3014.96 657.92 3016.15 659.1 3016.15 660.57C3016.15 662.03 3014.96 663.22 3013.5 663.22H2677.07C2675.6 663.22 2674.42 662.03 2674.42 660.57Z" fill="#84CC16"/>
<path d="M2824.04 636.18C2824.04 634.72 2825.23 633.53 2826.69 633.53H3163.12C3164.59 633.53 3165.77 634.72 3165.77 636.18C3165.77 637.65 3164.59 638.84 3163.12 638.84H2826.69C2825.23 638.84 2824.04 637.65 2824.04 636.18Z" fill="#84CC16"/>
<path d="M2674.42 636.18C2674.42 634.72 2675.6 633.53 2677.07 633.53H2793.68C2795.14 633.53 2796.33 634.72 2796.33 636.18C2796.33 637.65 2795.14 638.84 2793.68 638.84H2677.07C2675.6 638.84 2674.42 637.65 2674.42 636.18Z" fill="#4C5764"/>
<path d="M2535.88 684.95C2535.88 683.49 2537.06 682.3 2538.53 682.3H2644.06C2645.52 682.3 2646.71 683.49 2646.71 684.95C2646.71 686.42 2645.52 687.6 2644.06 687.6H2538.53C2537.06 687.6 2535.88 686.42 2535.88 684.95Z" fill="#4C5764"/>
<path d="M2535.88 733.72C2535.88 732.26 2537.06 731.07 2538.53 731.07H2644.06C2645.52 731.07 2646.71 732.26 2646.71 733.72C2646.71 735.18 2645.52 736.37 2644.06 736.37H2538.53C2537.06 736.37 2535.88 735.18 2535.88 733.72Z" fill="#4C5764"/>
<path d="M2535.88 709.34C2535.88 707.87 2537.06 706.69 2538.53 706.69H2644.06C2645.52 706.69 2646.71 707.87 2646.71 709.34C2646.71 710.8 2645.52 711.99 2644.06 711.99H2538.53C2537.06 711.99 2535.88 710.8 2535.88 709.34Z" fill="#4C5764"/>
<path d="M2859.14 709.34C2859.14 707.87 2860.32 706.69 2861.79 706.69H3118.79C3120.25 706.69 3121.44 707.87 3121.44 709.34C3121.44 710.8 3120.25 711.99 3118.79 711.99H2861.79C2860.32 711.99 2859.14 710.8 2859.14 709.34Z" fill="#4C5764"/>
<path d="M2535.88 758.1C2535.88 756.64 2537.06 755.45 2538.53 755.45H2644.06C2645.52 755.45 2646.71 756.64 2646.71 758.1C2646.71 759.57 2645.52 760.76 2644.06 760.76H2538.53C2537.06 760.76 2535.88 759.57 2535.88 758.1Z" fill="#4C5764"/>
<path d="M2535.88 806.87C2535.88 805.41 2537.06 804.22 2538.53 804.22H2644.06C2645.52 804.22 2646.71 805.41 2646.71 806.87C2646.71 808.34 2645.52 809.52 2644.06 809.52H2538.53C2537.06 809.52 2535.88 808.34 2535.88 806.87Z" fill="#4C5764"/>
<path d="M2535.88 782.49C2535.88 781.03 2537.06 779.84 2538.53 779.84H2644.06C2645.52 779.84 2646.71 781.03 2646.71 782.49C2646.71 783.95 2645.52 785.14 2644.06 785.14H2538.53C2537.06 785.14 2535.88 783.95 2535.88 782.49Z" fill="#4C5764"/>
<path d="M2674.42 684.95C2674.42 683.49 2675.6 682.3 2677.07 682.3H3013.5C3014.96 682.3 3016.15 683.49 3016.15 684.95C3016.15 686.42 3014.96 687.6 3013.5 687.6H2677.07C2675.6 687.6 2674.42 686.42 2674.42 684.95Z" fill="#84CC16"/>
<path d="M2674.42 733.72C2674.42 732.26 2675.6 731.07 2677.07 731.07H2902.67C2904.13 731.07 2905.32 732.26 2905.32 733.72C2905.32 735.18 2904.13 736.37 2902.67 736.37H2677.07C2675.6 736.37 2674.42 735.18 2674.42 733.72Z" fill="#84CC16"/>
<path d="M2674.42 709.34C2674.42 707.87 2675.6 706.69 2677.07 706.69H2838.01C2839.48 706.69 2840.66 707.87 2840.66 709.34C2840.66 710.8 2839.48 711.99 2838.01 711.99H2677.07C2675.6 711.99 2674.42 710.8 2674.42 709.34Z" fill="#EF4444"/>
<path d="M2938.57 733.72C2938.57 732.26 2939.75 731.07 2941.22 731.07H3102.16C3103.63 731.07 3104.81 732.26 3104.81 733.72C3104.81 735.18 3103.63 736.37 3102.16 736.37H2941.22C2939.75 736.37 2938.57 735.18 2938.57 733.72Z" fill="#EF4444"/>
<path d="M2674.42 758.1C2674.42 756.64 2675.6 755.45 2677.07 755.45H3050.44C3051.91 755.45 3053.09 756.64 3053.09 758.1C3053.09 759.57 3051.91 760.76 3050.44 760.76H2677.07C2675.6 760.76 2674.42 759.57 2674.42 758.1Z" fill="#EF4444"/>
<path d="M2674.42 806.87C2674.42 805.41 2675.6 804.22 2677.07 804.22H3013.5C3014.96 804.22 3016.15 805.41 3016.15 806.87C3016.15 808.34 3014.96 809.52 3013.5 809.52H2677.07C2675.6 809.52 2674.42 808.34 2674.42 806.87Z" fill="#84CC16"/>
<path d="M2824.04 782.49C2824.04 781.03 2825.23 779.84 2826.69 779.84H3163.12C3164.59 779.84 3165.77 781.03 3165.77 782.49C3165.77 783.95 3164.59 785.14 3163.12 785.14H2826.69C2825.23 785.14 2824.04 783.95 2824.04 782.49Z" fill="#84CC16"/>
<path d="M2674.42 782.49C2674.42 781.03 2675.6 779.84 2677.07 779.84H2793.68C2795.14 779.84 2796.33 781.03 2796.33 782.49C2796.33 783.95 2795.14 785.14 2793.68 785.14H2677.07C2675.6 785.14 2674.42 783.95 2674.42 782.49Z" fill="#4C5764"/>
<g filter="url(#filter6_d_61_304)">
<mask id="mask2_61_304" style="mask-type:alpha" maskUnits="userSpaceOnUse" x="2479" y="485" width="729" height="359">
<path d="M3193 495H2494C2491.24 495 2489 497.386 2489 500.33V828.67C2489 831.614 2491.24 834 2494 834H3193C3195.76 834 3198 831.614 3198 828.67V500.33C3198 497.386 3195.76 495 3193 495Z" stroke="#4C5764" stroke-width="20"/>
</mask>
<g mask="url(#mask2_61_304)">
<path d="M3193 495H2494C2491.24 495 2489 497.386 2489 500.33V828.67C2489 831.614 2491.24 834 2494 834H3193C3195.76 834 3198 831.614 3198 828.67V500.33C3198 497.386 3195.76 495 3193 495Z" stroke="#4C5764" stroke-width="20"/>
</g>
</g>
<path d="M2451.6 32.25H2303.08C2302.39 32.25 2301.83 32.8096 2301.83 33.5C2301.83 34.1904 2302.39 34.75 2303.08 34.75H2451.6C2452.29 34.75 2452.85 34.1904 2452.85 33.5C2452.85 32.8096 2452.29 32.25 2451.6 32.25Z" stroke="#4C5764" stroke-width="2.5"/>
<mask id="mask3_61_304" style="mask-type:alpha" maskUnits="userSpaceOnUse" x="2228" y="0" width="299" height="439">
<path d="M2511.68 10H2243C2240.24 10 2238 12.2386 2238 15V424C2238 426.761 2240.24 429 2243 429H2511.68C2514.44 429 2516.68 426.761 2516.68 424V15C2516.68 12.2386 2514.44 10 2511.68 10Z" stroke="#4C5764" stroke-width="20"/>
</mask>
<g mask="url(#mask3_61_304)">
<path d="M2511.68 10H2243C2240.24 10 2238 12.2386 2238 15V424C2238 426.761 2240.24 429 2243 429H2511.68C2514.44 429 2516.68 426.761 2516.68 424V15C2516.68 12.2386 2514.44 10 2511.68 10Z" stroke="#4C5764" stroke-width="20"/>
</g>
<g filter="url(#filter7_d_61_304)">
<mask id="mask4_61_304" style="mask-type:alpha" maskUnits="userSpaceOnUse" x="2245" y="43" width="265" height="351">
<path d="M2494.07 53H2260.6C2257.84 53 2255.6 55.2386 2255.6 58V379C2255.6 381.761 2257.84 384 2260.6 384H2494.07C2496.84 384 2499.07 381.761 2499.07 379V58C2499.07 55.2386 2496.84 53 2494.07 53Z" stroke="#4C5764" stroke-width="20"/>
</mask>
<g mask="url(#mask4_61_304)">
<path d="M2494.07 53H2260.6C2257.84 53 2255.6 55.2386 2255.6 58V379C2255.6 381.761 2257.84 384 2260.6 384H2494.07C2496.84 384 2499.07 381.761 2499.07 379V58C2499.07 55.2386 2496.84 53 2494.07 53Z" stroke="#4C5764" stroke-width="20"/>
</g>
</g>
<path d="M2385.1 405C2385.1 409.195 2381.79 412.5 2377.83 412.5C2373.86 412.5 2370.55 409.195 2370.55 405C2370.55 400.805 2373.86 397.5 2377.83 397.5C2381.79 397.5 2385.1 400.805 2385.1 405Z" fill="#84CC16" stroke="#4C5764" stroke-width="5"/>
<path d="M2280.39 351C2280.39 348.791 2282.18 347 2284.39 347H2411.67C2413.88 347 2415.67 348.791 2415.67 351C2415.67 353.209 2413.88 355 2411.67 355H2284.39C2282.18 355 2280.39 353.209 2280.39 351Z" fill="#EF4444"/>
<path d="M2280 310C2280 307.791 2281.79 306 2284 306H2411.27C2413.48 306 2415.27 307.791 2415.27 310C2415.27 312.209 2413.48 314 2411.27 314H2284C2281.79 314 2280 312.209 2280 310Z" fill="#EF4444"/>
<path d="M2280 248C2280 245.791 2281.79 244 2284 244H2364.98C2367.19 244 2368.98 245.791 2368.98 248C2368.98 250.209 2367.19 252 2364.98 252H2284C2281.79 252 2280 250.209 2280 248Z" fill="#EF4444"/>
<path d="M2280 211C2280 208.791 2281.79 207 2284 207H2471.56C2473.77 207 2475.56 208.791 2475.56 211C2475.56 213.209 2473.77 215 2471.56 215H2284C2281.79 215 2280 213.209 2280 211Z" fill="#84CC16"/>
<path d="M2280 86C2280 83.791 2281.79 82 2284 82H2471.56C2473.77 82 2475.56 83.791 2475.56 86C2475.56 88.209 2473.77 90 2471.56 90H2284C2281.79 90 2280 88.209 2280 86Z" fill="#84CC16"/>
<path d="M2280 147C2280 144.791 2281.79 143 2284 143H2383.56C2385.77 143 2387.56 144.791 2387.56 147C2387.56 149.209 2385.77 151 2383.56 151H2284C2281.79 151 2280 149.209 2280 147Z" fill="#84CC16"/>
<path d="M2368 281C2368 278.791 2369.79 277 2372 277H2471.56C2473.77 277 2475.56 278.791 2475.56 281C2475.56 283.209 2473.77 285 2471.56 285H2372C2369.79 285 2368 283.209 2368 281Z" fill="#84CC16"/>
<path d="M1664 202.5H1084C1082.62 202.5 1081.5 203.619 1081.5 205V749C1081.5 750.381 1082.62 751.5 1084 751.5H1664C1665.38 751.5 1666.5 750.381 1666.5 749V205C1666.5 203.619 1665.38 202.5 1664 202.5Z" fill="#4C5764" stroke="#D9D9D9" stroke-width="5"/>
<g filter="url(#filter8_d_61_304)">
<path d="M1664 234H1084C1081.24 234 1079 236.239 1079 239V749C1079 751.761 1081.24 754 1084 754H1664C1666.76 754 1669 751.761 1669 749V239C1669 236.239 1666.76 234 1664 234Z" fill="#4C5764"/>
<path d="M1664 236.5H1084C1082.62 236.5 1081.5 237.619 1081.5 239V749C1081.5 750.381 1082.62 751.5 1084 751.5H1664C1665.38 751.5 1666.5 750.381 1666.5 749V239C1666.5 237.619 1665.38 236.5 1664 236.5Z" stroke="#D9D9D9" stroke-width="5"/>
</g>
<path d="M1120 275.331C1120 272.939 1121.94 271 1124.33 271H1207.9C1210.29 271 1212.23 272.939 1212.23 275.331C1212.23 277.724 1210.29 279.663 1207.9 279.663H1124.33C1121.94 279.663 1120 277.724 1120 275.331Z" fill="#D9D9D9"/>
<path d="M1120 355.029C1120 352.637 1121.94 350.698 1124.33 350.698H1207.9C1210.29 350.698 1212.23 352.637 1212.23 355.029C1212.23 357.421 1210.29 359.361 1207.9 359.361H1124.33C1121.94 359.361 1120 357.421 1120 355.029Z" fill="#D9D9D9"/>
<path d="M1120 315.18C1120 312.788 1121.94 310.849 1124.33 310.849H1207.9C1210.29 310.849 1212.23 312.788 1212.23 315.18C1212.23 317.572 1210.29 319.511 1207.9 319.511H1124.33C1121.94 319.511 1120 317.572 1120 315.18Z" fill="#D9D9D9"/>
<path d="M1389 315.18C1389 312.788 1390.94 310.849 1393.34 310.849H1602.95C1605.34 310.849 1607.28 312.788 1607.28 315.18C1607.28 317.572 1605.34 319.511 1602.95 319.511H1393.34C1390.94 319.511 1389 317.572 1389 315.18Z" fill="#4C5764"/>
<path d="M1120 394.878C1120 392.486 1121.94 390.546 1124.33 390.546H1207.9C1210.29 390.546 1212.23 392.486 1212.23 394.878C1212.23 397.27 1210.29 399.209 1207.9 399.209H1124.33C1121.94 399.209 1120 397.27 1120 394.878Z" fill="#D9D9D9"/>
<path d="M1120 474.576C1120 472.183 1121.94 470.244 1124.33 470.244H1207.9C1210.29 470.244 1212.23 472.183 1212.23 474.576C1212.23 476.968 1210.29 478.907 1207.9 478.907H1124.33C1121.94 478.907 1120 476.968 1120 474.576Z" fill="#D9D9D9"/>
<path d="M1120 434.727C1120 432.335 1121.94 430.396 1124.33 430.396H1207.9C1210.29 430.396 1212.23 432.335 1212.23 434.727C1212.23 437.119 1210.29 439.058 1207.9 439.058H1124.33C1121.94 439.058 1120 437.119 1120 434.727Z" fill="#D9D9D9"/>
<path d="M1235.29 275.331C1235.29 272.939 1237.23 271 1239.62 271H1515.33C1517.72 271 1519.66 272.939 1519.66 275.331C1519.66 277.724 1517.72 279.663 1515.33 279.663H1239.62C1237.23 279.663 1235.29 277.724 1235.29 275.331Z" fill="#84CC16"/>
<path d="M1235.29 355.029C1235.29 352.637 1237.23 350.698 1239.62 350.698H1423.1C1425.49 350.698 1427.43 352.637 1427.43 355.029C1427.43 357.421 1425.49 359.361 1423.1 359.361H1239.62C1237.23 359.361 1235.29 357.421 1235.29 355.029Z" fill="#84CC16"/>
<path d="M1235.29 315.18C1235.29 312.788 1237.23 310.849 1239.62 310.849H1369.3C1371.69 310.849 1373.63 312.788 1373.63 315.18C1373.63 317.572 1371.69 319.511 1369.3 319.511H1239.62C1237.23 319.511 1235.29 317.572 1235.29 315.18Z" fill="#EF4444"/>
<path d="M1455.1 355.029C1455.1 352.637 1457.04 350.698 1459.43 350.698H1589.12C1591.51 350.698 1593.45 352.637 1593.45 355.029C1593.45 357.421 1591.51 359.361 1589.12 359.361H1459.43C1457.04 359.361 1455.1 357.421 1455.1 355.029Z" fill="#EF4444"/>
<path d="M1235.29 394.878C1235.29 392.486 1237.23 390.546 1239.62 390.546H1546.07C1548.47 390.546 1550.41 392.486 1550.41 394.878C1550.41 397.27 1548.47 399.209 1546.07 399.209H1239.62C1237.23 399.209 1235.29 397.27 1235.29 394.878Z" fill="#EF4444"/>
<path d="M1235.29 474.576C1235.29 472.183 1237.23 470.244 1239.62 470.244H1515.33C1517.72 470.244 1519.66 472.183 1519.66 474.576C1519.66 476.968 1517.72 478.907 1515.33 478.907H1239.62C1237.23 478.907 1235.29 476.968 1235.29 474.576Z" fill="#84CC16"/>
<path d="M1359.8 434.727C1359.8 432.335 1361.74 430.396 1364.13 430.396H1639.84C1642.23 430.396 1644.17 432.335 1644.17 434.727C1644.17 437.119 1642.23 439.058 1639.84 439.058H1364.13C1361.74 439.058 1359.8 437.119 1359.8 434.727Z" fill="#84CC16"/>
<path d="M1235.29 434.727C1235.29 432.335 1237.23 430.396 1239.62 430.396H1332.41C1334.8 430.396 1336.74 432.335 1336.74 434.727C1336.74 437.119 1334.8 439.058 1332.41 439.058H1239.62C1237.23 439.058 1235.29 437.119 1235.29 434.727Z" fill="#4C5764"/>
<path d="M1120 514.42C1120 512.03 1121.94 510.09 1124.33 510.09H1207.9C1210.29 510.09 1212.23 512.03 1212.23 514.42C1212.23 516.82 1210.29 518.76 1207.9 518.76H1124.33C1121.94 518.76 1120 516.82 1120 514.42Z" fill="#D9D9D9"/>
<path d="M1120 594.12C1120 591.73 1121.94 589.79 1124.33 589.79H1207.9C1210.29 589.79 1212.23 591.73 1212.23 594.12C1212.23 596.51 1210.29 598.45 1207.9 598.45H1124.33C1121.94 598.45 1120 596.51 1120 594.12Z" fill="#D9D9D9"/>
<path d="M1120 554.27C1120 551.88 1121.94 549.94 1124.33 549.94H1207.9C1210.29 549.94 1212.23 551.88 1212.23 554.27C1212.23 556.67 1210.29 558.6 1207.9 558.6H1124.33C1121.94 558.6 1120 556.67 1120 554.27Z" fill="#D9D9D9"/>
<path d="M1389 554.27C1389 551.88 1390.94 549.94 1393.34 549.94H1602.95C1605.34 549.94 1607.28 551.88 1607.28 554.27C1607.28 556.67 1605.34 558.6 1602.95 558.6H1393.34C1390.94 558.6 1389 556.67 1389 554.27Z" fill="#4C5764"/>
<path d="M1120 633.97C1120 631.58 1121.94 629.64 1124.33 629.64H1207.9C1210.29 629.64 1212.23 631.58 1212.23 633.97C1212.23 636.36 1210.29 638.3 1207.9 638.3H1124.33C1121.94 638.3 1120 636.36 1120 633.97Z" fill="#D9D9D9"/>
<path d="M1120 713.67C1120 711.28 1121.94 709.34 1124.33 709.34H1207.9C1210.29 709.34 1212.23 711.28 1212.23 713.67C1212.23 716.06 1210.29 718 1207.9 718H1124.33C1121.94 718 1120 716.06 1120 713.67Z" fill="#D9D9D9"/>
<path d="M1120 673.82C1120 671.43 1121.94 669.49 1124.33 669.49H1207.9C1210.29 669.49 1212.23 671.43 1212.23 673.82C1212.23 676.21 1210.29 678.15 1207.9 678.15H1124.33C1121.94 678.15 1120 676.21 1120 673.82Z" fill="#D9D9D9"/>
<path d="M1235.29 514.42C1235.29 512.03 1237.23 510.09 1239.62 510.09H1515.33C1517.72 510.09 1519.66 512.03 1519.66 514.42C1519.66 516.82 1517.72 518.76 1515.33 518.76H1239.62C1237.23 518.76 1235.29 516.82 1235.29 514.42Z" fill="#84CC16"/>
<path d="M1235.29 594.12C1235.29 591.73 1237.23 589.79 1239.62 589.79H1423.1C1425.49 589.79 1427.43 591.73 1427.43 594.12C1427.43 596.51 1425.49 598.45 1423.1 598.45H1239.62C1237.23 598.45 1235.29 596.51 1235.29 594.12Z" fill="#84CC16"/>
<path d="M1235.29 554.27C1235.29 551.88 1237.23 549.94 1239.62 549.94H1369.3C1371.69 549.94 1373.63 551.88 1373.63 554.27C1373.63 556.67 1371.69 558.6 1369.3 558.6H1239.62C1237.23 558.6 1235.29 556.67 1235.29 554.27Z" fill="#EF4444"/>
<path d="M1455.1 594.12C1455.1 591.73 1457.04 589.79 1459.43 589.79H1589.12C1591.51 589.79 1593.45 591.73 1593.45 594.12C1593.45 596.51 1591.51 598.45 1589.12 598.45H1459.43C1457.04 598.45 1455.1 596.51 1455.1 594.12Z" fill="#EF4444"/>
<path d="M1235.29 633.97C1235.29 631.58 1237.23 629.64 1239.62 629.64H1546.07C1548.47 629.64 1550.41 631.58 1550.41 633.97C1550.41 636.36 1548.47 638.3 1546.07 638.3H1239.62C1237.23 638.3 1235.29 636.36 1235.29 633.97Z" fill="#EF4444"/>
<path d="M1235.29 713.67C1235.29 711.28 1237.23 709.34 1239.62 709.34H1515.33C1517.72 709.34 1519.66 711.28 1519.66 713.67C1519.66 716.06 1517.72 718 1515.33 718H1239.62C1237.23 718 1235.29 716.06 1235.29 713.67Z" fill="#84CC16"/>
<path d="M1359.8 673.82C1359.8 671.43 1361.74 669.49 1364.13 669.49H1639.84C1642.23 669.49 1644.17 671.43 1644.17 673.82C1644.17 676.21 1642.23 678.15 1639.84 678.15H1364.13C1361.74 678.15 1359.8 676.21 1359.8 673.82Z" fill="#84CC16"/>
<path d="M1235.29 673.82C1235.29 671.43 1237.23 669.49 1239.62 669.49H1332.41C1334.8 669.49 1336.74 671.43 1336.74 673.82C1336.74 676.21 1334.8 678.15 1332.41 678.15H1239.62C1237.23 678.15 1235.29 676.21 1235.29 673.82Z" fill="#4C5764"/>
<path d="M1612 228C1616.97 228 1621 223.971 1621 219C1621 214.029 1616.97 210 1612 210C1607.03 210 1603 214.029 1603 219C1603 223.971 1607.03 228 1612 228Z" fill="#EF4444" stroke="#4C5764" stroke-width="2"/>
<path d="M1572 228C1576.97 228 1581 223.971 1581 219C1581 214.029 1576.97 210 1572 210C1567.03 210 1563 214.029 1563 219C1563 223.971 1567.03 228 1572 228Z" fill="#F97316" stroke="#4C5764" stroke-width="2"/>
<path d="M1649 228C1653.97 228 1658 223.971 1658 219C1658 214.029 1653.97 210 1649 210C1644.03 210 1640 214.029 1640 219C1640 223.971 1644.03 228 1649 228Z" fill="#84CC16" stroke="#4C5764" stroke-width="2"/>
<path d="M3514 174.5H2934C2932.62 174.5 2931.5 175.619 2931.5 177V721C2931.5 722.381 2932.62 723.5 2934 723.5H3514C3515.38 723.5 3516.5 722.381 3516.5 721V177C3516.5 175.619 3515.38 174.5 3514 174.5Z" fill="#4C5764" stroke="#D9D9D9" stroke-width="5"/>
<g filter="url(#filter9_d_61_304)">
<path d="M3514 206H2934C2931.24 206 2929 208.239 2929 211V721C2929 723.761 2931.24 726 2934 726H3514C3516.76 726 3519 723.761 3519 721V211C3519 208.239 3516.76 206 3514 206Z" fill="#4C5764"/>
<path d="M3514 208.5H2934C2932.62 208.5 2931.5 209.619 2931.5 211V721C2931.5 722.381 2932.62 723.5 2934 723.5H3514C3515.38 723.5 3516.5 722.381 3516.5 721V211C3516.5 209.619 3515.38 208.5 3514 208.5Z" stroke="#D9D9D9" stroke-width="5"/>
</g>
<path d="M2970 247.331C2970 244.939 2971.94 243 2974.33 243H3057.9C3060.29 243 3062.23 244.939 3062.23 247.331C3062.23 249.724 3060.29 251.663 3057.9 251.663H2974.33C2971.94 251.663 2970 249.724 2970 247.331Z" fill="#D9D9D9"/>
<path d="M2970 327.029C2970 324.637 2971.94 322.698 2974.33 322.698H3057.9C3060.29 322.698 3062.23 324.637 3062.23 327.029C3062.23 329.421 3060.29 331.361 3057.9 331.361H2974.33C2971.94 331.361 2970 329.421 2970 327.029Z" fill="#D9D9D9"/>
<path d="M2970 287.18C2970 284.788 2971.94 282.849 2974.33 282.849H3057.9C3060.29 282.849 3062.23 284.788 3062.23 287.18C3062.23 289.572 3060.29 291.511 3057.9 291.511H2974.33C2971.94 291.511 2970 289.572 2970 287.18Z" fill="#D9D9D9"/>
<path d="M3239 287.18C3239 284.788 3240.94 282.849 3243.34 282.849H3452.95C3455.34 282.849 3457.28 284.788 3457.28 287.18C3457.28 289.572 3455.34 291.511 3452.95 291.511H3243.34C3240.94 291.511 3239 289.572 3239 287.18Z" fill="#4C5764"/>
<path d="M2970 366.878C2970 364.486 2971.94 362.546 2974.33 362.546H3057.9C3060.29 362.546 3062.23 364.486 3062.23 366.878C3062.23 369.27 3060.29 371.209 3057.9 371.209H2974.33C2971.94 371.209 2970 369.27 2970 366.878Z" fill="#D9D9D9"/>
<path d="M2970 446.576C2970 444.183 2971.94 442.244 2974.33 442.244H3057.9C3060.29 442.244 3062.23 444.183 3062.23 446.576C3062.23 448.968 3060.29 450.907 3057.9 450.907H2974.33C2971.94 450.907 2970 448.968 2970 446.576Z" fill="#D9D9D9"/>
<path d="M2970 406.727C2970 404.335 2971.94 402.396 2974.33 402.396H3057.9C3060.29 402.396 3062.23 404.335 3062.23 406.727C3062.23 409.119 3060.29 411.058 3057.9 411.058H2974.33C2971.94 411.058 2970 409.119 2970 406.727Z" fill="#D9D9D9"/>
<path d="M3085.29 247.331C3085.29 244.939 3087.23 243 3089.62 243H3365.33C3367.72 243 3369.66 244.939 3369.66 247.331C3369.66 249.724 3367.72 251.663 3365.33 251.663H3089.62C3087.23 251.663 3085.29 249.724 3085.29 247.331Z" fill="#84CC16"/>
<path d="M3085.29 327.029C3085.29 324.637 3087.23 322.698 3089.62 322.698H3273.1C3275.49 322.698 3277.43 324.637 3277.43 327.029C3277.43 329.421 3275.49 331.361 3273.1 331.361H3089.62C3087.23 331.361 3085.29 329.421 3085.29 327.029Z" fill="#84CC16"/>
<path d="M3085.29 287.18C3085.29 284.788 3087.23 282.849 3089.62 282.849H3219.3C3221.69 282.849 3223.63 284.788 3223.63 287.18C3223.63 289.572 3221.69 291.511 3219.3 291.511H3089.62C3087.23 291.511 3085.29 289.572 3085.29 287.18Z" fill="#EF4444"/>
<path d="M3305.1 327.029C3305.1 324.637 3307.04 322.698 3309.43 322.698H3439.12C3441.51 322.698 3443.45 324.637 3443.45 327.029C3443.45 329.421 3441.51 331.361 3439.12 331.361H3309.43C3307.04 331.361 3305.1 329.421 3305.1 327.029Z" fill="#EF4444"/>
<path d="M3085.29 366.878C3085.29 364.486 3087.23 362.546 3089.62 362.546H3396.07C3398.47 362.546 3400.41 364.486 3400.41 366.878C3400.41 369.27 3398.47 371.209 3396.07 371.209H3089.62C3087.23 371.209 3085.29 369.27 3085.29 366.878Z" fill="#EF4444"/>
<path d="M3085.29 446.576C3085.29 444.183 3087.23 442.244 3089.62 442.244H3365.33C3367.72 442.244 3369.66 444.183 3369.66 446.576C3369.66 448.968 3367.72 450.907 3365.33 450.907H3089.62C3087.23 450.907 3085.29 448.968 3085.29 446.576Z" fill="#84CC16"/>
<path d="M3209.8 406.727C3209.8 404.335 3211.74 402.396 3214.13 402.396H3489.84C3492.23 402.396 3494.17 404.335 3494.17 406.727C3494.17 409.119 3492.23 411.058 3489.84 411.058H3214.13C3211.74 411.058 3209.8 409.119 3209.8 406.727Z" fill="#84CC16"/>
<path d="M3085.29 406.727C3085.29 404.335 3087.23 402.396 3089.62 402.396H3182.41C3184.8 402.396 3186.74 404.335 3186.74 406.727C3186.74 409.119 3184.8 411.058 3182.41 411.058H3089.62C3087.23 411.058 3085.29 409.119 3085.29 406.727Z" fill="#4C5764"/>
<path d="M2970 486.42C2970 484.03 2971.94 482.093 2974.33 482.093H3057.9C3060.29 482.093 3062.23 484.03 3062.23 486.42C3062.23 488.82 3060.29 490.76 3057.9 490.76H2974.33C2971.94 490.76 2970 488.82 2970 486.42Z" fill="#D9D9D9"/>
<path d="M2970 566.12C2970 563.73 2971.94 561.79 2974.33 561.79H3057.9C3060.29 561.79 3062.23 563.73 3062.23 566.12C3062.23 568.51 3060.29 570.45 3057.9 570.45H2974.33C2971.94 570.45 2970 568.51 2970 566.12Z" fill="#D9D9D9"/>
<path d="M2970 526.27C2970 523.88 2971.94 521.94 2974.33 521.94H3057.9C3060.29 521.94 3062.23 523.88 3062.23 526.27C3062.23 528.67 3060.29 530.6 3057.9 530.6H2974.33C2971.94 530.6 2970 528.67 2970 526.27Z" fill="#D9D9D9"/>
<path d="M3239 526.27C3239 523.88 3240.94 521.94 3243.34 521.94H3452.95C3455.34 521.94 3457.28 523.88 3457.28 526.27C3457.28 528.67 3455.34 530.6 3452.95 530.6H3243.34C3240.94 530.6 3239 528.67 3239 526.27Z" fill="#4C5764"/>
<path d="M2970 605.97C2970 603.58 2971.94 601.64 2974.33 601.64H3057.9C3060.29 601.64 3062.23 603.58 3062.23 605.97C3062.23 608.36 3060.29 610.3 3057.9 610.3H2974.33C2971.94 610.3 2970 608.36 2970 605.97Z" fill="#D9D9D9"/>
<path d="M2970 685.67C2970 683.28 2971.94 681.34 2974.33 681.34H3057.9C3060.29 681.34 3062.23 683.28 3062.23 685.67C3062.23 688.06 3060.29 690 3057.9 690H2974.33C2971.94 690 2970 688.06 2970 685.67Z" fill="#D9D9D9"/>
<path d="M2970 645.82C2970 643.43 2971.94 641.49 2974.33 641.49H3057.9C3060.29 641.49 3062.23 643.43 3062.23 645.82C3062.23 648.21 3060.29 650.15 3057.9 650.15H2974.33C2971.94 650.15 2970 648.21 2970 645.82Z" fill="#D9D9D9"/>
<path d="M3085.29 486.42C3085.29 484.03 3087.23 482.093 3089.62 482.093H3365.33C3367.72 482.093 3369.66 484.03 3369.66 486.42C3369.66 488.82 3367.72 490.76 3365.33 490.76H3089.62C3087.23 490.76 3085.29 488.82 3085.29 486.42Z" fill="#84CC16"/>
<path d="M3085.29 566.12C3085.29 563.73 3087.23 561.79 3089.62 561.79H3273.1C3275.49 561.79 3277.43 563.73 3277.43 566.12C3277.43 568.51 3275.49 570.45 3273.1 570.45H3089.62C3087.23 570.45 3085.29 568.51 3085.29 566.12Z" fill="#84CC16"/>
<path d="M3085.29 526.27C3085.29 523.88 3087.23 521.94 3089.62 521.94H3219.3C3221.69 521.94 3223.63 523.88 3223.63 526.27C3223.63 528.67 3221.69 530.6 3219.3 530.6H3089.62C3087.23 530.6 3085.29 528.67 3085.29 526.27Z" fill="#EF4444"/>
<path d="M3305.1 566.12C3305.1 563.73 3307.04 561.79 3309.43 561.79H3439.12C3441.51 561.79 3443.45 563.73 3443.45 566.12C3443.45 568.51 3441.51 570.45 3439.12 570.45H3309.43C3307.04 570.45 3305.1 568.51 3305.1 566.12Z" fill="#EF4444"/>
<path d="M3085.29 605.97C3085.29 603.58 3087.23 601.64 3089.62 601.64H3396.07C3398.47 601.64 3400.41 603.58 3400.41 605.97C3400.41 608.36 3398.47 610.3 3396.07 610.3H3089.62C3087.23 610.3 3085.29 608.36 3085.29 605.97Z" fill="#EF4444"/>
<path d="M3085.29 685.67C3085.29 683.28 3087.23 681.34 3089.62 681.34H3365.33C3367.72 681.34 3369.66 683.28 3369.66 685.67C3369.66 688.06 3367.72 690 3365.33 690H3089.62C3087.23 690 3085.29 688.06 3085.29 685.67Z" fill="#84CC16"/>
<path d="M3209.8 645.82C3209.8 643.43 3211.74 641.49 3214.13 641.49H3489.84C3492.23 641.49 3494.17 643.43 3494.17 645.82C3494.17 648.21 3492.23 650.15 3489.84 650.15H3214.13C3211.74 650.15 3209.8 648.21 3209.8 645.82Z" fill="#84CC16"/>
<path d="M3085.29 645.82C3085.29 643.43 3087.23 641.49 3089.62 641.49H3182.41C3184.8 641.49 3186.74 643.43 3186.74 645.82C3186.74 648.21 3184.8 650.15 3182.41 650.15H3089.62C3087.23 650.15 3085.29 648.21 3085.29 645.82Z" fill="#4C5764"/>
<path d="M3462 200C3466.97 200 3471 195.971 3471 191C3471 186.029 3466.97 182 3462 182C3457.03 182 3453 186.029 3453 191C3453 195.971 3457.03 200 3462 200Z" fill="#EF4444" stroke="#4C5764" stroke-width="2"/>
<path d="M3422 200C3426.97 200 3431 195.971 3431 191C3431 186.029 3426.97 182 3422 182C3417.03 182 3413 186.029 3413 191C3413 195.971 3417.03 200 3422 200Z" fill="#F97316" stroke="#4C5764" stroke-width="2"/>
<path d="M3499 200C3503.97 200 3508 195.971 3508 191C3508 186.029 3503.97 182 3499 182C3494.03 182 3490 186.029 3490 191C3490 195.971 3494.03 200 3499 200Z" fill="#84CC16" stroke="#4C5764" stroke-width="2"/>
<rect x="960.5" y="972.5" width="228" height="54" rx="2.5" fill="#4C5764" stroke="#D9D9D9" stroke-width="5"/>
<path d="M2897.5 226C2897.5 304.181 2835.01 367.5 2758 367.5C2680.99 367.5 2618.5 304.181 2618.5 226C2618.5 147.819 2680.99 84.5 2758 84.5C2835.01 84.5 2897.5 147.819 2897.5 226Z" stroke="#84CC16" stroke-width="5"/>
<rect x="2657.5" y="144.5" width="200" height="144" rx="2.5" stroke="#4C5764" stroke-width="5"/>
<rect x="2747.5" y="310.5" width="20" height="1" rx="0.5" fill="#4C5764" stroke="#4C5764"/>
<rect x="2728.5" y="312.5" width="58" height="16" rx="2.5" stroke="#4C5764" stroke-width="5"/>
<rect x="2749.5" y="289.5" width="16" height="23" rx="2.5" stroke="#4C5764" stroke-width="5"/>
<path d="M2666.05 158.402C2666.05 157.766 2666.56 157.251 2667.2 157.251H2696.91C2697.55 157.251 2698.06 157.766 2698.06 158.402V158.402C2698.06 159.037 2697.55 159.552 2696.91 159.552H2667.2C2666.56 159.552 2666.05 159.037 2666.05 158.402V158.402Z" fill="#D9D9D9"/>
<path d="M2666.05 179.574C2666.05 178.939 2666.56 178.423 2667.2 178.423H2696.91C2697.55 178.423 2698.06 178.939 2698.06 179.574V179.574C2698.06 180.21 2697.55 180.725 2696.91 180.725H2667.2C2666.56 180.725 2666.05 180.21 2666.05 179.574V179.574Z" fill="#D9D9D9"/>
<path d="M2666.05 168.988C2666.05 168.352 2666.56 167.837 2667.2 167.837H2696.91C2697.55 167.837 2698.06 168.352 2698.06 168.988V168.988C2698.06 169.623 2697.55 170.138 2696.91 170.138H2667.2C2666.56 170.138 2666.05 169.623 2666.05 168.988V168.988Z" fill="#D9D9D9"/>
<path d="M2759.42 168.988C2759.42 168.352 2759.94 167.837 2760.58 167.837H2834.04C2834.68 167.837 2835.19 168.352 2835.19 168.988V168.988C2835.19 169.623 2834.68 170.138 2834.04 170.138H2760.58C2759.94 170.138 2759.42 169.623 2759.42 168.988V168.988Z" fill="#4C5764"/>
<path d="M2666.05 190.16C2666.05 189.524 2666.56 189.009 2667.2 189.009H2696.91C2697.55 189.009 2698.06 189.524 2698.06 190.16V190.16C2698.06 190.795 2697.55 191.311 2696.91 191.311H2667.2C2666.56 191.311 2666.05 190.795 2666.05 190.16V190.16Z" fill="#D9D9D9"/>
<path d="M2666.05 211.332C2666.05 210.697 2666.56 210.182 2667.2 210.182H2696.91C2697.55 210.182 2698.06 210.697 2698.06 211.332V211.332C2698.06 211.968 2697.55 212.483 2696.91 212.483H2667.2C2666.56 212.483 2666.05 211.968 2666.05 211.332V211.332Z" fill="#D9D9D9"/>
<path d="M2666.05 200.746C2666.05 200.111 2666.56 199.596 2667.2 199.596H2696.91C2697.55 199.596 2698.06 200.111 2698.06 200.746V200.746C2698.06 201.382 2697.55 201.897 2696.91 201.897H2667.2C2666.56 201.897 2666.05 201.382 2666.05 200.746V200.746Z" fill="#D9D9D9"/>
<path d="M2706.07 158.402C2706.07 157.766 2706.58 157.251 2707.22 157.251H2803.63C2804.26 157.251 2804.78 157.766 2804.78 158.402V158.402C2804.78 159.037 2804.26 159.552 2803.63 159.552H2707.22C2706.58 159.552 2706.07 159.037 2706.07 158.402V158.402Z" fill="#84CC16"/>
<path d="M2706.07 179.574C2706.07 178.939 2706.58 178.423 2707.22 178.423H2771.61C2772.25 178.423 2772.76 178.939 2772.76 179.574V179.574C2772.76 180.21 2772.25 180.725 2771.61 180.725H2707.22C2706.58 180.725 2706.07 180.21 2706.07 179.574V179.574Z" fill="#84CC16"/>
<path d="M2706.07 168.988C2706.07 168.352 2706.58 167.837 2707.22 167.837H2752.94C2753.57 167.837 2754.09 168.352 2754.09 168.988V168.988C2754.09 169.623 2753.57 170.138 2752.94 170.138H2707.22C2706.58 170.138 2706.07 169.623 2706.07 168.988V168.988Z" fill="#EF4444"/>
<path d="M2782.37 179.574C2782.37 178.939 2782.88 178.423 2783.52 178.423H2829.24C2829.88 178.423 2830.39 178.939 2830.39 179.574V179.574C2830.39 180.21 2829.88 180.725 2829.24 180.725H2783.52C2782.88 180.725 2782.37 180.21 2782.37 179.574V179.574Z" fill="#EF4444"/>
<path d="M2706.07 190.16C2706.07 189.524 2706.58 189.009 2707.22 189.009H2814.3C2814.94 189.009 2815.45 189.524 2815.45 190.16V190.16C2815.45 190.795 2814.94 191.311 2814.3 191.311H2707.22C2706.58 191.311 2706.07 190.795 2706.07 190.16V190.16Z" fill="#EF4444"/>
<path d="M2706.07 211.332C2706.07 210.697 2706.58 210.182 2707.22 210.182H2803.63C2804.26 210.182 2804.78 210.697 2804.78 211.332V211.332C2804.78 211.968 2804.26 212.483 2803.63 212.483H2707.22C2706.58 212.483 2706.07 211.968 2706.07 211.332V211.332Z" fill="#84CC16"/>
<path d="M2749.29 200.746C2749.29 200.111 2749.8 199.596 2750.44 199.596H2846.85C2847.48 199.596 2848 200.111 2848 200.746V200.746C2848 201.382 2847.48 201.897 2846.85 201.897H2750.44C2749.8 201.897 2749.29 201.382 2749.29 200.746V200.746Z" fill="#84CC16"/>
<path d="M2706.07 200.746C2706.07 200.111 2706.58 199.596 2707.22 199.596H2740.13C2740.77 199.596 2741.28 200.111 2741.28 200.746V200.746C2741.28 201.382 2740.77 201.897 2740.13 201.897H2707.22C2706.58 201.897 2706.07 201.382 2706.07 200.746V200.746Z" fill="#4C5764"/>
<path d="M2666.05 221.919C2666.05 221.283 2666.56 220.768 2667.2 220.768H2696.91C2697.55 220.768 2698.06 221.283 2698.06 221.919V221.919C2698.06 222.554 2697.55 223.069 2696.91 223.069H2667.2C2666.56 223.069 2666.05 222.554 2666.05 221.919V221.919Z" fill="#D9D9D9"/>
<path d="M2666.05 243.091C2666.05 242.456 2666.56 241.94 2667.2 241.94H2696.91C2697.55 241.94 2698.06 242.456 2698.06 243.091V243.091C2698.06 243.727 2697.55 244.242 2696.91 244.242H2667.2C2666.56 244.242 2666.05 243.727 2666.05 243.091V243.091Z" fill="#D9D9D9"/>
<path d="M2666.05 232.505C2666.05 231.869 2666.56 231.354 2667.2 231.354H2696.91C2697.55 231.354 2698.06 231.869 2698.06 232.505V232.505C2698.06 233.14 2697.55 233.655 2696.91 233.655H2667.2C2666.56 233.655 2666.05 233.14 2666.05 232.505V232.505Z" fill="#D9D9D9"/>
<path d="M2759.42 232.505C2759.42 231.869 2759.94 231.354 2760.58 231.354H2834.04C2834.68 231.354 2835.19 231.869 2835.19 232.505V232.505C2835.19 233.14 2834.68 233.655 2834.04 233.655H2760.58C2759.94 233.655 2759.42 233.14 2759.42 232.505V232.505Z" fill="#4C5764"/>
<path d="M2666.05 253.677C2666.05 253.042 2666.56 252.526 2667.2 252.526H2696.91C2697.55 252.526 2698.06 253.042 2698.06 253.677V253.677C2698.06 254.313 2697.55 254.828 2696.91 254.828H2667.2C2666.56 254.828 2666.05 254.313 2666.05 253.677V253.677Z" fill="#D9D9D9"/>
<path d="M2666.05 274.849C2666.05 274.214 2666.56 273.699 2667.2 273.699H2696.91C2697.55 273.699 2698.06 274.214 2698.06 274.849V274.849C2698.06 275.485 2697.55 276 2696.91 276H2667.2C2666.56 276 2666.05 275.485 2666.05 274.849V274.849Z" fill="#D9D9D9"/>
<path d="M2666.05 264.263C2666.05 263.628 2666.56 263.113 2667.2 263.113H2696.91C2697.55 263.113 2698.06 263.628 2698.06 264.263V264.263C2698.06 264.899 2697.55 265.414 2696.91 265.414H2667.2C2666.56 265.414 2666.05 264.899 2666.05 264.263V264.263Z" fill="#D9D9D9"/>
<path d="M2706.07 221.919C2706.07 221.283 2706.58 220.768 2707.22 220.768H2803.63C2804.26 220.768 2804.78 221.283 2804.78 221.919V221.919C2804.78 222.554 2804.26 223.069 2803.63 223.069H2707.22C2706.58 223.069 2706.07 222.554 2706.07 221.919V221.919Z" fill="#84CC16"/>
<path d="M2706.07 243.091C2706.07 242.456 2706.58 241.94 2707.22 241.94H2771.61C2772.25 241.94 2772.76 242.456 2772.76 243.091V243.091C2772.76 243.727 2772.25 244.242 2771.61 244.242H2707.22C2706.58 244.242 2706.07 243.727 2706.07 243.091V243.091Z" fill="#84CC16"/>
<path d="M2706.07 232.505C2706.07 231.869 2706.58 231.354 2707.22 231.354H2752.94C2753.57 231.354 2754.09 231.869 2754.09 232.505V232.505C2754.09 233.14 2753.57 233.655 2752.94 233.655H2707.22C2706.58 233.655 2706.07 233.14 2706.07 232.505V232.505Z" fill="#EF4444"/>
<path d="M2782.37 243.091C2782.37 242.456 2782.88 241.94 2783.52 241.94H2829.24C2829.88 241.94 2830.39 242.456 2830.39 243.091V243.091C2830.39 243.727 2829.88 244.242 2829.24 244.242H2783.52C2782.88 244.242 2782.37 243.727 2782.37 243.091V243.091Z" fill="#EF4444"/>
<path d="M2706.07 253.677C2706.07 253.042 2706.58 252.526 2707.22 252.526H2814.3C2814.94 252.526 2815.45 253.042 2815.45 253.677V253.677C2815.45 254.313 2814.94 254.828 2814.3 254.828H2707.22C2706.58 254.828 2706.07 254.313 2706.07 253.677V253.677Z" fill="#EF4444"/>
<path d="M2706.07 274.849C2706.07 274.214 2706.58 273.699 2707.22 273.699H2803.63C2804.26 273.699 2804.78 274.214 2804.78 274.849V274.849C2804.78 275.485 2804.26 276 2803.63 276H2707.22C2706.58 276 2706.07 275.485 2706.07 274.849V274.849Z" fill="#84CC16"/>
<path d="M2749.29 264.263C2749.29 263.628 2749.8 263.113 2750.44 263.113H2846.85C2847.48 263.113 2848 263.628 2848 264.263V264.263C2848 264.899 2847.48 265.414 2846.85 265.414H2750.44C2749.8 265.414 2749.29 264.899 2749.29 264.263V264.263Z" fill="#84CC16"/>
<path d="M2706.07 264.263C2706.07 263.628 2706.58 263.113 2707.22 263.113H2740.13C2740.77 263.113 2741.28 263.628 2741.28 264.263V264.263C2741.28 264.899 2740.77 265.414 2740.13 265.414H2707.22C2706.58 265.414 2706.07 264.899 2706.07 264.263V264.263Z" fill="#4C5764"/>
<rect x="3381.75" y="790.75" width="61.5" height="1.5" rx="0.75" stroke="#4C5764" stroke-width="1.5"/>
<rect x="3358.5" y="781.5" width="108" height="221" rx="2.5" stroke="#4C5764" stroke-width="5"/>
<g filter="url(#filter10_d_61_304)">
<rect x="3363" y="802" width="99" height="179" rx="5" fill="#84CC16"/>
<rect x="3365" y="804" width="95" height="175" rx="3" stroke="#4C5764" stroke-width="4"/>
</g>
<path d="M3416 992C3416 994.429 3414.46 996 3413 996C3411.54 996 3410 994.429 3410 992C3410 989.571 3411.54 988 3413 988C3414.46 988 3416 989.571 3416 992Z" fill="#84CC16" stroke="#4C5764" stroke-width="2"/>
<path d="M3552.5 895C3552.5 973.181 3490.01 1036.5 3413 1036.5C3335.99 1036.5 3273.5 973.181 3273.5 895C3273.5 816.819 3335.99 753.5 3413 753.5C3490.01 753.5 3552.5 816.819 3552.5 895Z" stroke="#84CC16" stroke-width="5"/>
<defs>
<filter id="filter0_d_61_304" x="0" y="286" width="598" height="528" filterUnits="userSpaceOnUse" color-interpolation-filters="sRGB">
<feFlood flood-opacity="0" result="BackgroundImageFix"/>
<feColorMatrix in="SourceAlpha" type="matrix" values="0 0 0 0 0 0 0 0 0 0 0 0 0 0 0 0 0 0 127 0" result="hardAlpha"/>
<feOffset dy="4"/>
<feGaussianBlur stdDeviation="2"/>
<feComposite in2="hardAlpha" operator="out"/>
<feColorMatrix type="matrix" values="0 0 0 0 0 0 0 0 0 0 0 0 0 0 0 0 0 0 0.25 0"/>
<feBlend mode="normal" in2="BackgroundImageFix" result="effect1_dropShadow_61_304"/>
<feBlend mode="normal" in="SourceGraphic" in2="effect1_dropShadow_61_304" result="shape"/>
</filter>
<filter id="filter1_d_61_304" x="1663" y="514" width="717" height="348" filterUnits="userSpaceOnUse" color-interpolation-filters="sRGB">
<feFlood flood-opacity="0" result="BackgroundImageFix"/>
<feColorMatrix in="SourceAlpha" type="matrix" values="0 0 0 0 0 0 0 0 0 0 0 0 0 0 0 0 0 0 127 0" result="hardAlpha"/>
<feOffset dy="4"/>
<feGaussianBlur stdDeviation="2"/>
<feComposite in2="hardAlpha" operator="out"/>
<feColorMatrix type="matrix" values="0 0 0 0 0 0 0 0 0 0 0 0 0 0 0 0 0 0 0.25 0"/>
<feBlend mode="normal" in2="BackgroundImageFix" result="effect1_dropShadow_61_304"/>
<feBlend mode="normal" in="SourceGraphic" in2="effect1_dropShadow_61_304" result="shape"/>
</filter>
<filter id="filter2_d_61_304" x="709" y="520" width="717" height="348" filterUnits="userSpaceOnUse" color-interpolation-filters="sRGB">
<feFlood flood-opacity="0" result="BackgroundImageFix"/>
<feColorMatrix in="SourceAlpha" type="matrix" values="0 0 0 0 0 0 0 0 0 0 0 0 0 0 0 0 0 0 127 0" result="hardAlpha"/>
<feOffset dy="4"/>
<feGaussianBlur stdDeviation="2"/>
<feComposite in2="hardAlpha" operator="out"/>
<feColorMatrix type="matrix" values="0 0 0 0 0 0 0 0 0 0 0 0 0 0 0 0 0 0 0.25 0"/>
<feBlend mode="normal" in2="BackgroundImageFix" result="effect1_dropShadow_61_304"/>
<feBlend mode="normal" in="SourceGraphic" in2="effect1_dropShadow_61_304" result="shape"/>
</filter>
<filter id="filter3_d_61_304" x="350" y="536" width="257" height="339" filterUnits="userSpaceOnUse" color-interpolation-filters="sRGB">
<feFlood flood-opacity="0" result="BackgroundImageFix"/>
<feColorMatrix in="SourceAlpha" type="matrix" values="0 0 0 0 0 0 0 0 0 0 0 0 0 0 0 0 0 0 127 0" result="hardAlpha"/>
<feOffset dy="4"/>
<feGaussianBlur stdDeviation="2"/>
<feComposite in2="hardAlpha" operator="out"/>
<feColorMatrix type="matrix" values="0 0 0 0 0 0 0 0 0 0 0 0 0 0 0 0 0 0 0.25 0"/>
<feBlend mode="normal" in2="BackgroundImageFix" result="effect1_dropShadow_61_304"/>
<feBlend mode="normal" in="SourceGraphic" in2="effect1_dropShadow_61_304" result="shape"/>
</filter>
<filter id="filter4_d_61_304" x="718" y="262" width="199" height="125" filterUnits="userSpaceOnUse" color-interpolation-filters="sRGB">
<feFlood flood-opacity="0" result="BackgroundImageFix"/>
<feColorMatrix in="SourceAlpha" type="matrix" values="0 0 0 0 0 0 0 0 0 0 0 0 0 0 0 0 0 0 127 0" result="hardAlpha"/>
<feOffset dy="4"/>
<feGaussianBlur stdDeviation="2"/>
<feComposite in2="hardAlpha" operator="out"/>
<feColorMatrix type="matrix" values="0 0 0 0 0 0 0 0 0 0 0 0 0 0 0 0 0 0 0.25 0"/>
<feBlend mode="normal" in2="BackgroundImageFix" result="effect1_dropShadow_61_304"/>
<feBlend mode="normal" in="SourceGraphic" in2="effect1_dropShadow_61_304" result="shape"/>
</filter>
<filter id="filter5_d_61_304" x="711" y="252" width="213" height="155" filterUnits="userSpaceOnUse" color-interpolation-filters="sRGB">
<feFlood flood-opacity="0" result="BackgroundImageFix"/>
<feColorMatrix in="SourceAlpha" type="matrix" values="0 0 0 0 0 0 0 0 0 0 0 0 0 0 0 0 0 0 127 0" result="hardAlpha"/>
<feOffset dy="4"/>
<feGaussianBlur stdDeviation="2"/>
<feComposite in2="hardAlpha" operator="out"/>
<feColorMatrix type="matrix" values="0 0 0 0 0 0 0 0 0 0 0 0 0 0 0 0 0 0 0.25 0"/>
<feBlend mode="normal" in2="BackgroundImageFix" result="effect1_dropShadow_61_304"/>
<feBlend mode="normal" in="SourceGraphic" in2="effect1_dropShadow_61_304" result="shape"/>
</filter>
<filter id="filter6_d_61_304" x="2475" y="485" width="737" height="367" filterUnits="userSpaceOnUse" color-interpolation-filters="sRGB">
<feFlood flood-opacity="0" result="BackgroundImageFix"/>
<feColorMatrix in="SourceAlpha" type="matrix" values="0 0 0 0 0 0 0 0 0 0 0 0 0 0 0 0 0 0 127 0" result="hardAlpha"/>
<feOffset dy="4"/>
<feGaussianBlur stdDeviation="2"/>
<feComposite in2="hardAlpha" operator="out"/>
<feColorMatrix type="matrix" values="0 0 0 0 0 0 0 0 0 0 0 0 0 0 0 0 0 0 0.25 0"/>
<feBlend mode="normal" in2="BackgroundImageFix" result="effect1_dropShadow_61_304"/>
<feBlend mode="normal" in="SourceGraphic" in2="effect1_dropShadow_61_304" result="shape"/>
</filter>
<filter id="filter7_d_61_304" x="2241.6" y="43" width="271.474" height="359" filterUnits="userSpaceOnUse" color-interpolation-filters="sRGB">
<feFlood flood-opacity="0" result="BackgroundImageFix"/>
<feColorMatrix in="SourceAlpha" type="matrix" values="0 0 0 0 0 0 0 0 0 0 0 0 0 0 0 0 0 0 127 0" result="hardAlpha"/>
<feOffset dy="4"/>
<feGaussianBlur stdDeviation="2"/>
<feComposite in2="hardAlpha" operator="out"/>
<feColorMatrix type="matrix" values="0 0 0 0 0 0 0 0 0 0 0 0 0 0 0 0 0 0 0.25 0"/>
<feBlend mode="normal" in2="BackgroundImageFix" result="effect1_dropShadow_61_304"/>
<feBlend mode="normal" in="SourceGraphic" in2="effect1_dropShadow_61_304" result="shape"/>
</filter>
<filter id="filter8_d_61_304" x="1075" y="234" width="598" height="528" filterUnits="userSpaceOnUse" color-interpolation-filters="sRGB">
<feFlood flood-opacity="0" result="BackgroundImageFix"/>
<feColorMatrix in="SourceAlpha" type="matrix" values="0 0 0 0 0 0 0 0 0 0 0 0 0 0 0 0 0 0 127 0" result="hardAlpha"/>
<feOffset dy="4"/>
<feGaussianBlur stdDeviation="2"/>
<feComposite in2="hardAlpha" operator="out"/>
<feColorMatrix type="matrix" values="0 0 0 0 0 0 0 0 0 0 0 0 0 0 0 0 0 0 0.25 0"/>
<feBlend mode="normal" in2="BackgroundImageFix" result="effect1_dropShadow_61_304"/>
<feBlend mode="normal" in="SourceGraphic" in2="effect1_dropShadow_61_304" result="shape"/>
</filter>
<filter id="filter9_d_61_304" x="2925" y="206" width="598" height="528" filterUnits="userSpaceOnUse" color-interpolation-filters="sRGB">
<feFlood flood-opacity="0" result="BackgroundImageFix"/>
<feColorMatrix in="SourceAlpha" type="matrix" values="0 0 0 0 0 0 0 0 0 0 0 0 0 0 0 0 0 0 127 0" result="hardAlpha"/>
<feOffset dy="4"/>
<feGaussianBlur stdDeviation="2"/>
<feComposite in2="hardAlpha" operator="out"/>
<feColorMatrix type="matrix" values="0 0 0 0 0 0 0 0 0 0 0 0 0 0 0 0 0 0 0.25 0"/>
<feBlend mode="normal" in2="BackgroundImageFix" result="effect1_dropShadow_61_304"/>
<feBlend mode="normal" in="SourceGraphic" in2="effect1_dropShadow_61_304" result="shape"/>
</filter>
<filter id="filter10_d_61_304" x="3359" y="802" width="107" height="187" filterUnits="userSpaceOnUse" color-interpolation-filters="sRGB">
<feFlood flood-opacity="0" result="BackgroundImageFix"/>
<feColorMatrix in="SourceAlpha" type="matrix" values="0 0 0 0 0 0 0 0 0 0 0 0 0 0 0 0 0 0 127 0" result="hardAlpha"/>
<feOffset dy="4"/>
<feGaussianBlur stdDeviation="2"/>
<feComposite in2="hardAlpha" operator="out"/>
<feColorMatrix type="matrix" values="0 0 0 0 0 0 0 0 0 0 0 0 0 0 0 0 0 0 0.25 0"/>
<feBlend mode="normal" in2="BackgroundImageFix" result="effect1_dropShadow_61_304"/>
<feBlend mode="normal" in="SourceGraphic" in2="effect1_dropShadow_61_304" result="shape"/>
</filter>
</defs>
</svg>
