<svg width="100" height="100" viewBox="0 0 100 100" fill="none" xmlns="http://www.w3.org/2000/svg">
<path d="M90.2344 17.207C90.1758 16.7187 90.1172 16.2305 89.9609 15.7812C89.8828 15.5664 89.8438 15.4687 89.7852 15.3906C89.7656 15.3711 89.7656 15.3515 89.7461 15.3515C89.6289 15.2734 89.5508 15.1953 89.4727 15.1172H81.582C81.3672 15.1172 81.1914 15.0586 81.0352 14.9805C80.4297 15.2539 79.5508 14.9805 79.4531 14.1211C79.1016 11.0937 77.4805 8.43748 74.1016 8.45702C71.25 8.47655 68.1641 10.4687 67.9297 13.418C68.1836 13.5547 68.3789 13.7695 68.457 14.0625C68.7109 15.1758 67.3438 15.8594 66.6992 15.2734C66.5625 15.2539 66.4453 15.2344 66.3086 15.2148C65.7422 15.1367 65.1563 15.0976 64.5899 15.0586C62.9883 14.9414 61.3672 14.9023 59.7656 14.8828C58.0859 14.8633 56.3867 14.8633 54.707 14.9414C54.082 14.9805 53.4375 15 52.8125 15.0781C52.7734 15.0781 52.7344 15.0976 52.6953 15.0976V28.418C52.6953 29.1211 52.1484 29.5117 51.6016 29.5312C51.5234 29.5508 51.4258 29.5703 51.3281 29.5703C48.9648 29.5703 46.4453 29.5703 44.2188 30.4883C42.2656 31.289 40.5664 33.2422 40.9961 35.5078C41.0156 35.6445 41.0547 35.7812 41.1133 35.918H80.0781C79.6484 35.039 79.4336 34.0625 79.4727 33.0469C79.5508 31.0742 80.5859 29.1797 82.2461 28.0859C84.6289 26.5234 87.3633 26.914 90.0391 27.0117C90.0977 25.0586 90.3125 23.1055 90.3516 21.1523C90.3711 19.8242 90.3711 18.5156 90.2344 17.207Z" fill="#EF4444"/>
<path d="M88.457 39.9023C86.1328 39.5508 83.5742 39.4141 81.6992 37.9102C81.0156 37.3633 80.4492 36.6602 80.0781 35.8984H41.0938C41.6406 37.4023 43.5547 38.1055 44.9805 38.4375C46.875 38.8867 48.8086 39.0234 50.7617 38.9258C51.3477 38.9062 51.6992 39.2578 51.8359 39.707C51.8945 39.8242 51.9141 39.9609 51.9141 40.1172C51.9336 42.9687 52.3828 45.8398 52.1875 48.6914C55.5273 48.6523 58.8672 48.5352 62.2266 48.5156C62.1875 47.5781 62.1484 46.6406 62.4805 45.7617C62.8711 44.7266 63.6133 43.7109 64.5703 43.1055C66.2695 41.9922 68.3984 41.582 70.4297 41.6992C74.1992 41.9141 76.9141 44.8437 77.2656 48.418C78.8477 48.0078 80.5469 48.1445 82.1875 48.1641C83.3008 48.1836 84.4336 48.1445 85.5469 48.0273C86.25 47.9492 86.9727 47.832 87.6758 47.7344C87.7734 47.7148 87.9102 47.7344 88.0469 47.7344C88.2031 47.5391 88.457 47.4219 88.7305 47.3828C88.9648 44.9219 88.5156 42.3828 88.457 39.9023Z" fill="#EF4444"/>
<path d="M43.75 15.0977C42.9883 15.0781 42.2461 15.0586 41.4844 15.0586C41.1328 15.0586 40.7617 15.0586 40.4102 15.0781C40.293 15.0781 40.1953 15.0977 40.0781 15.0977C39.9805 15.1563 39.9023 15.1953 39.7852 15.2344C39.707 17.4805 39.1602 19.7461 37.7734 21.582C36.3086 23.4961 33.9258 24.8047 31.5039 24.9023C28.7695 25 25.7031 24.2969 23.5742 22.4609C21.3672 20.5469 21.8945 18.0859 21.8555 15.5469C18.457 15.7031 15.0977 16.25 11.6797 16.1523C11.7969 21.0352 12.6172 25.8789 12.6367 30.7617C12.6367 31.0547 12.5391 31.2695 12.4023 31.4648C12.3633 31.9141 12.0508 32.3242 11.4453 32.3242C9.41407 32.3047 7.42188 32.3047 5.91797 33.8867C5.03907 34.8242 4.49219 36.0352 4.72657 37.3242C5.21485 40.0586 8.10547 40.7031 10.8008 40.9375C11.4258 40.5469 12.4219 40.7617 12.4414 41.7188C12.4609 43.9648 12.8906 46.1719 13.0078 48.418C13.5352 48.4766 14.1211 48.3984 14.5898 48.3594C15.3906 48.3008 16.1914 48.1836 16.9727 48.1641C18.3203 48.1055 19.6875 48.1445 21.0352 48.1445C21.7188 48.1445 22.1094 48.6719 22.1484 49.1992C22.168 49.3164 22.1875 49.4531 22.168 49.6094C21.9531 51.3281 21.8555 53.0859 23.2813 54.3359C24.2188 55.1562 25.3125 55.8203 26.5039 56.2305V35.918H38.8477C38.8281 35.8398 38.8086 35.7617 38.8086 35.6836C38.3984 32.7344 40.2539 29.9805 42.8516 28.75C45.2148 27.6172 47.9297 27.4609 50.5078 27.4414V15.2344C48.2813 15.0977 46.0156 15.1563 43.75 15.0977Z" fill="#84CC16"/>
<path d="M49.7852 41.1133C45.7617 41.1328 39.707 40.3711 38.8867 35.8984H26.543V56.2109C27.5391 56.5625 28.5938 56.7578 29.6484 56.7383C31.6797 56.7187 33.8281 56.1328 35.0977 54.4336C35.7422 53.5547 35.8789 52.7344 35.8398 51.6797C35.8008 50.7812 35.8008 49.9023 36.2109 49.1016C36.3867 48.75 36.6602 48.5742 36.9727 48.5352C37.2461 47.7734 38.2617 47.793 38.75 48.3398C38.7891 48.3398 38.8086 48.3398 38.8477 48.3398C38.9648 48.3398 39.0625 48.3398 39.1797 48.3398C39.4922 48.3398 39.8047 48.3203 40.0977 48.3203C41.2695 48.3008 42.4414 48.3984 43.6133 48.457C45.7617 48.5547 47.9297 48.5156 50.0781 48.5156C50.2539 46.0547 49.8828 43.5742 49.7852 41.1133Z" fill="#84CC16"/>
<path d="M90.7812 13.4571C90.7617 13.4571 90.7617 13.4375 90.7422 13.4375C90.5469 13.1641 90.2539 12.9492 89.8242 12.9492H81.4648C81.1914 11.4063 80.6641 9.90236 79.6289 8.69143C78.2617 7.08986 76.2695 6.36721 74.2188 6.30861C70.293 6.19143 66.3281 9.08205 65.8398 13.0078C64.1211 12.8516 62.3828 12.793 60.6445 12.7539C58.7305 12.7149 56.8164 12.6953 54.9023 12.7735C53.8281 12.8125 52.5195 12.7735 51.4648 13.1446C48.5938 12.9492 45.7227 13.0078 42.8516 12.9297C41.8945 12.9102 40.918 12.8711 39.9609 12.9492C39.3555 12.9883 38.6914 13.3203 38.4766 13.8281C38.0469 13.9649 37.6758 14.3164 37.6758 14.8828C37.6367 18.75 35.5664 22.461 31.3672 22.7344C29.1602 22.8711 26.7578 22.2071 25.0391 20.8203C23.3594 19.4727 24.043 16.9922 24.0234 15.0586C24.4141 14.4336 24.043 13.3203 23.0469 13.3399C18.9063 13.3594 14.7852 14.2969 10.6445 13.9453C9.58985 13.8477 9.10157 15.0977 9.57032 15.7227C9.62891 20.5469 10.4297 25.3125 10.5273 30.1367C9.55079 30.1367 8.61328 30.1563 7.63672 30.4102C6.58203 30.6836 5.48828 31.4063 4.6875 32.1289C3.28125 33.3985 2.5 35.1758 2.59766 37.0703C2.69532 39.0039 3.90625 40.586 5.46875 41.6211C6.89453 42.5586 8.65235 42.8516 10.3906 43.0078C10.5273 45.0977 10.8984 47.168 10.9375 49.2774C10.9375 49.6485 11.2109 50 11.5234 50.1563C12.9883 50.8985 15 50.4688 16.5625 50.3125C17.7148 50.2149 18.8672 50.2344 20.0195 50.2539C19.8828 52.1094 20.0781 53.9063 21.4063 55.3906C22.7344 56.8946 24.6094 57.9102 26.5625 58.4571V56.2305C25.3906 55.8203 24.2773 55.1563 23.3398 54.336C21.9336 53.086 22.0117 51.3281 22.2266 49.6094C22.2461 49.4531 22.2461 49.3164 22.207 49.1992C22.168 48.6719 21.7773 48.1446 21.0938 48.1446C19.7461 48.1446 18.3789 48.1055 17.0313 48.1641C16.2305 48.2031 15.4297 48.3008 14.6484 48.3594C14.1797 48.3985 13.5938 48.4766 13.0664 48.418C12.9688 46.1719 12.5195 43.9649 12.5 41.7188C12.4805 40.7813 11.4844 40.5469 10.8594 40.9375C8.16407 40.7031 5.27344 40.0781 4.78516 37.3242C4.55078 36.0156 5.09766 34.8047 5.97657 33.8867C7.48047 32.3047 9.47266 32.3047 11.5039 32.3242C12.1094 32.3242 12.4023 31.9336 12.4609 31.4649C12.5977 31.2891 12.6953 31.0547 12.6953 30.7617C12.6758 25.8789 11.8555 21.0352 11.7383 16.1524C15.1367 16.2305 18.5156 15.6836 21.9141 15.5469C21.9531 18.1055 21.4258 20.5469 23.6328 22.461C25.7617 24.2969 28.8086 25 31.5625 24.9024C34.0039 24.8242 36.3867 23.5156 37.832 21.5821C39.2188 19.7656 39.7461 17.5 39.8438 15.2344C39.9414 15.1953 40.0391 15.1563 40.1367 15.0977C40.2539 15.0781 40.3516 15.0781 40.4688 15.0781C40.8203 15.0586 41.1914 15.0586 41.543 15.0586C42.3047 15.0586 43.0469 15.0781 43.8086 15.0977C46.0742 15.1563 48.3594 15.0977 50.625 15.2344V27.4219C48.0274 27.4414 45.332 27.5977 42.9688 28.7305C40.3711 29.961 38.5156 32.7149 38.9258 35.6641C38.9453 35.7422 38.9453 35.8203 38.9648 35.8985H41.1719C41.1328 35.7617 41.0742 35.625 41.0547 35.4883C40.625 33.2227 42.3242 31.2891 44.2773 30.4688C46.4844 29.5508 49.0234 29.5508 51.3867 29.5508C51.4844 29.5508 51.582 29.5313 51.6602 29.5117C52.207 29.4727 52.7539 29.1016 52.7539 28.3985V15.0781C52.793 15.0781 52.832 15.0586 52.8711 15.0586C53.4961 14.9805 54.1406 14.9414 54.7656 14.9219C56.4453 14.8438 58.1445 14.8438 59.8242 14.8633C61.4258 14.8828 63.0469 14.9414 64.6484 15.0391C65.2148 15.0781 65.8008 15.1367 66.3672 15.1953C66.5039 15.2149 66.6211 15.2344 66.7578 15.2539C67.3828 15.8399 68.75 15.1563 68.5156 14.043C68.457 13.75 68.2617 13.5352 67.9883 13.3985C68.2422 10.4492 71.3281 8.45705 74.1602 8.43752C77.5391 8.41799 79.1602 11.0742 79.5117 14.1016C79.6094 14.961 80.4883 15.2149 81.0938 14.961C81.25 15.0391 81.4258 15.0977 81.6406 15.0977H89.5313C89.6094 15.1953 89.6875 15.2735 89.8047 15.3321C89.8047 15.3321 89.8242 15.3516 89.8438 15.3711C89.9023 15.4492 89.9414 15.5469 90.0195 15.7617C90.1758 16.2305 90.2344 16.7188 90.293 17.1875C90.4492 18.4961 90.4297 19.8047 90.4102 21.1133C90.3711 23.0664 90.1562 25.0196 90.0977 26.9727C87.4219 26.875 84.6875 26.4844 82.3047 28.0469C80.6445 29.1406 79.6094 31.0352 79.5313 33.0078C79.4922 34.0039 79.707 35 80.1367 35.8789H82.793C82.0898 35.2344 81.6602 34.336 81.6602 33.0469C81.6602 31.6602 82.5781 30.4297 83.6914 29.7071C85.7422 28.3594 88.75 29.1211 91.0352 29.1602C91.5234 29.1602 91.8164 28.9063 91.9336 28.5547C92.1094 28.3789 92.207 28.125 92.2266 27.8125C92.2461 25.3125 92.5391 22.8125 92.5781 20.3125C92.5195 18.3399 92.8125 14.6289 90.7812 13.4571Z" fill="#4C5764"/>
<path d="M90.5859 39.6094C90.918 39.043 90.7617 38.1445 89.9023 37.9687C87.6563 37.5 84.3945 37.4609 82.6953 35.8984H80.0391C80.4297 36.6797 80.9766 37.3633 81.6602 37.9102C83.5352 39.4141 86.0938 39.5313 88.418 39.9023C88.4766 42.3828 88.9453 44.9219 88.6914 47.3828C88.418 47.4219 88.1641 47.5391 88.0078 47.7344C87.8711 47.7148 87.7344 47.7148 87.6367 47.7344C86.9336 47.832 86.2305 47.9492 85.5078 48.0273C84.3945 48.1641 83.2617 48.1836 82.1484 48.1641C80.5078 48.1445 78.8086 48.0078 77.2266 48.418C76.875 44.8242 74.1406 41.9141 70.3906 41.6992C68.3789 41.582 66.25 41.9922 64.5313 43.1055C63.5938 43.7109 62.832 44.707 62.4414 45.7617C62.1094 46.6602 62.1289 47.5977 62.1875 48.5156C58.8477 48.5352 55.5078 48.6523 52.1484 48.6914C52.3438 45.8398 51.8945 42.9687 51.875 40.1172C51.875 39.9609 51.8359 39.8242 51.7969 39.707C51.6797 39.2773 51.3086 38.9062 50.7227 38.9258C48.7891 39.0039 46.8359 38.8867 44.9414 38.4375C43.5156 38.1055 41.6016 37.4023 41.0547 35.8984H38.8477C39.668 40.3711 45.7227 41.1328 49.7461 41.1133C49.8437 43.5742 50.1953 46.0547 50.0195 48.5156C47.8711 48.5156 45.7031 48.5547 43.5547 48.457C42.3828 48.3984 41.2109 48.3008 40.0391 48.3203C39.7266 48.3203 39.4141 48.3398 39.1211 48.3398C39.0039 48.3398 38.9063 48.3398 38.7891 48.3398C38.75 48.3398 38.7305 48.3398 38.6914 48.3398C38.2031 47.793 37.1875 47.7734 36.9141 48.5352C36.6211 48.5742 36.3281 48.75 36.1523 49.1016C35.7422 49.9219 35.7422 50.8008 35.7812 51.6797C35.8203 52.7344 35.6836 53.5547 35.0391 54.4336C33.7695 56.1328 31.6211 56.7187 29.5898 56.7383C28.5156 56.7383 27.4805 56.5625 26.4844 56.2109V58.4375C27.2461 58.6523 28.0469 58.7891 28.8086 58.8477C31.3672 59.043 34.0039 58.418 35.918 56.6406C36.7773 55.8398 37.4609 54.8242 37.7734 53.6914C38.0469 52.6562 37.6563 51.3672 37.9492 50.3711C38.9258 50.6445 40.293 50.4492 41.0742 50.4687C44.0625 50.5273 47.0313 50.6445 50.0195 50.6445C50.1953 50.7617 50.4102 50.8398 50.6641 50.8398C51.1914 50.8398 51.7188 50.8398 52.2461 50.8398C52.3047 51.0547 52.4219 51.25 52.5781 51.4063C52.5586 53.8867 52.2852 56.1719 49.9219 57.6563C47.6172 59.1211 44.3555 58.125 41.9336 57.5586C41.6016 57.4805 41.3477 57.5391 41.1328 57.6953C41.0156 57.7148 40.8984 57.7344 40.7813 57.793C36.7578 59.7266 32.9687 62.0703 28.8672 63.8477C27.9492 64.2383 28.0664 65.4102 28.6719 65.8203C28.8867 66.6602 29.3164 67.5 29.6289 68.2422C30.3516 69.9414 31.1523 71.6016 31.9727 73.2422C32.7148 74.7461 33.4766 76.25 34.2969 77.7344C34.5313 78.1641 34.8047 78.7695 35.1758 79.1797V79.1992C35.1172 80.5859 37.2656 80.4102 37.3242 79.043C37.3438 78.4375 38.2031 78.0078 38.6523 77.7734C39.5703 77.2852 40.6836 77.0117 41.6992 76.8164C43.4766 76.4453 45.7422 75.918 47.5 76.6016C49.4336 77.3633 50.2734 79.4336 49.8242 81.3867C49.5703 82.4414 48.8281 83.3398 47.9883 83.9844C46.9727 84.7656 45.4297 85.7422 44.082 85.4883C43.8281 85.4492 43.6133 85.4687 43.4375 85.5469C42.7734 85.4102 42.0508 85.7813 42.207 86.6211C42.5586 88.3789 43.75 89.6094 44.7266 91.0547C45.9375 92.793 46.9336 94.707 47.7344 96.6602C47.8906 97.0508 48.2031 97.2656 48.5352 97.3242C48.5938 97.4023 48.6523 97.4805 48.75 97.5781C48.8477 97.6758 48.9844 97.7734 49.1211 97.832C49.375 97.9492 49.5313 97.9492 49.8047 97.9687C49.9805 97.9687 50.1758 97.8906 50.3516 97.7734C50.3711 97.7734 50.3906 97.7734 50.3906 97.7734C52.7344 97.6953 54.6484 96.2695 56.6797 95.293C58.7109 94.2969 61.0547 93.5742 62.8125 92.1289C63.1641 91.8359 63.2813 91.4258 63.2031 91.0742C63.2227 90.8008 63.1445 90.4883 62.9102 90.2344C61.2695 88.3789 59.8242 84.0234 62.2266 82.207C63.5938 81.1719 65.7422 81.2695 67.3242 81.582C69.3945 81.9922 70.4102 83.6914 71.6602 85.1953C72.0508 85.6641 72.6367 85.6836 73.0664 85.4688C73.6328 85.9375 74.4727 85.5469 74.707 84.9219C74.7461 84.8828 74.8438 84.8242 75.0195 84.6875C75.3516 84.4531 75.7031 84.2578 76.0547 84.043C76.6797 83.6914 77.2852 83.3398 77.9102 82.9687C79.082 82.2656 80.293 81.6211 81.4648 80.918C82.3633 80.3711 84.0625 79.6484 84.1406 78.4766C84.2383 77.3828 83.5742 76.5625 82.793 75.8789C81.7773 74.9805 81.0547 73.8867 80.3906 72.7148C79.3945 70.9766 78.6328 69.0039 77.3438 67.4414C78.0859 66.9336 79.1992 66.7578 79.9609 66.3477C81.2695 65.625 82.3047 63.9258 82.9102 62.6172C84.1211 60.0195 83.418 57.3633 81.3086 55.5078C79.4727 53.8867 76.8945 53.2422 74.4922 53.2031C73.2617 53.1836 72.168 53.457 71.1523 54.1406C70.4297 54.6094 69.7656 55.4102 68.9453 55.7813C68.7305 55.1172 68.3203 54.5703 67.9492 53.9258C67.5781 53.2617 67.3047 52.5586 66.9922 51.875C66.4063 50.6055 65.625 48.9258 64.2383 48.3594C64.2188 47.832 64.1992 47.3242 64.2969 46.7969C64.4531 45.9375 65.1758 45.2344 65.8789 44.7852C67.1094 43.9844 68.7891 43.8477 70.2148 43.8672C73.2227 43.9258 74.9805 46.582 75.0391 49.3359V49.7266C75.0391 50.3711 75.4883 50.6836 75.9766 50.6836C76.2891 50.8789 76.6992 50.9375 77.1094 50.7227C78.0273 50.2539 79.2188 50.3125 80.1953 50.3125C81.4063 50.3125 82.5977 50.4102 83.8086 50.3125C84.5117 50.2539 85.2344 50.2539 85.9375 50.1758C86.6211 50.0977 87.3438 49.8828 88.0469 49.9805C88.7891 50.0977 89.4531 49.8633 89.7461 49.3164C90.1758 49.2969 90.5664 49.0234 90.6641 48.4766C91.1914 45.5078 90.6445 42.5391 90.5859 39.6094ZM65.293 52.9883C65.5664 53.5937 65.8398 54.1992 66.1328 54.8047C66.4648 55.4297 67.0313 56.0156 67.0898 56.7187C67.1094 57.0117 67.2266 57.2266 67.3828 57.3828C67.5195 57.793 67.8906 58.125 68.4375 58.0859C69.4727 58.0273 70.3516 57.5391 71.1523 56.9141C71.9336 56.3086 72.6953 55.4883 73.7109 55.3516C75.7031 55.0781 77.832 55.6445 79.5117 56.6992C80.2734 57.1875 80.918 57.9297 81.2695 58.75C81.7773 59.9414 81.3867 61.0937 80.8203 62.1875C80.2734 63.2422 79.4141 64.3359 78.2813 64.7852C77.2266 65.1953 76.0352 65.4883 75.3516 66.4648C75.332 66.5039 75.293 66.543 75.2734 66.582C74.8633 66.9727 74.707 67.6758 75.2539 68.1641C76.7188 69.4922 77.4609 71.5234 78.3984 73.2227C78.9844 74.2969 79.5898 75.293 80.332 76.2695C80.625 76.6406 80.9375 76.9531 81.3086 77.2656C81.5039 77.4414 81.8945 77.6953 82.0703 77.9688C80.1172 79.375 77.9492 80.5273 75.8398 81.6992C75.1758 82.0703 73.8477 82.6562 73.1641 83.457C72.5195 82.6367 71.9141 81.7969 71.1523 81.0742C70.2344 80.2148 69.043 79.6875 67.8516 79.4141C65.625 78.8867 62.832 79.082 60.957 80.5078C57.7344 82.9297 58.8281 87.8711 60.8984 90.8789C59.4727 91.7773 57.793 92.3242 56.3086 93.0859C54.4531 94.043 52.4805 95.5078 50.332 95.5859C50.2539 95.5859 50.1758 95.6055 50.0977 95.625C49.9609 95.5273 49.8242 95.4492 49.6484 95.4102C48.9844 93.8672 48.2031 92.4023 47.3437 90.957C46.8945 90.2148 46.4063 89.5117 45.8984 88.8281C45.6055 88.4375 45.2734 88.0469 44.9805 87.6172C46.3672 87.5 47.7148 86.7773 48.8672 86.0352C50.1953 85.1563 51.2695 83.9258 51.8164 82.4414C52.8516 79.5703 51.6992 76.4844 49.1016 74.9219C46.7773 73.5156 43.6328 74.1797 41.1328 74.7266C39.5508 75.0781 37.5586 75.625 36.3477 76.7969C36.1719 76.4844 35.9961 76.1719 35.8203 75.8594C35.0977 74.5117 34.3945 73.1445 33.7305 71.7578C33.0078 70.293 32.3242 68.8281 31.6797 67.3242C31.4453 66.7773 31.2305 66.2305 31.0156 65.6641C30.9766 65.5273 30.9375 65.4102 30.8984 65.2734C34.5312 63.5742 37.9687 61.5039 41.582 59.7656C41.6602 59.7266 41.7187 59.6875 41.7773 59.6484C44.9219 60.3906 48.2422 61.0547 51.2109 59.375C54.4531 57.5391 54.7852 54.0625 54.8047 50.7422C57.6953 50.6836 60.5664 50.6055 63.457 50.5859C63.6523 50.5859 63.8281 50.5469 63.9648 50.4687C64.5703 51.0937 65.0391 52.4023 65.293 52.9883Z" fill="#4C5764"/>
</svg>
