<svg width="100" height="100" viewBox="0 0 100 100" fill="none" xmlns="http://www.w3.org/2000/svg">
<g filter="url(#filter0_d_7_205)">
<path d="M91.6667 23.1458V76.8541C91.6667 79.5 90.0208 81.8541 87.5417 82.7291L69.1667 91.3541L70.8333 68.75V31.25L69.1667 8.64581L87.5417 17.2708C90.0208 18.1458 91.6667 20.5 91.6667 23.1458Z" fill="#29B6F6"/>
<path d="M18.75 70.6167L70.8333 31.25V11.1521C70.8333 8.65624 67.7458 7.48957 66.0938 9.36041L9.70417 60.9146C7.82917 62.6437 7.93542 65.6375 9.92709 67.2312C9.92709 67.2312 12.6854 69.7979 13.6833 70.5104C15.2167 71.6042 17.2313 71.7292 18.75 70.6167Z" fill="#0277BD"/>
<path d="M18.75 29.3834L70.8333 68.75V88.8479C70.8333 91.3438 67.7458 92.5104 66.0938 90.6396L9.70417 39.0854C7.82917 37.3563 7.93542 34.3625 9.92709 32.7688C9.92709 32.7688 12.6854 30.2021 13.6833 29.4896C15.2167 28.3959 17.2313 28.2709 18.75 29.3834Z" fill="#0288D1"/>
</g>
<defs>
<filter id="filter0_d_7_205" x="-4" y="0" width="108" height="108" filterUnits="userSpaceOnUse" color-interpolation-filters="sRGB">
<feFlood flood-opacity="0" result="BackgroundImageFix"/>
<feColorMatrix in="SourceAlpha" type="matrix" values="0 0 0 0 0 0 0 0 0 0 0 0 0 0 0 0 0 0 127 0" result="hardAlpha"/>
<feOffset dy="4"/>
<feGaussianBlur stdDeviation="2"/>
<feComposite in2="hardAlpha" operator="out"/>
<feColorMatrix type="matrix" values="0 0 0 0 0 0 0 0 0 0 0 0 0 0 0 0 0 0 0.25 0"/>
<feBlend mode="normal" in2="BackgroundImageFix" result="effect1_dropShadow_7_205"/>
<feBlend mode="normal" in="SourceGraphic" in2="effect1_dropShadow_7_205" result="shape"/>
</filter>
</defs>
</svg>
