<svg width="236" height="235" viewBox="0 0 236 235" fill="none" xmlns="http://www.w3.org/2000/svg">
<path fill-rule="evenodd" clip-rule="evenodd" d="M117.874 12.4054V61.0577C86.5011 61.0577 61.0681 86.4908 61.0681 117.864H12.4157C12.4157 59.6208 59.6312 12.4054 117.874 12.4054Z" fill="#474ABE"/>
<path fill-rule="evenodd" clip-rule="evenodd" d="M38.294 80.225L72.2559 114.783C73.0301 115.571 73.0191 116.837 72.2313 117.611C71.8573 117.979 71.3538 118.185 70.8294 118.185L2.90556 118.185C1.80099 118.185 0.905563 117.289 0.905563 116.185C0.905563 115.66 1.11154 115.157 1.47911 114.783L35.441 80.225C36.2153 79.4372 37.4815 79.4262 38.2694 80.2004C38.2776 80.2086 38.2858 80.2168 38.294 80.225Z" fill="#5392FF"/>
<path fill-rule="evenodd" clip-rule="evenodd" d="M118 223.372C59.7568 223.372 12.5413 176.156 12.5413 117.913L61.1937 117.913C61.1937 149.286 86.6267 174.719 118 174.719L118 223.372V223.372Z" fill="#5392FF"/>
<path fill-rule="evenodd" clip-rule="evenodd" d="M80.7302 197.57L115.288 163.608C116.076 162.834 117.342 162.845 118.116 163.633C118.484 164.007 118.69 164.51 118.69 165.035L118.69 232.958C118.69 234.063 117.794 234.958 116.69 234.958C116.165 234.958 115.662 234.753 115.288 234.385L80.7302 200.423C79.9424 199.649 79.9314 198.383 80.7056 197.595C80.7137 197.586 80.7219 197.578 80.7302 197.57Z" fill="#92BAFF"/>
<path fill-rule="evenodd" clip-rule="evenodd" d="M223.877 117.864C223.877 176.107 176.661 223.323 118.418 223.323V174.67C149.791 174.67 175.224 149.237 175.224 117.864H223.877V117.864Z" fill="#92BAFF"/>
<path fill-rule="evenodd" clip-rule="evenodd" d="M197.716 155.688L163.754 121.13C162.98 120.342 162.991 119.076 163.779 118.302C164.153 117.934 164.656 117.728 165.181 117.728L233.105 117.728C234.209 117.728 235.105 118.624 235.105 119.728C235.105 120.253 234.899 120.756 234.531 121.13L200.569 155.688C199.795 156.476 198.529 156.487 197.741 155.712C197.733 155.704 197.724 155.696 197.716 155.688Z" fill="#20214F"/>
<path fill-rule="evenodd" clip-rule="evenodd" d="M118.01 12.5413C176.254 12.5413 223.469 59.7568 223.469 118L174.817 118C174.817 86.6267 149.384 61.1936 118.01 61.1936L118.01 12.5413V12.5413Z" fill="#20214F"/>
<path fill-rule="evenodd" clip-rule="evenodd" d="M155.562 38.158L121.004 72.12C120.217 72.8942 118.95 72.8832 118.176 72.0954C117.809 71.7214 117.603 71.2179 117.603 70.6935L117.603 2.76965C117.603 1.66508 118.498 0.769653 119.603 0.769653C120.127 0.769653 120.63 0.975618 121.004 1.34319L155.562 35.3051C156.35 36.0793 156.361 37.3456 155.587 38.1334C155.579 38.1417 155.571 38.1499 155.562 38.158Z" fill="#474ABE"/>
<path d="M87.9078 124.54H85.6743L92.1342 106.947H94.3333L100.793 124.54H98.5597L93.3025 109.73H93.165L87.9078 124.54ZM88.7324 117.668H97.7351V119.558H88.7324V117.668ZM114.733 112.445C114.544 111.867 114.295 111.348 113.986 110.89C113.682 110.426 113.319 110.031 112.895 109.705C112.477 109.378 112.001 109.129 111.469 108.957C110.936 108.786 110.352 108.7 109.716 108.7C108.674 108.7 107.726 108.969 106.873 109.507C106.02 110.045 105.341 110.839 104.837 111.887C104.333 112.935 104.081 114.22 104.081 115.744C104.081 117.267 104.336 118.553 104.846 119.601C105.355 120.649 106.045 121.442 106.916 121.98C107.786 122.519 108.766 122.788 109.854 122.788C110.862 122.788 111.749 122.573 112.517 122.143C113.29 121.708 113.891 121.095 114.321 120.305C114.756 119.509 114.974 118.573 114.974 117.496L115.627 117.634H110.335V115.744H117.035V117.634C117.035 119.082 116.726 120.342 116.108 121.413C115.495 122.484 114.647 123.315 113.565 123.904C112.488 124.489 111.251 124.781 109.854 124.781C108.296 124.781 106.927 124.414 105.748 123.681C104.574 122.948 103.657 121.906 102.999 120.554C102.346 119.203 102.019 117.599 102.019 115.744C102.019 114.352 102.206 113.101 102.578 111.99C102.956 110.873 103.488 109.922 104.176 109.138C104.863 108.353 105.676 107.752 106.615 107.334C107.554 106.916 108.588 106.707 109.716 106.707C110.644 106.707 111.509 106.847 112.311 107.128C113.118 107.403 113.837 107.795 114.467 108.305C115.102 108.808 115.632 109.413 116.056 110.117C116.48 110.816 116.772 111.592 116.932 112.445H114.733ZM122.814 106.947V124.54H120.684V106.947H122.814ZM127.086 124.54V106.947H129.216V122.65H137.394V124.54H127.086ZM140.693 124.54V106.947H151.311V108.837H142.823V114.782H150.761V116.671H142.823V122.65H151.448V124.54H140.693Z" fill="#20214F"/>
<path d="M180.979 91.4066V81.5229H184.319C185.094 81.5229 185.728 81.6628 186.22 81.9428C186.716 82.2194 187.082 82.5943 187.32 83.0672C187.559 83.5402 187.678 84.0678 187.678 84.6501C187.678 85.2325 187.559 85.7617 187.32 86.2379C187.086 86.7141 186.722 87.0937 186.23 87.3768C185.737 87.6567 185.107 87.7967 184.338 87.7967H181.944V86.735H184.299C184.83 86.735 185.256 86.6433 185.578 86.4599C185.9 86.2765 186.133 86.0288 186.278 85.7167C186.426 85.4014 186.5 85.0459 186.5 84.6501C186.5 84.2544 186.426 83.9005 186.278 83.5884C186.133 83.2763 185.898 83.0318 185.573 82.8549C185.248 82.6747 184.817 82.5846 184.28 82.5846H182.176V91.4066H180.979ZM190.59 81.5229V91.4066H189.451V81.5229H190.59ZM194.857 91.5803C194.388 91.5803 193.961 91.4918 193.579 91.3149C193.196 91.1347 192.892 90.8757 192.666 90.5379C192.441 90.1968 192.329 89.785 192.329 89.3024C192.329 88.8777 192.412 88.5335 192.58 88.2697C192.747 88.0026 192.97 87.7935 193.25 87.6423C193.53 87.4911 193.839 87.3784 194.177 87.3044C194.518 87.2272 194.861 87.1661 195.205 87.1211C195.655 87.0631 196.021 87.0197 196.3 86.9908C196.584 86.9586 196.789 86.9055 196.918 86.8315C197.05 86.7575 197.116 86.6288 197.116 86.4454V86.4068C197.116 85.9306 196.986 85.5607 196.725 85.2968C196.468 85.033 196.077 84.9011 195.552 84.9011C195.009 84.9011 194.582 85.0201 194.273 85.2582C193.965 85.4963 193.747 85.7505 193.622 86.0207L192.541 85.6347C192.734 85.1842 192.991 84.8335 193.313 84.5826C193.638 84.3284 193.992 84.1515 194.375 84.0517C194.761 83.9488 195.141 83.8973 195.514 83.8973C195.752 83.8973 196.025 83.9262 196.334 83.9842C196.646 84.0389 196.947 84.1531 197.237 84.3268C197.529 84.5005 197.772 84.7628 197.965 85.1134C198.158 85.4641 198.255 85.9339 198.255 86.5226V91.4066H197.116V90.4027H197.058C196.981 90.5636 196.852 90.7357 196.672 90.9191C196.492 91.1025 196.252 91.2586 195.953 91.3873C195.654 91.5159 195.289 91.5803 194.857 91.5803ZM195.031 90.5572C195.482 90.5572 195.861 90.4687 196.17 90.2917C196.482 90.1148 196.717 89.8864 196.875 89.6065C197.036 89.3265 197.116 89.0322 197.116 88.7233V87.6809C197.068 87.7388 196.962 87.7919 196.797 87.8401C196.637 87.8852 196.45 87.9254 196.238 87.9608C196.029 87.993 195.824 88.0219 195.625 88.0477C195.429 88.0702 195.269 88.0895 195.147 88.1056C194.851 88.1442 194.574 88.2069 194.317 88.2938C194.063 88.3774 193.857 88.5045 193.699 88.675C193.545 88.8423 193.468 89.0708 193.468 89.3603C193.468 89.7561 193.614 90.0553 193.907 90.258C194.203 90.4574 194.578 90.5572 195.031 90.5572ZM201.473 86.9473V91.4066H200.334V83.9938H201.434V85.1521H201.531C201.704 84.7756 201.968 84.4732 202.322 84.2448C202.676 84.0131 203.133 83.8973 203.693 83.8973C204.195 83.8973 204.634 84.0002 205.01 84.2062C205.387 84.4088 205.679 84.7177 205.888 85.1327C206.098 85.5446 206.202 86.0658 206.202 86.6964V91.4066H205.063V86.7736C205.063 86.1913 204.912 85.7376 204.61 85.4127C204.307 85.0845 203.892 84.9204 203.364 84.9204C203.001 84.9204 202.676 84.9992 202.39 85.1569C202.106 85.3145 201.883 85.5446 201.719 85.847C201.555 86.1494 201.473 86.5162 201.473 86.9473Z" fill="#20214F"/>
</svg>
