<svg width="100" height="104" viewBox="0 0 100 104" fill="none" xmlns="http://www.w3.org/2000/svg">
<g filter="url(#filter0_d_7_235)">
<path d="M8.33331 47.9167C8.33331 24.9042 26.9875 6.25 50 6.25C73.0125 6.25 91.6666 24.9042 91.6666 47.9167L50 52.0833L8.33331 47.9167Z" fill="#00C853"/>
<path d="M91.6666 47.9167C91.6666 70.9292 73.0125 89.5834 50 89.5834C26.9875 89.5834 8.33331 70.9292 8.33331 47.9167H91.6666Z" fill="#00E676"/>
<path d="M81.8541 88.2084V94.7917C81.8541 95.1875 81.6458 95.5209 81.3333 95.6875C81.0416 95.875 80.6458 95.8959 80.2916 95.6875L74.625 92.375L64.875 75.3958L60.7083 68.1667L52.8958 54.5834L59 48.4792L67.3125 62.9375L71.625 70.4375L81.8541 88.2084Z" fill="#C2EAFD"/>
<path d="M65.0646 59.0312C63.3688 61.325 61.1708 63.2208 58.6229 64.5479L66.9375 79.0083C69.4063 77.6583 71.6708 75.9958 73.7396 74.1208L65.0646 59.0312Z" fill="#9ADDFB"/>
<path d="M81.25 47.9167C81.25 56.75 77.5625 64.75 71.625 70.4375C69.625 72.375 67.3541 74.0417 64.875 75.3958C60.4583 77.7917 55.3958 79.1667 50 79.1667C44.7291 79.1667 39.6666 77.875 35.125 75.3958L25.375 92.375L19.7083 95.6875C19.3541 95.8959 18.9583 95.875 18.6666 95.6875C18.3541 95.5209 18.1458 95.1875 18.1458 94.7917V88.2084L41 48.4792L47.1041 54.5834L39.2916 68.1875C42.5625 69.9167 46.2083 70.8334 50 70.8334C53.875 70.8334 57.5208 69.875 60.7083 68.1667C63.2291 66.8542 65.4583 65.0625 67.3125 62.9375C70.8125 58.8959 72.9166 53.6667 72.9166 47.9167H81.25Z" fill="#C2EAFD"/>
<path d="M59.375 27.0833H54.1667V20.8333H45.8333V27.0833H40.625C38.9 27.0833 37.5 28.4833 37.5 30.2083V47.9166L47.775 58.1916C49.0042 59.4208 50.9958 59.4208 52.2229 58.1916L62.5 47.9166V30.2083C62.5 28.4833 61.1 27.0833 59.375 27.0833ZM50 45.8333C47.1229 45.8333 44.7917 43.5021 44.7917 40.625C44.7917 37.7479 47.1229 35.4166 50 35.4166C52.8771 35.4166 55.2083 37.7479 55.2083 40.625C55.2083 43.5021 52.8771 45.8333 50 45.8333Z" fill="#37474F"/>
</g>
<defs>
<filter id="filter0_d_7_235" x="-4" y="0" width="108" height="108" filterUnits="userSpaceOnUse" color-interpolation-filters="sRGB">
<feFlood flood-opacity="0" result="BackgroundImageFix"/>
<feColorMatrix in="SourceAlpha" type="matrix" values="0 0 0 0 0 0 0 0 0 0 0 0 0 0 0 0 0 0 127 0" result="hardAlpha"/>
<feOffset dy="4"/>
<feGaussianBlur stdDeviation="2"/>
<feComposite in2="hardAlpha" operator="out"/>
<feColorMatrix type="matrix" values="0 0 0 0 0 0 0 0 0 0 0 0 0 0 0 0 0 0 0.25 0"/>
<feBlend mode="normal" in2="BackgroundImageFix" result="effect1_dropShadow_7_235"/>
<feBlend mode="normal" in="SourceGraphic" in2="effect1_dropShadow_7_235" result="shape"/>
</filter>
</defs>
</svg>
