<svg width="100" height="100" viewBox="0 0 100 100" fill="none" xmlns="http://www.w3.org/2000/svg">
<g filter="url(#filter0_d_7_231)">
<path d="M25 60.4167C25 62.7083 23.125 64.5833 20.8333 64.5833C18.5417 64.5833 16.6667 62.7083 16.6667 60.4167V41.6667C16.6667 39.375 18.5417 37.5 20.8333 37.5C23.125 37.5 25 39.375 25 41.6667V60.4167ZM83.3333 60.4167C83.3333 62.7083 81.4583 64.5833 79.1667 64.5833C76.875 64.5833 75 62.7083 75 60.4167V41.6667C75 39.375 76.875 37.5 79.1667 37.5C81.4583 37.5 83.3333 39.375 83.3333 41.6667V60.4167ZM45.8333 83.3333C45.8333 85.625 43.9583 87.5 41.6667 87.5C39.375 87.5 37.5 85.625 37.5 83.3333V64.5833C37.5 62.2917 39.375 60.4167 41.6667 60.4167C43.9583 60.4167 45.8333 62.2917 45.8333 64.5833V83.3333ZM62.5 83.3333C62.5 85.625 60.625 87.5 58.3333 87.5C56.0417 87.5 54.1667 85.625 54.1667 83.3333V64.5833C54.1667 62.2917 56.0417 60.4167 58.3333 60.4167C60.625 60.4167 62.5 62.2917 62.5 64.5833V83.3333Z" fill="#7CB342"/>
<path d="M29.1667 37.5V68.75C29.1667 71.0417 31.0417 72.9167 33.3333 72.9167H66.6667C68.9583 72.9167 70.8333 71.0417 70.8333 68.75V37.5H29.1667ZM50 16.6667C37.5 16.6667 29.7917 24.1667 29.1667 33.3334H70.8333C70.2083 24.1667 62.5 16.6667 50 16.6667ZM41.6667 28.3334C40.4167 28.3334 39.5833 27.5 39.5833 26.25C39.5833 25 40.4167 24.1667 41.6667 24.1667C42.9167 24.1667 43.75 25 43.75 26.25C43.75 27.2917 42.9167 28.3334 41.6667 28.3334ZM58.3333 28.3334C57.0833 28.3334 56.25 27.5 56.25 26.25C56.25 25 57.0833 24.1667 58.3333 24.1667C59.5833 24.1667 60.4167 25 60.4167 26.25C60.4167 27.2917 59.5833 28.3334 58.3333 28.3334Z" fill="#7CB342"/>
<path d="M58.9583 21.875C58.5416 21.875 58.125 21.6666 57.7083 21.4583C56.6666 20.8333 56.4583 19.5833 57.0833 18.5416L60.625 13.3333C61.25 12.2916 62.5 12.0833 63.5416 12.7083C64.5833 13.3333 64.7916 14.5833 64.1666 15.625L60.625 20.8333C60.4166 21.4583 59.7916 21.875 58.9583 21.875ZM40.2083 21.0416C39.5833 21.0416 38.75 20.625 38.5416 20L35.8333 15.625C35.2083 14.5833 35.4166 13.3333 36.4583 12.7083C37.5 12.0833 38.75 12.2916 39.375 13.3333L42.0833 17.7083C42.7083 18.75 42.5 20 41.4583 20.625C41.0416 20.8333 40.625 21.0416 40.2083 21.0416Z" fill="#7CB342"/>
</g>
<defs>
<filter id="filter0_d_7_231" x="-4" y="0" width="108" height="108" filterUnits="userSpaceOnUse" color-interpolation-filters="sRGB">
<feFlood flood-opacity="0" result="BackgroundImageFix"/>
<feColorMatrix in="SourceAlpha" type="matrix" values="0 0 0 0 0 0 0 0 0 0 0 0 0 0 0 0 0 0 127 0" result="hardAlpha"/>
<feOffset dy="4"/>
<feGaussianBlur stdDeviation="2"/>
<feComposite in2="hardAlpha" operator="out"/>
<feColorMatrix type="matrix" values="0 0 0 0 0 0 0 0 0 0 0 0 0 0 0 0 0 0 0.25 0"/>
<feBlend mode="normal" in2="BackgroundImageFix" result="effect1_dropShadow_7_231"/>
<feBlend mode="normal" in="SourceGraphic" in2="effect1_dropShadow_7_231" result="shape"/>
</filter>
</defs>
</svg>
