<svg width="100" height="100" viewBox="0 0 100 100" fill="none" xmlns="http://www.w3.org/2000/svg">
<g filter="url(#filter0_d_7_201)">
<path d="M83.5083 67.9438C81.7417 71.7667 80.8958 73.475 78.6292 76.8479C75.4604 81.5646 70.9833 87.45 65.45 87.4917C60.5312 87.5292 59.2604 84.3521 52.5833 84.4042C45.9083 84.4375 44.5167 87.55 39.5896 87.4958C34.0604 87.45 29.8229 82.1458 26.6521 77.4417C17.7792 64.2333 16.8458 48.7583 22.3271 40.5229C26.2042 34.6833 32.3417 31.2542 38.1021 31.2542C43.9708 31.2542 47.6604 34.4083 52.5104 34.4083C57.2229 34.4083 60.0896 31.2479 66.8771 31.2479C72.0104 31.2479 77.4396 33.9833 81.3167 38.6958C68.6292 45.4917 70.6896 63.2021 83.5083 67.9438Z" fill="#42A5F5"/>
<path d="M62.5958 25.15C65.2396 21.8646 67.2458 17.225 66.5167 12.5C62.2062 12.7875 57.1604 15.4542 54.2146 18.9062C51.5438 22.0521 49.3292 26.7229 50.1917 31.2437C54.8979 31.3875 59.7687 28.675 62.5958 25.15Z" fill="#42A5F5"/>
<path d="M76.5333 42.5438C58.3333 62.5021 41.6667 43.7521 19.225 58.0042C20.0063 64.3104 22.4125 71.1354 26.6521 77.4438C29.8208 82.1479 34.0604 87.4521 39.5896 87.4979C44.5167 87.55 45.9083 84.4375 52.5833 84.4063C59.2604 84.3563 60.5292 87.5313 65.45 87.4938C70.9833 87.45 75.4604 81.5646 78.6292 76.85C80.8958 73.4771 81.7417 71.7688 83.5083 67.9458C72.6625 63.9333 69.5604 50.6542 76.5333 42.5438Z" fill="#1E88E5"/>
</g>
<defs>
<filter id="filter0_d_7_201" x="-4" y="0" width="108" height="108" filterUnits="userSpaceOnUse" color-interpolation-filters="sRGB">
<feFlood flood-opacity="0" result="BackgroundImageFix"/>
<feColorMatrix in="SourceAlpha" type="matrix" values="0 0 0 0 0 0 0 0 0 0 0 0 0 0 0 0 0 0 127 0" result="hardAlpha"/>
<feOffset dy="4"/>
<feGaussianBlur stdDeviation="2"/>
<feComposite in2="hardAlpha" operator="out"/>
<feColorMatrix type="matrix" values="0 0 0 0 0 0 0 0 0 0 0 0 0 0 0 0 0 0 0.25 0"/>
<feBlend mode="normal" in2="BackgroundImageFix" result="effect1_dropShadow_7_201"/>
<feBlend mode="normal" in="SourceGraphic" in2="effect1_dropShadow_7_201" result="shape"/>
</filter>
</defs>
</svg>
