<svg width="761" height="543" viewBox="0 0 761 543" fill="none" xmlns="http://www.w3.org/2000/svg">
<line x1="415" y1="487" x2="415" y2="427" stroke="#4C5764" stroke-width="10"/>
<mask id="path-2-inside-1_32_53" fill="white">
<rect width="761" height="427" rx="5"/>
</mask>
<rect width="761" height="427" rx="5" stroke="#4C5764" stroke-width="20" mask="url(#path-2-inside-1_32_53)"/>
<g filter="url(#filter0_d_32_53)">
<rect x="28.5" y="31.5" width="704" height="335" rx="2.5" stroke="#4C5764" stroke-width="5" shape-rendering="crispEdges"/>
</g>
<rect x="341.5" y="484.499" width="78" height="4" rx="2" fill="#4C5764" stroke="#4C5764"/>
<line x1="341" y1="487.008" x2="341" y2="427.008" stroke="#4C5764" stroke-width="10"/>
<circle cx="380.5" cy="395.5" r="9.5" fill="#84CC16" stroke="#4C5764" stroke-width="4"/>
<mask id="path-7-inside-2_32_53" fill="white">
<rect x="264" y="484" width="233" height="59" rx="5"/>
</mask>
<rect x="264" y="484" width="233" height="59" rx="5" stroke="#4C5764" stroke-width="20" mask="url(#path-7-inside-2_32_53)"/>
<path d="M72.8761 73.6486C72.8761 72.1848 74.0627 70.9982 75.5265 70.9982H181.058C182.522 70.9982 183.708 72.1848 183.708 73.6486V73.6486C183.708 75.1124 182.522 76.299 181.058 76.299H75.5265C74.0627 76.299 72.8761 75.1124 72.8761 73.6486V73.6486Z" fill="#4C5764"/>
<path d="M72.8761 122.417C72.8761 120.953 74.0627 119.766 75.5265 119.766H181.058C182.522 119.766 183.708 120.953 183.708 122.417V122.417C183.708 123.88 182.522 125.067 181.058 125.067H75.5265C74.0627 125.067 72.8761 123.88 72.8761 122.417V122.417Z" fill="#4C5764"/>
<path d="M72.8761 98.0326C72.8761 96.5688 74.0627 95.3822 75.5265 95.3822H181.058C182.522 95.3822 183.708 96.5688 183.708 98.0326V98.0326C183.708 99.4964 182.522 100.683 181.058 100.683H75.5265C74.0627 100.683 72.8761 99.4964 72.8761 98.0326V98.0326Z" fill="#4C5764"/>
<path d="M396.137 98.0326C396.137 96.5688 397.324 95.3822 398.787 95.3822H655.79C657.253 95.3822 658.44 96.5688 658.44 98.0326V98.0326C658.44 99.4964 657.253 100.683 655.79 100.683H398.787C397.324 100.683 396.137 99.4964 396.137 98.0326V98.0326Z" fill="#4C5764"/>
<path d="M72.8761 146.801C72.8761 145.337 74.0627 144.15 75.5265 144.15H181.058C182.522 144.15 183.708 145.337 183.708 146.801V146.801C183.708 148.265 182.522 149.451 181.058 149.451H75.5265C74.0627 149.451 72.8761 148.265 72.8761 146.801V146.801Z" fill="#4C5764"/>
<path d="M72.8761 195.569C72.8761 194.105 74.0627 192.918 75.5265 192.918H181.058C182.522 192.918 183.708 194.105 183.708 195.569V195.569C183.708 197.033 182.522 198.219 181.058 198.219H75.5265C74.0627 198.219 72.8761 197.033 72.8761 195.569V195.569Z" fill="#4C5764"/>
<path d="M72.8761 171.185C72.8761 169.721 74.0627 168.534 75.5265 168.534H181.058C182.522 168.534 183.708 169.721 183.708 171.185V171.185C183.708 172.649 182.522 173.835 181.058 173.835H75.5265C74.0627 173.835 72.8761 172.649 72.8761 171.185V171.185Z" fill="#4C5764"/>
<path d="M211.416 73.6486C211.416 72.1848 212.603 70.9982 214.067 70.9982H550.499C551.962 70.9982 553.149 72.1848 553.149 73.6486V73.6486C553.149 75.1124 551.962 76.299 550.499 76.299H214.067C212.603 76.299 211.416 75.1124 211.416 73.6486V73.6486Z" fill="#84CC16"/>
<path d="M211.416 122.417C211.416 120.953 212.603 119.766 214.067 119.766H439.666C441.13 119.766 442.317 120.953 442.317 122.417V122.417C442.317 123.88 441.13 125.067 439.666 125.067H214.067C212.603 125.067 211.416 123.88 211.416 122.417V122.417Z" fill="#84CC16"/>
<path d="M211.416 98.0326C211.416 96.5688 212.603 95.3822 214.067 95.3822H375.014C376.478 95.3822 377.665 96.5688 377.665 98.0326V98.0326C377.665 99.4964 376.478 100.683 375.014 100.683H214.067C212.603 100.683 211.416 99.4964 211.416 98.0326V98.0326Z" fill="#EF4444"/>
<path d="M475.567 122.417C475.567 120.953 476.753 119.766 478.217 119.766H639.165C640.629 119.766 641.815 120.953 641.815 122.417V122.417C641.815 123.88 640.629 125.067 639.165 125.067H478.217C476.753 125.067 475.567 123.88 475.567 122.417V122.417Z" fill="#EF4444"/>
<path d="M211.416 146.801C211.416 145.337 212.603 144.15 214.067 144.15H587.443C588.906 144.15 590.093 145.337 590.093 146.801V146.801C590.093 148.265 588.906 149.451 587.443 149.451H214.067C212.603 149.451 211.416 148.265 211.416 146.801V146.801Z" fill="#EF4444"/>
<path d="M211.416 195.569C211.416 194.105 212.603 192.918 214.067 192.918H550.499C551.962 192.918 553.149 194.105 553.149 195.569V195.569C553.149 197.033 551.962 198.219 550.499 198.219H214.067C212.603 198.219 211.416 197.033 211.416 195.569V195.569Z" fill="#84CC16"/>
<path d="M361.04 171.185C361.04 169.721 362.227 168.534 363.69 168.534H700.122C701.586 168.534 702.773 169.721 702.773 171.185V171.185C702.773 172.649 701.586 173.835 700.122 173.835H363.69C362.227 173.835 361.04 172.649 361.04 171.185V171.185Z" fill="#84CC16"/>
<path d="M211.416 171.185C211.416 169.721 212.603 168.534 214.067 168.534H330.681C332.145 168.534 333.332 169.721 333.332 171.185V171.185C333.332 172.649 332.145 173.835 330.681 173.835H214.067C212.603 173.835 211.416 172.649 211.416 171.185V171.185Z" fill="#4C5764"/>
<path d="M72.8761 219.953C72.8761 218.489 74.0627 217.302 75.5265 217.302H181.058C182.522 217.302 183.708 218.489 183.708 219.953V219.953C183.708 221.417 182.522 222.603 181.058 222.603H75.5265C74.0627 222.603 72.8761 221.417 72.8761 219.953V219.953Z" fill="#4C5764"/>
<path d="M72.8761 268.721C72.8761 267.257 74.0627 266.07 75.5265 266.07H181.058C182.522 266.07 183.708 267.257 183.708 268.721V268.721C183.708 270.185 182.522 271.371 181.058 271.371H75.5265C74.0627 271.371 72.8761 270.185 72.8761 268.721V268.721Z" fill="#4C5764"/>
<path d="M72.8761 244.337C72.8761 242.873 74.0627 241.686 75.5265 241.686H181.058C182.522 241.686 183.708 242.873 183.708 244.337V244.337C183.708 245.801 182.522 246.987 181.058 246.987H75.5265C74.0627 246.987 72.8761 245.801 72.8761 244.337V244.337Z" fill="#4C5764"/>
<path d="M396.137 244.337C396.137 242.873 397.324 241.686 398.787 241.686H655.79C657.253 241.686 658.44 242.873 658.44 244.337V244.337C658.44 245.801 657.253 246.987 655.79 246.987H398.787C397.324 246.987 396.137 245.801 396.137 244.337V244.337Z" fill="#4C5764"/>
<path d="M72.8761 293.105C72.8761 291.641 74.0627 290.454 75.5265 290.454H181.058C182.522 290.454 183.708 291.641 183.708 293.105V293.105C183.708 294.569 182.522 295.755 181.058 295.755H75.5265C74.0627 295.755 72.8761 294.569 72.8761 293.105V293.105Z" fill="#4C5764"/>
<path d="M72.8761 341.873C72.8761 340.409 74.0627 339.223 75.5265 339.223H181.058C182.522 339.223 183.708 340.409 183.708 341.873V341.873C183.708 343.337 182.522 344.523 181.058 344.523H75.5265C74.0627 344.523 72.8761 343.337 72.8761 341.873V341.873Z" fill="#4C5764"/>
<path d="M72.8761 317.489C72.8761 316.025 74.0627 314.839 75.5265 314.839H181.058C182.522 314.839 183.708 316.025 183.708 317.489V317.489C183.708 318.953 182.522 320.139 181.058 320.139H75.5265C74.0627 320.139 72.8761 318.953 72.8761 317.489V317.489Z" fill="#4C5764"/>
<path d="M211.416 219.953C211.416 218.489 212.603 217.302 214.067 217.302H550.499C551.962 217.302 553.149 218.489 553.149 219.953V219.953C553.149 221.417 551.962 222.603 550.499 222.603H214.067C212.603 222.603 211.416 221.417 211.416 219.953V219.953Z" fill="#84CC16"/>
<path d="M211.416 268.721C211.416 267.257 212.603 266.07 214.067 266.07H439.666C441.13 266.07 442.317 267.257 442.317 268.721V268.721C442.317 270.185 441.13 271.371 439.666 271.371H214.067C212.603 271.371 211.416 270.185 211.416 268.721V268.721Z" fill="#84CC16"/>
<path d="M211.416 244.337C211.416 242.873 212.603 241.686 214.067 241.686H375.014C376.478 241.686 377.665 242.873 377.665 244.337V244.337C377.665 245.801 376.478 246.987 375.014 246.987H214.067C212.603 246.987 211.416 245.801 211.416 244.337V244.337Z" fill="#EF4444"/>
<path d="M475.567 268.721C475.567 267.257 476.753 266.07 478.217 266.07H639.165C640.629 266.07 641.815 267.257 641.815 268.721V268.721C641.815 270.185 640.629 271.371 639.165 271.371H478.217C476.753 271.371 475.567 270.185 475.567 268.721V268.721Z" fill="#EF4444"/>
<path d="M211.416 293.105C211.416 291.641 212.603 290.454 214.067 290.454H587.443C588.906 290.454 590.093 291.641 590.093 293.105V293.105C590.093 294.569 588.906 295.755 587.443 295.755H214.067C212.603 295.755 211.416 294.569 211.416 293.105V293.105Z" fill="#EF4444"/>
<path d="M211.416 341.873C211.416 340.409 212.603 339.223 214.067 339.223H550.499C551.962 339.223 553.149 340.409 553.149 341.873V341.873C553.149 343.337 551.962 344.523 550.499 344.523H214.067C212.603 344.523 211.416 343.337 211.416 341.873V341.873Z" fill="#84CC16"/>
<path d="M361.04 317.489C361.04 316.025 362.227 314.839 363.69 314.839H700.122C701.586 314.839 702.773 316.025 702.773 317.489V317.489C702.773 318.953 701.586 320.139 700.122 320.139H363.69C362.227 320.139 361.04 318.953 361.04 317.489V317.489Z" fill="#84CC16"/>
<path d="M211.416 317.489C211.416 316.025 212.603 314.839 214.067 314.839H330.681C332.145 314.839 333.332 316.025 333.332 317.489V317.489C333.332 318.953 332.145 320.139 330.681 320.139H214.067C212.603 320.139 211.416 318.953 211.416 317.489V317.489Z" fill="#4C5764"/>
<mask id="path-38-inside-3_32_53" fill="white">
<rect x="26" y="30" width="709" height="339" rx="5"/>
</mask>
<rect x="26" y="30" width="709" height="339" rx="5" stroke="#4C5764" stroke-width="20" mask="url(#path-38-inside-3_32_53)"/>
<g filter="url(#filter1_d_32_53)">
<mask id="path-39-inside-4_32_53" fill="white">
<rect x="26" y="51" width="709" height="318" rx="5"/>
</mask>
<rect x="26" y="51" width="709" height="318" rx="5" stroke="#4C5764" stroke-width="20" shape-rendering="crispEdges" mask="url(#path-39-inside-4_32_53)"/>
</g>
<defs>
<filter id="filter0_d_32_53" x="22" y="29" width="717" height="348" filterUnits="userSpaceOnUse" color-interpolation-filters="sRGB">
<feFlood flood-opacity="0" result="BackgroundImageFix"/>
<feColorMatrix in="SourceAlpha" type="matrix" values="0 0 0 0 0 0 0 0 0 0 0 0 0 0 0 0 0 0 127 0" result="hardAlpha"/>
<feOffset dy="4"/>
<feGaussianBlur stdDeviation="2"/>
<feComposite in2="hardAlpha" operator="out"/>
<feColorMatrix type="matrix" values="0 0 0 0 0 0 0 0 0 0 0 0 0 0 0 0 0 0 0.25 0"/>
<feBlend mode="normal" in2="BackgroundImageFix" result="effect1_dropShadow_32_53"/>
<feBlend mode="normal" in="SourceGraphic" in2="effect1_dropShadow_32_53" result="shape"/>
</filter>
<filter id="filter1_d_32_53" x="22" y="51" width="717" height="326" filterUnits="userSpaceOnUse" color-interpolation-filters="sRGB">
<feFlood flood-opacity="0" result="BackgroundImageFix"/>
<feColorMatrix in="SourceAlpha" type="matrix" values="0 0 0 0 0 0 0 0 0 0 0 0 0 0 0 0 0 0 127 0" result="hardAlpha"/>
<feOffset dy="4"/>
<feGaussianBlur stdDeviation="2"/>
<feComposite in2="hardAlpha" operator="out"/>
<feColorMatrix type="matrix" values="0 0 0 0 0 0 0 0 0 0 0 0 0 0 0 0 0 0 0.25 0"/>
<feBlend mode="normal" in2="BackgroundImageFix" result="effect1_dropShadow_32_53"/>
<feBlend mode="normal" in="SourceGraphic" in2="effect1_dropShadow_32_53" result="shape"/>
</filter>
</defs>
</svg>
