<svg width="100" height="102" viewBox="0 0 100 102" fill="none" xmlns="http://www.w3.org/2000/svg">
<g filter="url(#filter0_d_7_197)">
<path d="M50 91.6666C73.0119 91.6666 91.6667 73.0118 91.6667 50C91.6667 26.9881 73.0119 8.33331 50 8.33331C26.9881 8.33331 8.33334 26.9881 8.33334 50C8.33334 73.0118 26.9881 91.6666 50 91.6666Z" fill="#9575CD"/>
<path d="M50 93.75C25.875 93.75 6.25 74.1229 6.25 50C6.25 25.8771 25.875 6.25 50 6.25C74.125 6.25 93.75 25.8771 93.75 50C93.75 74.1229 74.125 93.75 50 93.75ZM50 10.4167C28.1729 10.4167 10.4167 28.1729 10.4167 50C10.4167 71.8271 28.1729 89.5833 50 89.5833C71.8271 89.5833 89.5833 71.8271 89.5833 50C89.5833 28.1729 71.8271 10.4167 50 10.4167Z" fill="#5E35B1"/>
<path d="M72.55 68.3813C72.55 71.4896 65.0375 74.7125 63.4271 75.1729C58.8229 76.4958 55.1958 77.1021 50.475 77.1021C47.5688 77.1021 45.8333 77.1021 39.5833 77.1021C46.4979 76.2229 55.3938 74.5104 60.4167 72.9354C62.2563 72.3583 61.6521 70.9271 60.4167 70.8521C52.1625 70.35 35.0396 69.7167 29.6958 64.5542C28.2 63.1146 27.4521 61.4167 27.4521 59.5458C27.4521 51.4875 42.7917 48.9542 49.8708 48.2354C41.4104 45.3583 33.9563 39.1417 33.9563 35.6583C33.9563 32.3771 37.7583 30.0479 44.6375 30.0479C51.3563 30.0479 61.425 29.3833 61.5396 29.3542C63.8708 28.8938 64.2958 28.9521 64.3021 27.9729C64.2729 27.5417 63.1792 26.8792 61.625 26.8792C61.625 26.8792 52.0854 27.1 50.0021 27.1C56.7792 24.8625 60.8083 21.9 65.2125 23.2229C67.7167 23.9708 69.5 25.7271 69.9333 27.9438C70.3646 30.1021 70.0188 31.8583 68.9542 33.1521C66.9979 35.5125 56.3771 35.4458 54.1688 35.4333C51.5646 35.4167 58.3354 35.4333 50.0021 35.4333C46.3958 35.4333 42.0167 35.7313 43.6458 38.5729C43.8063 38.8521 45.8354 40.9229 48.6833 42.6208C52.4542 44.8938 64.5479 48.6083 64.6917 48.6646C64.9208 48.7792 65.0938 49.0104 65.0667 49.2979C65.0375 49.5563 64.8354 49.7875 64.5479 49.8438C55.3375 51.6854 40.9771 56.2042 41.6958 60.5208C42.3 64.0604 48.8625 65.7292 60.1729 65.2979H60.7771C66.4771 65.3021 72.55 65.5333 72.55 68.3813Z" fill="white"/>
</g>
<defs>
<filter id="filter0_d_7_197" x="-4" y="0" width="108" height="108" filterUnits="userSpaceOnUse" color-interpolation-filters="sRGB">
<feFlood flood-opacity="0" result="BackgroundImageFix"/>
<feColorMatrix in="SourceAlpha" type="matrix" values="0 0 0 0 0 0 0 0 0 0 0 0 0 0 0 0 0 0 127 0" result="hardAlpha"/>
<feOffset dy="4"/>
<feGaussianBlur stdDeviation="2"/>
<feComposite in2="hardAlpha" operator="out"/>
<feColorMatrix type="matrix" values="0 0 0 0 0 0 0 0 0 0 0 0 0 0 0 0 0 0 0.25 0"/>
<feBlend mode="normal" in2="BackgroundImageFix" result="effect1_dropShadow_7_197"/>
<feBlend mode="normal" in="SourceGraphic" in2="effect1_dropShadow_7_197" result="shape"/>
</filter>
</defs>
</svg>
