<svg width="100" height="105" viewBox="0 0 100 105" fill="none" xmlns="http://www.w3.org/2000/svg">
<g filter="url(#filter0_d_7_251)">
<path fill-rule="evenodd" clip-rule="evenodd" d="M47.7146 6.84586C49.1292 6.05211 50.8709 6.05211 52.2834 6.84586C59.2729 10.7688 80.3063 22.5771 87.2979 26.5C88.7125 27.2917 89.5834 28.7584 89.5834 30.3459C89.5834 38.1917 89.5834 61.8063 89.5834 69.6521C89.5834 71.2396 88.7125 72.7063 87.2979 73.5C80.3083 77.4229 59.275 89.2313 52.2834 93.1542C50.8688 93.9479 49.1271 93.9479 47.7146 93.1542C40.725 89.2313 19.6917 77.4229 12.7 73.5C11.2875 72.7063 10.4167 71.2417 10.4167 69.6542C10.4167 61.8084 10.4167 38.1938 10.4167 30.3479C10.4167 28.7604 11.2875 27.2938 12.7021 26.5C19.6896 22.5771 40.7271 10.7688 47.7146 6.84586Z" fill="#EDEDED"/>
<path fill-rule="evenodd" clip-rule="evenodd" d="M49.9729 96.2938C47.7125 96.2938 45.45 95.7688 43.3791 94.7167C38.7541 92.3688 32.7166 88.6771 26.8771 85.1063C22.7666 82.5938 18.8854 80.2188 15.8416 78.5292C11.2104 75.9542 8.33331 71.0688 8.33331 65.775V34.6396C8.33331 29.2438 11.2854 24.3167 16.0396 21.7792C23.8166 17.6354 36.2833 10.875 42.8687 7.17501C47.2646 4.70835 52.7291 4.70835 57.1271 7.17501C64.5771 11.3563 78.7291 19.8083 86.8187 24.9104C89.8541 26.8208 91.6666 30.1104 91.6666 33.7125V66.6667C91.6666 71.6667 89.8771 75.1 86.3479 76.8646C84.3812 77.9708 80.8729 80.1479 76.8104 82.6708C70.4937 86.5917 62.6312 91.4729 56.8854 94.5563C54.7291 95.7125 52.35 96.2938 49.9729 96.2938ZM44.9083 10.8083C38.3 14.5208 25.7958 21.3042 18 25.4583C14.6083 27.2667 12.5 30.7833 12.5 34.6396V65.775C12.5 69.5542 14.5562 73.0458 17.8666 74.8854C20.9875 76.6188 24.9041 79.0125 29.0521 81.55C34.8229 85.0771 40.7896 88.7271 45.2666 91C48.3041 92.5396 51.9083 92.4938 54.9146 90.8833C60.5458 87.8604 68.3458 83.0188 74.6146 79.1271C78.7187 76.5792 82.2625 74.3792 84.3979 73.1813C87.1562 71.8 87.5 68.9771 87.5 66.6667V33.7125C87.5 31.5521 86.4146 29.5813 84.6 28.4375C76.5541 23.3646 62.4896 14.9646 55.0896 10.8104C51.9021 9.02293 48.0958 9.02293 44.9083 10.8083Z" fill="#434345"/>
<path fill-rule="evenodd" clip-rule="evenodd" d="M47.8688 86.7792L47.75 58.7833C47.7271 53.3792 50.6938 48.4063 55.4604 45.8583L80.4813 32.4917C84.6438 30.2667 89.6771 33.2833 89.6771 38.0042V68.6917C89.6771 70.8604 88.5521 72.875 86.7063 74.0125L57.3979 92.0708C53.2438 94.6333 47.8896 91.6583 47.8688 86.7792Z" fill="#434345"/>
<path fill-rule="evenodd" clip-rule="evenodd" d="M59.998 54.7375C60.2542 54.6062 60.4667 54.7666 60.4709 55.1041L60.498 57.8541C61.648 57.3979 62.648 57.275 63.5542 57.4854C63.7521 57.5354 63.8375 57.8041 63.7584 58.1229L63.1521 60.5583C63.1021 60.7437 63.0021 60.9291 62.8771 61.0437C62.823 61.0958 62.7688 61.1354 62.7167 61.1625C62.6334 61.2041 62.5542 61.2166 62.4792 61.2021C62.0646 61.1083 61.0813 60.8937 59.5355 61.6771C57.9146 62.5 57.3459 63.9083 57.3563 64.9541C57.3709 66.2062 58.0125 66.5854 60.225 66.625C63.175 66.6729 64.448 67.9646 64.4792 70.9312C64.5125 73.8521 62.9521 76.9833 60.5709 78.9021L60.623 81.6271C60.625 81.9541 60.4146 82.3312 60.1542 82.4604L58.5396 83.3875C58.2834 83.5187 58.0709 83.3583 58.0667 83.0291L58.0396 80.35C56.6563 80.925 55.2605 81.0625 54.3667 80.7041C54.1959 80.6375 54.123 80.3875 54.1917 80.1041L54.775 77.6437C54.8209 77.4521 54.923 77.2562 55.0625 77.1312C55.1105 77.0833 55.1625 77.0479 55.2125 77.0208C55.3042 76.975 55.3938 76.9646 55.4709 76.9937C56.4334 77.3166 57.6646 77.1646 58.85 76.5646C60.3542 75.8041 61.3625 74.2687 61.3459 72.7437C61.3313 71.3604 60.5834 70.7875 58.7605 70.7729C56.4417 70.7771 54.2792 70.3229 54.2438 66.9083C54.2146 64.0958 55.6771 61.1729 57.9917 59.3229L57.9646 56.575C57.9625 56.2375 58.1688 55.8666 58.4334 55.7312L59.998 54.7375Z" fill="#EDEDED"/>
<path fill-rule="evenodd" clip-rule="evenodd" d="M77.5541 72.6187L69.8374 77.1708C69.6104 77.2979 69.3291 77.1312 69.3291 76.8729V74.2645C69.3291 74.0291 69.4562 73.8125 69.6624 73.6958L77.3791 69.1437C77.6103 69.0166 77.8916 69.1833 77.8916 69.4458V72.0458C77.8916 72.2854 77.7624 72.502 77.5541 72.6187Z" fill="#4DA925"/>
</g>
<defs>
<filter id="filter0_d_7_251" x="-4" y="0" width="108" height="108" filterUnits="userSpaceOnUse" color-interpolation-filters="sRGB">
<feFlood flood-opacity="0" result="BackgroundImageFix"/>
<feColorMatrix in="SourceAlpha" type="matrix" values="0 0 0 0 0 0 0 0 0 0 0 0 0 0 0 0 0 0 127 0" result="hardAlpha"/>
<feOffset dy="4"/>
<feGaussianBlur stdDeviation="2"/>
<feComposite in2="hardAlpha" operator="out"/>
<feColorMatrix type="matrix" values="0 0 0 0 0 0 0 0 0 0 0 0 0 0 0 0 0 0 0.25 0"/>
<feBlend mode="normal" in2="BackgroundImageFix" result="effect1_dropShadow_7_251"/>
<feBlend mode="normal" in="SourceGraphic" in2="effect1_dropShadow_7_251" result="shape"/>
</filter>
</defs>
</svg>
