<svg width="100" height="100" viewBox="0 0 100 100" fill="none" xmlns="http://www.w3.org/2000/svg">
<g filter="url(#filter0_d_5_171)">
<path d="M50 57C53.866 57 57 53.866 57 50C57 46.134 53.866 43 50 43C46.134 43 43 46.134 43 50C43 53.866 46.134 57 50 57Z" fill="#39C1D7"/>
<path d="M50 58C45.589 58 42 54.411 42 50C42 45.589 45.589 42 50 42C54.411 42 58 45.589 58 50C58 54.411 54.411 58 50 58ZM50 44C46.691 44 44 46.691 44 50C44 53.309 46.691 56 50 56C53.309 56 56 53.309 56 50C56 46.691 53.309 44 50 44Z" fill="#1F212B"/>
<path d="M88.5 50C88.5 44.624 82.026 39.971 71.982 37.202C74.564 27.106 73.769 19.167 69.155 16.473C67.335 15.41 65.127 15.216 62.593 15.894C58.775 16.916 54.4 19.904 50 24.293C45.6 19.904 41.225 16.917 37.407 15.894C34.873 15.215 32.665 15.41 30.845 16.473C26.231 19.167 25.436 27.105 28.018 37.202C17.974 39.971 11.5 44.624 11.5 50C11.5 55.376 17.974 60.029 28.018 62.799C25.436 72.895 26.231 80.834 30.845 83.528C31.957 84.177 33.213 84.504 34.601 84.503C35.484 84.503 36.421 84.371 37.407 84.107C41.225 83.084 45.6 80.097 50 75.708C54.4 80.097 58.775 83.084 62.593 84.107C63.579 84.371 64.516 84.503 65.399 84.503C66.787 84.503 68.043 84.178 69.155 83.528C73.769 80.834 74.563 72.895 71.982 62.799C82.026 60.029 88.5 55.376 88.5 50ZM63.369 18.791C64.094 18.598 64.766 18.5 65.385 18.5C66.245 18.5 67.001 18.688 67.642 19.063C70.734 20.869 71.365 27.483 69.062 36.474C65.889 35.76 62.427 35.223 58.748 34.891C56.589 31.778 54.343 28.944 52.08 26.462C56.098 22.435 60.04 19.683 63.369 18.791ZM60.755 56.299C59.576 58.365 58.335 60.344 57.062 62.238C54.802 62.407 52.446 62.5 50 62.5C47.554 62.5 45.198 62.407 42.939 62.238C41.666 60.344 40.425 58.365 39.246 56.299C38.027 54.163 36.933 52.059 35.953 50.001C36.933 47.943 38.027 45.839 39.246 43.702C40.426 41.635 41.666 39.656 42.94 37.762C45.199 37.593 47.554 37.5 50 37.5C52.446 37.5 54.801 37.593 57.061 37.762C58.334 39.656 59.575 41.636 60.755 43.702C61.974 45.838 63.068 47.942 64.048 50.001C63.068 52.059 61.974 54.163 60.755 56.299ZM65.644 53.545C66.685 56.006 67.545 58.375 68.241 60.627C65.966 61.134 63.51 61.557 60.887 61.87C61.729 60.544 62.559 59.188 63.36 57.785C64.171 56.366 64.928 54.951 65.644 53.545ZM50 71.357C48.364 69.548 46.731 67.545 45.136 65.378C46.728 65.455 48.348 65.5 50 65.5C51.652 65.5 53.272 65.455 54.864 65.378C53.269 67.544 51.636 69.547 50 71.357ZM39.112 61.87C36.49 61.557 34.033 61.134 31.758 60.627C32.454 58.375 33.314 56.005 34.355 53.545C35.071 54.951 35.829 56.366 36.639 57.785C37.441 59.189 38.27 60.545 39.112 61.87ZM34.356 46.456C33.315 43.995 32.454 41.625 31.759 39.372C34.034 38.865 36.491 38.442 39.114 38.129C38.271 39.455 37.442 40.812 36.641 42.215C35.829 43.635 35.072 45.05 34.356 46.456ZM50 28.644C51.636 30.453 53.269 32.456 54.864 34.623C53.272 34.545 51.652 34.5 50 34.5C48.348 34.5 46.728 34.545 45.136 34.622C46.731 32.456 48.364 30.453 50 28.644ZM63.36 42.216C62.559 40.812 61.729 39.456 60.887 38.13C63.51 38.443 65.966 38.866 68.242 39.373C67.546 41.626 66.686 43.995 65.645 46.457C64.928 45.05 64.171 43.635 63.36 42.216ZM32.358 19.063C33 18.688 33.754 18.5 34.615 18.5C35.233 18.5 35.907 18.598 36.631 18.791C39.96 19.683 43.902 22.434 47.92 26.461C45.657 28.943 43.411 31.778 41.252 34.89C37.573 35.222 34.11 35.759 30.938 36.473C28.635 27.482 29.266 20.868 32.358 19.063ZM14.5 50C14.5 46.404 19.901 42.56 28.835 40.099C29.804 43.258 31.076 46.585 32.641 50C31.076 53.415 29.804 56.742 28.835 59.901C19.901 57.44 14.5 53.596 14.5 50ZM36.631 81.209C34.898 81.671 33.461 81.58 32.358 80.938C29.266 79.132 28.636 72.518 30.938 63.527C34.11 64.241 37.573 64.778 41.251 65.11C43.41 68.223 45.656 71.057 47.919 73.54C43.902 77.566 39.96 80.317 36.631 81.209ZM67.642 80.938C66.539 81.582 65.103 81.672 63.369 81.209C60.04 80.317 56.098 77.566 52.08 73.539C54.343 71.057 56.589 68.222 58.748 65.109C62.427 64.777 65.889 64.24 69.061 63.526C71.365 72.518 70.734 79.132 67.642 80.938ZM71.165 59.901C70.196 56.742 68.924 53.415 67.359 50C68.924 46.585 70.196 43.257 71.165 40.099C80.099 42.56 85.5 46.404 85.5 50C85.5 53.596 80.099 57.44 71.165 59.901Z" fill="#39C1D7"/>
<path d="M34.595 85.002C33.124 85.002 31.778 84.651 30.594 83.959C25.962 81.254 24.811 73.683 27.416 63.148C16.975 60.179 11 55.4 11 50C11 44.6 16.975 39.821 27.415 36.852C24.811 26.317 25.962 18.746 30.594 16.041C32.532 14.907 34.867 14.695 37.537 15.411C41.255 16.407 45.557 19.231 50 23.59C54.444 19.231 58.746 16.407 62.463 15.411C65.132 14.697 67.468 14.909 69.407 16.041C74.038 18.746 75.189 26.317 72.585 36.852C83.025 39.821 89 44.6 89 50C89 55.4 83.025 60.179 72.585 63.148C75.189 73.683 74.039 81.253 69.407 83.959C67.48 85.084 65.121 85.301 62.464 84.589C58.745 83.593 54.443 80.769 50 76.411C45.557 80.769 41.255 83.594 37.537 84.589C36.514 84.863 35.526 85.002 34.601 85.002C34.599 85.002 34.597 85.002 34.595 85.002ZM34.604 15.999C33.303 15.999 32.13 16.301 31.097 16.905C26.873 19.372 25.903 26.913 28.502 37.078C28.569 37.342 28.413 37.612 28.15 37.684C18.038 40.472 12 45.077 12 50C12 54.923 18.038 59.528 28.151 62.316C28.414 62.388 28.57 62.658 28.503 62.922C25.903 73.087 26.873 80.629 31.097 83.095C32.127 83.696 33.304 84.001 34.595 84.001C34.597 84.001 34.599 84.001 34.601 84.001C35.439 84.001 36.339 83.874 37.278 83.623C40.925 82.646 45.203 79.787 49.647 75.353C49.842 75.159 50.158 75.159 50.353 75.353C54.797 79.786 59.075 82.645 62.722 83.623C65.116 84.262 67.207 84.084 68.903 83.095C73.127 80.628 74.097 73.087 71.497 62.922C71.43 62.658 71.586 62.388 71.849 62.316C81.962 59.528 88 54.923 88 50C88 45.077 81.962 40.472 71.849 37.684C71.586 37.612 71.43 37.342 71.497 37.078C74.096 26.913 73.126 19.371 68.902 16.905C67.203 15.912 65.123 15.735 62.721 16.377C59.074 17.354 54.797 20.213 50.352 24.647C50.157 24.841 49.841 24.841 49.646 24.647C45.201 20.213 40.924 17.354 37.277 16.377C36.336 16.125 35.444 15.999 34.604 15.999ZM65.386 81.999C64.723 81.999 64.007 81.897 63.24 81.692C59.909 80.799 55.928 78.103 51.726 73.892C51.538 73.703 51.531 73.399 51.71 73.202C53.975 70.718 56.204 67.899 58.337 64.824C58.421 64.702 58.555 64.624 58.703 64.611C62.315 64.285 65.763 63.756 68.952 63.038C69.213 62.979 69.479 63.139 69.546 63.402C71.882 72.525 71.249 79.41 67.894 81.369C67.175 81.789 66.336 81.999 65.386 81.999ZM52.771 73.521C56.722 77.415 60.424 79.902 63.498 80.726C65.097 81.153 66.407 81.079 67.39 80.506C70.245 78.838 70.747 72.433 68.696 64.119C65.668 64.778 62.419 65.271 59.026 65.586C57.01 68.478 54.908 71.144 52.771 73.521ZM34.614 81.999C33.664 81.999 32.825 81.789 32.106 81.37C28.751 79.41 28.117 72.525 30.454 63.402C30.521 63.14 30.787 62.983 31.048 63.038C34.236 63.756 37.684 64.285 41.297 64.611C41.444 64.624 41.579 64.702 41.663 64.824C43.796 67.899 46.025 70.718 48.29 73.202C48.47 73.399 48.463 73.703 48.274 73.892C44.072 78.102 40.091 80.799 36.761 81.692C35.993 81.896 35.276 81.999 34.614 81.999ZM31.304 64.119C29.253 72.432 29.755 78.838 32.61 80.506C33.592 81.078 34.902 81.153 36.502 80.726C39.576 79.902 43.278 77.414 47.229 73.521C45.093 71.144 42.991 68.478 40.975 65.586C37.582 65.271 34.332 64.778 31.304 64.119ZM50 71.856C49.859 71.856 49.724 71.796 49.629 71.691C47.966 69.852 46.319 67.827 44.733 65.673C44.619 65.518 44.604 65.31 44.695 65.14C44.786 64.97 44.956 64.866 45.16 64.877C48.466 65.038 51.534 65.038 54.84 64.877C55.04 64.865 55.214 64.97 55.305 65.14C55.396 65.31 55.382 65.517 55.267 65.673C53.681 67.826 52.034 69.851 50.371 71.691C50.276 71.796 50.141 71.856 50 71.856ZM46.167 65.924C47.418 67.579 48.704 69.15 50 70.608C51.297 69.15 52.582 67.58 53.833 65.924C51.221 66.024 48.779 66.024 46.167 65.924ZM50 63C47.631 63 45.243 62.912 42.901 62.737C42.748 62.726 42.609 62.645 42.523 62.517C41.186 60.528 39.937 58.519 38.811 56.547C37.631 54.479 36.517 52.349 35.501 50.215C35.436 50.079 35.436 49.921 35.501 49.785C36.517 47.651 37.631 45.521 38.811 43.453C39.936 41.483 41.185 39.474 42.524 37.482C42.609 37.355 42.749 37.274 42.902 37.262C47.586 36.912 52.415 36.912 57.098 37.262C57.251 37.273 57.39 37.354 57.476 37.482C58.815 39.474 60.064 41.483 61.189 43.453C62.369 45.521 63.483 47.651 64.499 49.785C64.564 49.921 64.564 50.079 64.499 50.215C63.483 52.349 62.369 54.479 61.189 56.547C60.063 58.519 58.814 60.528 57.477 62.517C57.392 62.644 57.252 62.725 57.099 62.737C54.757 62.912 52.369 63 50 63ZM43.218 61.757C47.697 62.079 52.303 62.079 56.781 61.757C58.054 59.854 59.244 57.935 60.32 56.05C61.448 54.073 62.515 52.039 63.493 50C62.515 47.961 61.448 45.926 60.32 43.95C59.245 42.067 58.055 40.148 56.78 38.242C52.301 37.92 47.696 37.92 43.217 38.242C41.943 40.148 40.752 42.067 39.677 43.95C38.549 45.927 37.482 47.961 36.504 50C37.482 52.039 38.549 54.074 39.677 56.05C40.755 57.936 41.945 59.854 43.218 61.757ZM60.888 62.371C60.718 62.371 60.557 62.284 60.465 62.138C60.362 61.974 60.363 61.766 60.466 61.603C61.394 60.142 62.199 58.812 62.926 57.538C63.69 56.2 64.454 54.78 65.199 53.319C65.287 53.146 65.472 53.043 65.662 53.047C65.856 53.054 66.029 53.172 66.105 53.352C67.12 55.751 67.999 58.15 68.719 60.481C68.761 60.614 68.744 60.759 68.674 60.879C68.604 61 68.486 61.086 68.35 61.116C66 61.641 63.509 62.062 60.947 62.368C60.927 62.37 60.907 62.371 60.888 62.371ZM65.596 54.731C65.002 55.869 64.398 56.976 63.795 58.033C63.212 59.055 62.579 60.112 61.875 61.242C63.845 60.98 65.765 60.649 67.602 60.255C67.025 58.441 66.353 56.59 65.596 54.731ZM39.112 62.371C39.092 62.371 39.072 62.37 39.052 62.368C36.491 62.061 34 61.64 31.65 61.115C31.514 61.085 31.397 60.999 31.326 60.878C31.256 60.757 31.24 60.613 31.281 60.48C32.001 58.148 32.88 55.75 33.895 53.351C33.971 53.172 34.144 53.053 34.338 53.046C34.52 53.027 34.713 53.145 34.801 53.318C35.546 54.779 36.31 56.199 37.074 57.537C37.802 58.811 38.607 60.141 39.534 61.602C39.638 61.765 39.638 61.973 39.535 62.137C39.443 62.284 39.283 62.371 39.112 62.371ZM32.399 60.255C34.236 60.649 36.156 60.98 38.126 61.242C37.421 60.112 36.789 59.055 36.206 58.033C35.602 56.976 34.999 55.868 34.405 54.731C33.647 56.59 32.975 58.441 32.399 60.255ZM71.165 60.401C70.95 60.401 70.753 60.262 70.687 60.047C69.712 56.868 68.439 53.558 66.905 50.209C66.844 50.077 66.844 49.924 66.905 49.792C68.439 46.443 69.712 43.132 70.688 39.952C70.768 39.693 71.042 39.548 71.299 39.617C80.367 42.116 86 46.094 86 50C86 53.906 80.366 57.884 71.297 60.383C71.253 60.395 71.208 60.401 71.165 60.401ZM67.909 50C69.345 53.155 70.552 56.277 71.498 59.288C79.717 56.945 85 53.322 85 50C85 46.678 79.717 43.055 71.498 40.712C70.551 43.724 69.344 46.846 67.909 50ZM28.835 60.401C28.791 60.401 28.747 60.395 28.702 60.383C19.634 57.884 14 53.906 14 50C14 46.094 19.633 42.116 28.702 39.617C28.96 39.548 29.233 39.693 29.313 39.952C30.289 43.132 31.562 46.443 33.096 49.792C33.157 49.924 33.157 50.076 33.096 50.209C31.561 53.559 30.289 56.869 29.314 60.047C29.248 60.262 29.05 60.401 28.835 60.401ZM28.502 40.712C20.283 43.055 15 46.678 15 50C15 53.322 20.283 56.945 28.502 59.288C29.449 56.277 30.655 53.156 32.091 50C30.656 46.846 29.449 43.724 28.502 40.712ZM65.645 46.957C65.457 46.957 65.285 46.852 65.199 46.684C64.442 45.196 63.698 43.815 62.927 42.464C62.201 41.192 61.396 39.862 60.466 38.398C60.362 38.235 60.362 38.027 60.465 37.863C60.568 37.7 60.752 37.61 60.948 37.633C63.511 37.94 66.002 38.361 68.352 38.885C68.488 38.915 68.605 39.001 68.676 39.122C68.746 39.243 68.762 39.387 68.721 39.52C68 41.856 67.12 44.255 66.107 46.651C66.031 46.83 65.858 46.949 65.664 46.956C65.656 46.957 65.65 46.957 65.645 46.957ZM63.794 41.968C64.405 43.038 64.999 44.126 65.595 45.27C66.351 43.414 67.023 41.561 67.6 39.745C65.763 39.351 63.843 39.02 61.872 38.758C62.58 39.89 63.212 40.947 63.794 41.968ZM34.355 46.957C34.349 46.957 34.343 46.957 34.337 46.957C34.143 46.95 33.97 46.832 33.894 46.652C32.881 44.256 32.001 41.857 31.28 39.521C31.238 39.388 31.255 39.243 31.325 39.123C31.395 39.002 31.513 38.916 31.649 38.886C33.999 38.361 36.49 37.94 39.053 37.634C39.248 37.614 39.433 37.701 39.536 37.864C39.639 38.028 39.638 38.236 39.535 38.399C38.605 39.863 37.8 41.193 37.074 42.465C36.303 43.816 35.559 45.196 34.802 46.685C34.715 46.852 34.543 46.957 34.355 46.957ZM32.399 39.745C32.976 41.561 33.649 43.414 34.404 45.27C35.001 44.126 35.594 43.038 36.205 41.968C36.788 40.947 37.42 39.89 38.126 38.758C36.156 39.02 34.236 39.351 32.399 39.745ZM69.063 36.974C69.026 36.974 68.99 36.97 68.953 36.962C65.765 36.244 62.316 35.715 58.703 35.389C58.556 35.376 58.421 35.298 58.337 35.176C56.204 32.1 53.974 29.282 51.71 26.799C51.53 26.602 51.537 26.298 51.726 26.109C55.927 21.899 59.909 19.201 63.24 18.309C65.109 17.809 66.678 17.922 67.894 18.631C71.249 20.591 71.883 27.476 69.547 36.599C69.489 36.823 69.287 36.974 69.063 36.974ZM59.025 34.414C62.418 34.729 65.668 35.222 68.696 35.881C70.747 27.568 70.245 21.162 67.389 19.494C66.41 18.923 65.098 18.848 63.498 19.274C60.424 20.098 56.721 22.586 52.77 26.48C54.907 28.855 57.009 31.521 59.025 34.414ZM30.937 36.974C30.713 36.974 30.511 36.823 30.453 36.598C28.117 27.475 28.75 20.591 32.105 18.631C32.105 18.631 32.105 18.631 32.106 18.631C33.322 17.922 34.893 17.809 36.759 18.309C40.091 19.202 44.072 21.899 48.273 26.109C48.461 26.298 48.468 26.602 48.289 26.799C46.025 29.282 43.795 32.101 41.662 35.176C41.578 35.298 41.444 35.376 41.296 35.389C37.684 35.715 34.235 36.244 31.046 36.962C31.01 36.97 30.974 36.974 30.937 36.974ZM32.61 19.494C29.755 21.162 29.253 27.568 31.303 35.881C34.331 35.222 37.581 34.729 40.974 34.414C42.991 31.521 45.092 28.855 47.228 26.479C43.277 22.585 39.575 20.097 36.5 19.273C34.907 18.848 33.593 18.922 32.61 19.494ZM54.864 35.122C54.856 35.122 54.848 35.122 54.84 35.122C51.534 34.961 48.467 34.961 45.161 35.122C44.955 35.127 44.787 35.028 44.696 34.859C44.605 34.689 44.619 34.482 44.734 34.326C46.321 32.171 47.968 30.146 49.63 28.308C49.82 28.099 50.182 28.099 50.372 28.308C52.033 30.145 53.68 32.17 55.268 34.326C55.382 34.481 55.397 34.689 55.306 34.859C55.217 35.021 55.047 35.122 54.864 35.122ZM50 34C51.242 34 52.527 34.026 53.833 34.077C52.581 32.42 51.295 30.849 50 29.393C48.705 30.85 47.419 32.42 46.167 34.077C47.473 34.026 48.758 34 50 34Z" fill="#1F212B"/>
</g>
<defs>
<filter id="filter0_d_5_171" x="-4" y="0" width="108" height="108" filterUnits="userSpaceOnUse" color-interpolation-filters="sRGB">
<feFlood flood-opacity="0" result="BackgroundImageFix"/>
<feColorMatrix in="SourceAlpha" type="matrix" values="0 0 0 0 0 0 0 0 0 0 0 0 0 0 0 0 0 0 127 0" result="hardAlpha"/>
<feOffset dy="4"/>
<feGaussianBlur stdDeviation="2"/>
<feComposite in2="hardAlpha" operator="out"/>
<feColorMatrix type="matrix" values="0 0 0 0 0 0 0 0 0 0 0 0 0 0 0 0 0 0 0.25 0"/>
<feBlend mode="normal" in2="BackgroundImageFix" result="effect1_dropShadow_5_171"/>
<feBlend mode="normal" in="SourceGraphic" in2="effect1_dropShadow_5_171" result="shape"/>
</filter>
</defs>
</svg>
