<svg width="554" height="442" viewBox="0 0 554 442" fill="none" xmlns="http://www.w3.org/2000/svg">
<path d="M198.397 441.793C188.549 441.793 174.173 436.97 142.237 401.23C126.005 383.065 112.703 365.197 112.144 364.445C111.768 363.938 111.427 363.408 111.119 362.857C105.048 351.925 101.838 339.537 101.838 327.03V236.138C101.838 228.213 108.264 221.788 116.188 221.788H232.263C248.887 221.788 264.568 228.209 276.418 239.87L335.853 298.353C353.071 315.571 353.071 343.454 335.936 360.59C335.91 360.614 335.79 360.735 335.765 360.759C327.538 368.986 316.501 373.557 304.763 373.557C293.022 373.557 281.986 368.985 273.685 360.684L214.315 301.314C208.473 301.27 199.027 301.226 191.476 301.192L180.359 301.139C172.434 301.097 166.042 294.64 166.084 286.715C166.126 278.816 172.543 272.44 180.432 272.44C180.458 272.44 180.482 272.44 180.508 272.44L191.607 272.493C198.361 272.523 205.553 272.556 211.065 272.592C213.846 272.609 216.204 272.628 217.871 272.647C221.849 272.691 226.357 272.742 230.527 276.942L293.978 340.392C296.858 343.273 300.688 344.859 304.763 344.859C308.837 344.859 312.667 343.273 315.547 340.392C315.573 340.366 315.693 340.247 315.718 340.223C321.59 334.351 321.59 324.675 315.643 318.727L256.29 260.324C249.843 253.98 241.312 250.486 232.266 250.486H130.539V327.028C130.539 334.365 132.347 341.637 135.774 348.116C138.389 351.584 149.36 365.976 162.243 380.539C187.721 409.336 197.456 412.747 198.748 413.093L353.897 413.063C364.471 413.063 376.799 407.525 388.518 401.853C398.411 397.067 471.852 347.251 515.822 316.976C516.062 316.811 516.307 316.653 516.557 316.502C524.756 311.564 527.41 300.871 522.47 292.669C520.079 288.698 516.281 285.896 511.781 284.778C507.366 283.682 502.791 284.337 498.871 286.62L391.685 357.702C385.083 362.081 376.174 360.276 371.796 353.674C367.415 347.069 369.219 338.164 375.825 333.784L483.308 262.504C483.48 262.389 483.657 262.279 483.835 262.171C494.373 255.823 506.757 253.96 518.696 256.923C530.638 259.888 540.71 267.325 547.058 277.863C560.076 299.486 553.204 327.629 531.773 340.838C518.477 349.99 416.003 420.435 401.024 427.685C386.307 434.807 370.547 441.761 353.903 441.761L198.405 441.793C198.402 441.793 198.398 441.793 198.397 441.793Z" fill="#4C5764"/>
<path d="M382.5 267C374.493 267 368 255.007 368 240.209V145.791C368 130.995 374.493 119 382.5 119C390.507 119 397 130.993 397 145.791V240.211C397 255.007 390.507 267 382.5 267Z" fill="#EF4444"/>
<path d="M401.317 267.019H364.337C340.151 267.019 320.473 247.341 320.473 223.154V196.547C320.473 188.622 326.899 182.197 334.823 182.197H430.232C438.156 182.197 444.582 188.621 444.582 196.547C444.582 204.472 438.156 210.897 430.232 210.897H349.172V223.154C349.172 231.517 355.975 238.32 364.337 238.32H401.317C409.241 238.32 415.667 244.744 415.667 252.67C415.667 260.595 409.241 267.019 401.317 267.019Z" fill="#84CC16"/>
<path d="M363.738 267.019H400.718C424.904 267.019 444.582 247.341 444.582 223.154V196.547C444.582 188.622 438.156 182.197 430.232 182.197H334.823C326.899 182.197 320.473 188.621 320.473 196.547C320.473 204.472 326.899 210.897 334.823 210.897H415.883V223.154C415.883 231.517 409.08 238.32 400.718 238.32H363.738C355.814 238.32 349.388 244.744 349.388 252.67C349.388 260.595 355.814 267.019 363.738 267.019Z" fill="#84CC16"/>
<path d="M363.738 267.019H400.718C424.904 267.019 444.582 247.341 444.582 223.154V196.547C444.582 188.622 438.156 182.197 430.232 182.197H334.823C326.899 182.197 320.473 188.621 320.473 196.547C320.473 204.472 326.899 210.897 334.823 210.897H415.883V223.154C415.883 231.517 409.08 238.32 400.718 238.32H363.738C355.814 238.32 349.388 244.744 349.388 252.67C349.388 260.595 355.814 267.019 363.738 267.019Z" fill="#84CC16"/>
<path d="M429.742 213.93H335.898C328.692 213.93 322.6 208.583 321.669 201.436C320.663 193.723 317.78 190.591 309.594 182.671L307.76 180.892C294.35 167.828 274.087 148.084 274.087 102.857C274.087 73.739 285.692 47.196 306.764 28.12C326.795 9.986 353.808 0 382.826 0C411.844 0 438.857 9.986 458.888 28.12C463.457 32.256 467.643 36.813 471.332 41.666C473.421 44.414 475.393 47.313 477.185 50.279C478.062 51.728 478.93 53.252 479.754 54.795C481.373 57.821 482.855 60.988 484.158 64.203C485.127 66.595 486.018 69.069 486.805 71.559C489.963 81.548 491.565 92.078 491.565 102.856C491.565 121.63 488.214 137.385 481.322 151.023C480.909 151.841 480.487 152.645 480.055 153.432C478.83 155.678 477.471 157.913 476.024 160.066C475.566 160.75 475.097 161.426 474.623 162.091C472.852 164.576 470.965 166.966 468.853 169.401C465.098 173.732 461.291 177.425 457.936 180.686L455.989 182.567C447.836 190.416 444.966 193.529 443.98 201.371C443.076 208.549 436.975 213.93 429.742 213.93ZM346.975 185.231H418.598C422.627 174.848 429.439 168.29 436.083 161.894L437.946 160.096C441.033 157.1 444.225 154.002 447.177 150.598C448.689 148.856 450.02 147.171 451.251 145.445C451.567 145.003 451.882 144.545 452.197 144.077C453.161 142.641 454.062 141.158 454.878 139.664C455.164 139.14 455.441 138.616 455.709 138.083C460.525 128.551 462.867 117.029 462.867 102.858C462.867 95.02 461.715 87.402 459.442 80.214C458.879 78.439 458.248 76.681 457.561 74.986C456.637 72.707 455.588 70.466 454.443 68.323C453.858 67.228 453.249 66.158 452.631 65.137C451.355 63.029 449.965 60.981 448.485 59.038C445.863 55.587 442.884 52.345 439.627 49.396C424.884 36.049 404.712 28.7 382.825 28.7C360.939 28.7 340.766 36.05 326.023 49.396C311.038 62.962 302.785 81.948 302.785 102.855C302.785 135.977 315.494 148.359 327.786 160.335L329.548 162.043C336.156 168.438 342.93 174.991 346.975 185.231Z" fill="#84CC16"/>
<path d="M429.742 213.93H335.898C328.692 213.93 322.6 208.583 321.669 201.436C320.663 193.723 317.78 190.591 309.594 182.671L307.76 180.892C294.35 167.828 274.087 148.084 274.087 102.857C274.087 73.739 285.692 47.196 306.764 28.12C326.795 9.986 353.808 0 382.826 0C411.844 0 438.857 9.986 458.888 28.12C463.457 32.256 467.643 36.813 471.332 41.666C473.421 44.414 475.393 47.313 477.185 50.279C478.062 51.728 478.93 53.252 479.754 54.795C481.373 57.821 482.855 60.988 484.158 64.203C485.127 66.595 486.018 69.069 486.805 71.559C489.963 81.548 491.565 92.078 491.565 102.856C491.565 121.63 488.214 137.385 481.322 151.023C480.909 151.841 480.487 152.645 480.055 153.432C478.83 155.678 477.471 157.913 476.024 160.066C475.566 160.75 475.097 161.426 474.623 162.091C472.852 164.576 470.965 166.966 468.853 169.401C465.098 173.732 461.291 177.425 457.936 180.686L455.989 182.567C447.836 190.416 444.966 193.529 443.98 201.371C443.076 208.549 436.975 213.93 429.742 213.93ZM346.975 185.231H418.598C422.627 174.848 429.439 168.29 436.083 161.894L437.946 160.096C441.033 157.1 444.225 154.002 447.177 150.598C448.689 148.856 450.02 147.171 451.251 145.445C451.567 145.003 451.882 144.545 452.197 144.077C453.161 142.641 454.062 141.158 454.878 139.664C455.164 139.14 455.441 138.616 455.709 138.083C460.525 128.551 462.867 117.029 462.867 102.858C462.867 95.02 461.715 87.402 459.442 80.214C458.879 78.439 458.248 76.681 457.561 74.986C456.637 72.707 455.588 70.466 454.443 68.323C453.858 67.228 453.249 66.158 452.631 65.137C451.355 63.029 449.965 60.981 448.485 59.038C445.863 55.587 442.884 52.345 439.627 49.396C424.884 36.049 404.712 28.7 382.825 28.7C360.939 28.7 340.766 36.05 326.023 49.396C311.038 62.962 302.785 81.948 302.785 102.855C302.785 135.977 315.494 148.359 327.786 160.335L329.548 162.043C336.156 168.438 342.93 174.991 346.975 185.231Z" fill="#84CC16"/>
<rect x="335" y="189" width="98" height="62" fill="#84CC16"/>
<path d="M382.571 142.92C378.898 142.92 375.227 141.519 372.424 138.717L339.203 105.496C333.599 99.8924 333.599 90.8064 339.203 85.2034C344.808 79.5994 353.891 79.5984 359.498 85.2034L382.572 108.277L405.646 85.2034C411.252 79.6014 420.336 79.5994 425.941 85.2034C431.546 90.8074 431.545 99.8934 425.941 105.496L392.72 138.717C389.916 141.52 386.244 142.92 382.571 142.92Z" fill="#EF4444"/>
<path d="M98.491 439.281H14.35C6.426 439.281 0 432.857 0 424.931V235.35C0 227.425 6.426 221 14.35 221H98.492C106.416 221 112.842 227.424 112.842 235.35V424.931C112.841 432.857 106.415 439.281 98.491 439.281ZM28.699 410.582H84.142V249.7H28.699V410.582Z" fill="#4C5764"/>
</svg>
