<svg width="109" height="108" viewBox="0 0 109 108" fill="none" xmlns="http://www.w3.org/2000/svg">
<g clip-path="url(#clip0_7_176)" filter="url(#filter0_d_7_176)">
<path d="M54.386 0.764954L5.03784 49.8861L54.386 99.2431L103.514 49.8861L54.386 0.764954Z" fill="#019833"/>
<path d="M54.3778 5.27344V1.12305L5.36377 49.8942H9.56846L54.3778 5.27344Z" fill="#66FE98"/>
<path d="M54.3778 5.27344V1.12305L103.555 49.8942H99.0079L54.3778 5.27344Z" fill="#45FE02"/>
<path d="M54.3778 94.7347V99.3246L5.36377 49.8942H9.56846L54.3778 94.7347Z" fill="#017D17"/>
<path d="M54.3778 94.7347V99.3246L103.555 49.8942H99.0079L54.3778 94.7347Z" fill="#005D04"/>
<path d="M29.7608 89.9577H20.2595L16.5437 86.3444V17.3828H13.6021L11.076 14.86V7.14518L13.6917 4.32129H46.9218L49.9124 7.30794V14.624L47.427 17.6432H44.9173V40.9587L68.5401 17.6432H67.2282L64.474 14.6891V6.92546L67.1793 4.4515H100.719L103.376 7.10449V14.445L29.7608 89.9577Z" fill="black"/>
<path d="M54.3778 100L4.28003 49.8942L54.3778 0L104.28 49.8942L54.3778 100ZM5.81197 49.8942L54.3778 98.4701L102.74 49.8942L54.3778 1.53809L5.81197 49.8942Z" fill="black"/>
<path d="M46.4981 8.87042L47.973 7.91827L46.4655 6.35577H14.4984L12.8687 7.98338V14.1276L14.6777 15.9261L15.5333 14.1276L14.4007 12.9964V8.65883L15.2481 7.91014L45.4306 7.95083L46.4981 8.87042Z" fill="#FEFEFE"/>
<path d="M20.4714 13.9811V85.8887L21.4899 86.849L20.6751 88.3789L18.5483 86.2875V15.8447L20.4714 13.9811Z" fill="#FEFEFE"/>
<path d="M15.3133 13.9811L14.6777 15.9261H18.532L20.7647 13.9811H15.3133Z" fill="#808080"/>
<path d="M69.3306 14.0056L67.9779 13.0209V9.18785L69.3876 7.77997H98.8612L99.9939 9.2855L101.624 8.01597L99.945 6.51044H68.2631L66.6823 8.08108V14.2741L68.312 15.7796L69.298 14.0056H69.3306ZM42.7171 45.5729L39.637 53.0355L74.3583 18.1722L74.1872 13.9567L42.7171 45.5729Z" fill="#FEFEFE"/>
<path d="M46.4248 8.84601L47.973 7.91827V13.9811L46.2048 15.7389H42.7742L42.7171 45.5485L39.6533 52.9948V13.9811H45.3736L46.4411 13.1103L46.4248 8.84601Z" fill="#808080"/>
<path d="M99.8879 8.86228L101.599 8.01593V13.5498L28.6607 88.3789H20.675L21.4573 86.914H27.5851L99.896 12.2396L99.8879 8.86228Z" fill="#808080"/>
<path d="M74.2116 13.9567L72.4352 15.739L68.3608 15.7796L69.3631 13.9893H74.2523L74.2116 13.9567Z" fill="#808080"/>
<path d="M69.1105 7.72296L67.986 8.84601V12.9964L68.972 13.9811H74.1953V17.985L39.6369 53.0111V14.0299H45.3817L46.5633 12.8499V8.65883L45.4713 7.82062H15.2562L14.2621 8.80532V13.0941L15.2725 14.095H20.5284V85.8805L21.5144 86.8652H27.4873L99.896 12.1419V8.84601L98.7715 7.72296H69.1105Z" fill="#CCCCCC"/>
<path d="M27.5281 86.9629H21.4737L20.4306 85.9131V14.1927H15.2318L14.1725 13.1347V8.76463L15.2155 7.72296H45.504L46.6529 8.61001V12.8906L45.4225 14.1276H39.7184V52.775L74.0812 17.9443V14.0788H68.9313L67.8883 13.0208V8.81346L69.0698 7.62531H98.8042L99.9857 8.81346V12.207L27.5444 86.9629H27.5281ZM21.5551 86.7676H27.4466L99.8064 12.1094V8.85415L98.7308 7.81248H69.1513L68.0757 8.8867V12.9557L69.0128 13.8834H74.2931V18.0257L39.5473 53.2471V13.9323H45.341L46.4655 12.8174V8.70766L45.4388 7.89386H15.2888L14.3518 8.82973V13.0208L15.3051 13.973H20.6099V85.8073L21.547 86.735L21.5551 86.7676Z" fill="#808080"/>
<path d="M56.8469 56.1035C56.7917 56.1195 56.7394 56.1442 56.692 56.1768L55.2905 57.3812C55.2532 57.4221 55.2229 57.4688 55.2008 57.5195L53.7993 61.4421C53.7797 61.501 53.7769 61.5642 53.7913 61.6245C53.8057 61.6849 53.8367 61.7401 53.8807 61.7839L54.9482 62.8499C54.9772 62.8809 55.0127 62.905 55.0522 62.9204C55.0916 62.9359 55.1341 62.9424 55.1764 62.9395H59.5033C59.5457 62.9437 59.5885 62.9377 59.6282 62.9222C59.6679 62.9066 59.7033 62.8819 59.7315 62.8499L60.8641 61.7188C60.9036 61.6779 60.9317 61.6274 60.9456 61.5723L62.1353 57.4463C62.151 57.3909 62.1518 57.3324 62.1375 57.2766C62.1232 57.2209 62.0943 57.1699 62.0538 57.1289L61.1167 56.193C61.0865 56.1638 61.0508 56.1408 61.0116 56.1254C60.9725 56.1101 60.9306 56.1026 60.8886 56.1035H56.8143H56.8469ZM48.9182 67.1631C48.8584 67.1733 48.8031 67.2013 48.7595 67.2434C48.7159 67.2855 48.686 67.3398 48.6738 67.3991L48.136 69.5231C48.116 69.6072 48.1294 69.6958 48.1735 69.7702C48.2176 69.8445 48.2888 69.8989 48.3723 69.9219H50.9961L44.6809 87.9395C44.6669 87.9801 44.6609 88.0231 44.6636 88.0659C44.6662 88.1088 44.6773 88.1508 44.6962 88.1894C44.7152 88.2279 44.7416 88.2624 44.7739 88.2907C44.8063 88.3191 44.8439 88.3408 44.8847 88.3545H44.9906H54.1741C54.2432 88.3542 54.3105 88.332 54.3662 88.291C54.4218 88.2501 54.463 88.1925 54.4837 88.1266L55.0867 86.1979C55.1006 86.1574 55.106 86.1144 55.1028 86.0717C55.0995 86.0289 55.0876 85.9873 55.0678 85.9493C55.048 85.9113 55.0207 85.8776 54.9876 85.8504C54.9544 85.8232 54.9161 85.803 54.8749 85.791C54.8428 85.7831 54.8092 85.7831 54.7771 85.791H52.6992L58.941 67.5781C58.955 67.5381 58.9608 67.4957 58.9581 67.4533C58.9554 67.411 58.9442 67.3697 58.9252 67.3317C58.9062 67.2938 58.8798 67.2601 58.8475 67.2325C58.8153 67.2049 58.7778 67.1841 58.7373 67.1712H58.6395H48.9182V67.1631ZM78.1474 67.2282C78.0781 67.244 78.0154 67.281 77.9681 67.334L76.0532 69.4906H73.0137L70.9929 67.391C70.9621 67.3596 70.9253 67.3348 70.8847 67.318C70.8441 67.3012 70.8005 67.2928 70.7566 67.2933H63.5043C63.4374 67.2936 63.3721 67.3139 63.3169 67.3516C63.2617 67.3893 63.2191 67.4427 63.1946 67.5049L62.5264 69.4987C62.5124 69.5393 62.5064 69.5823 62.5091 69.6252C62.5117 69.6681 62.5228 69.71 62.5417 69.7486C62.5607 69.7872 62.5871 69.8216 62.6194 69.85C62.6518 69.8783 62.6894 69.9 62.7302 69.9138H62.8361H64.7755L58.7292 87.736C58.7152 87.7761 58.7094 87.8185 58.7121 87.8608C58.7149 87.9031 58.726 87.9445 58.745 87.9824C58.764 88.0203 58.7904 88.0541 58.8227 88.0817C58.855 88.1092 58.8924 88.1301 58.9329 88.1429C58.9677 88.1515 59.004 88.1515 59.0388 88.1429H66.7637C66.8301 88.1446 66.8951 88.1249 66.9494 88.0868C67.0037 88.0487 67.0443 87.9942 67.0652 87.9313L67.6601 86.1979C67.6742 86.1573 67.6801 86.1143 67.6775 86.0715C67.6748 86.0286 67.6637 85.9866 67.6448 85.948C67.6258 85.9094 67.5995 85.875 67.5671 85.8466C67.5348 85.8183 67.4971 85.7966 67.4564 85.7829H67.3586H66.0059L69.8602 73.6491H76.8028L72.4107 87.7442C72.3851 87.8262 72.393 87.915 72.4327 87.9912C72.4724 88.0674 72.5407 88.1249 72.6226 88.1511H80.1764C80.2394 88.1522 80.3012 88.1341 80.3536 88.0992C80.406 88.0643 80.4465 88.0142 80.4697 87.9557L81.1379 86.3281C81.1702 86.2483 81.1694 86.1589 81.1358 86.0796C81.1022 86.0003 81.0385 85.9375 80.9586 85.905C80.921 85.8973 80.8822 85.8973 80.8446 85.905H79.5245L83.444 73.5596H90.0851L85.6197 87.7279C85.5966 87.8109 85.6066 87.8997 85.6476 87.9756C85.6887 88.0514 85.7575 88.1085 85.8397 88.1348H94.1268C94.1924 88.1383 94.2574 88.1203 94.3118 88.0836C94.3662 88.0469 94.4071 87.9934 94.4283 87.9313L95.0965 86.1979C95.1121 86.1574 95.1193 86.1141 95.1179 86.0707C95.1164 86.0273 95.1063 85.9846 95.0881 85.9452C95.0698 85.9057 95.0439 85.8703 95.0117 85.8411C94.9796 85.8118 94.9419 85.7893 94.901 85.7748H94.795H93.1653L98.1034 69.751C98.1198 69.7005 98.1239 69.6469 98.1154 69.5945C98.1069 69.5422 98.086 69.4926 98.0545 69.4499L96.5225 67.391C96.4909 67.3525 96.4511 67.3216 96.406 67.3004C96.3609 67.2793 96.3116 67.2685 96.2618 67.2689H90.4029C90.3577 67.2682 90.3129 67.2765 90.2709 67.2933C90.2289 67.3101 90.1907 67.335 90.1585 67.3665L88.3169 69.3929H85.0574L83.1425 67.3014C83.1117 67.2701 83.0749 67.2453 83.0343 67.2285C82.9937 67.2117 82.9501 67.2033 82.9062 67.2038H78.1474V67.2282Z" fill="#CCCCCC"/>
<path d="M54.4186 63.4033C54.6177 63.5953 54.8833 63.7031 55.1601 63.7044H59.4952C59.6456 63.711 59.7958 63.6861 59.9361 63.6315C60.0764 63.5769 60.2037 63.4936 60.31 63.3871L61.4019 62.2559C61.5318 62.1269 61.627 61.9674 61.679 61.792L62.885 57.6579C62.9367 57.4703 62.9383 57.2724 62.8897 57.0839C62.8411 56.8955 62.744 56.723 62.6079 56.5837L61.6627 55.6478C61.5638 55.5479 61.4457 55.469 61.3154 55.4158C61.1852 55.3627 61.0455 55.3364 60.9049 55.3386H56.6839C56.5043 55.3815 56.3371 55.465 56.195 55.5827L54.8015 56.8034C54.6664 56.9278 54.5654 57.0847 54.5082 57.2591L53.1066 61.1735C53.039 61.3668 53.0268 61.5752 53.0714 61.7751C53.1161 61.975 53.2157 62.1584 53.3592 62.3047L54.443 63.3871L54.4186 63.4033ZM60.7256 56.8929L61.3449 57.5033L60.2448 61.2793L59.324 62.2071H55.3556L54.6141 61.4665L55.8853 57.902L57.0669 56.8929H60.7256Z" fill="black"/>
<path d="M98.6656 69.0186L97.1744 66.9597C97.0707 66.8303 96.9393 66.7259 96.7898 66.6541C96.6403 66.5822 96.4766 66.5448 96.3107 66.5446H90.4111C90.2593 66.5391 90.1081 66.5661 89.9676 66.6236C89.827 66.6811 89.7004 66.768 89.5962 66.8783L87.9665 68.6768H85.4241L83.7373 66.8132C83.6328 66.7033 83.5061 66.6167 83.3657 66.5592C83.2252 66.5017 83.0742 66.4746 82.9225 66.4795H77.9925C77.7614 66.5283 77.5525 66.6512 77.3977 66.8295L75.7109 68.7337H73.3397L71.5388 66.862C71.433 66.7537 71.3062 66.6682 71.166 66.6109C71.0259 66.5535 70.8754 66.5254 70.724 66.5283H63.4961C63.2735 66.5298 63.0566 66.5991 62.8746 66.7271C62.6925 66.8551 62.554 67.0356 62.4775 67.2445L61.8012 69.2546C61.7129 69.5298 61.7359 69.8287 61.8654 70.0872C61.9948 70.3457 62.2204 70.5434 62.4938 70.638C62.6053 70.6702 62.7202 70.6893 62.8361 70.695H63.7161L58.0121 87.5082C57.9215 87.7812 57.9426 88.079 58.0708 88.3366C58.199 88.5942 58.4239 88.7908 58.6966 88.8835C58.8091 88.9228 58.9277 88.9421 59.047 88.9405H66.7719C66.9979 88.9395 67.218 88.8685 67.4019 88.7373C67.5858 88.6062 67.7244 88.4212 67.7986 88.208L68.3935 86.4665C68.4841 86.1934 68.463 85.8957 68.3348 85.6381C68.2066 85.3805 67.9816 85.1839 67.709 85.0912C67.5982 85.0558 67.483 85.0366 67.3667 85.0342H67.0245L70.398 74.4548H75.7761L71.7018 87.5651C71.659 87.7014 71.6436 87.8447 71.6565 87.9869C71.6694 88.1292 71.7104 88.2674 71.7771 88.3937C71.8437 88.5201 71.9347 88.632 72.0449 88.723C72.155 88.814 72.2822 88.8824 72.4189 88.9242C72.5246 88.9562 72.6344 88.9727 72.7448 88.973H80.209C80.4223 88.9727 80.6306 88.9092 80.8077 88.7903C80.9847 88.6715 81.1223 88.5028 81.2031 88.3057L81.8713 86.6781C81.9243 86.5461 81.9508 86.405 81.9492 86.2628C81.9476 86.1206 81.9179 85.9801 81.8619 85.8494C81.8059 85.7186 81.7247 85.6002 81.6228 85.5008C81.521 85.4014 81.4005 85.3231 81.2683 85.2702C81.1406 85.2214 81.0057 85.1939 80.869 85.1888H80.5594L83.9981 74.3734H89.0258L84.8781 87.557C84.8285 87.7187 84.8174 87.8899 84.846 88.0566C84.8745 88.2234 84.9418 88.3812 85.0424 88.5173C85.143 88.6534 85.2742 88.764 85.4254 88.8404C85.5766 88.9167 85.7436 88.9565 85.913 88.9567H94.0616C94.2825 88.9577 94.4986 88.8923 94.6817 88.7689C94.8649 88.6455 95.0066 88.4699 95.0884 88.265L95.7566 86.5153C95.854 86.2433 95.8403 85.9438 95.7183 85.6818C95.5962 85.4198 95.3758 85.2164 95.1047 85.1156C94.9871 85.0729 94.8631 85.0509 94.738 85.0505H94.1431L98.8041 69.987C98.8595 69.8207 98.8736 69.6435 98.8452 69.4705C98.8168 69.2976 98.7468 69.1341 98.6412 68.9942L98.6656 69.0186ZM92.1467 86.5642H94.1594L93.8335 87.378H86.4997L91.0955 72.7946H82.8899L78.4815 86.6293H80.209L79.9156 87.3454H73.3478L77.8785 72.8272H69.298L64.9629 86.4909H66.7393L66.4459 87.3047H59.6907L65.8429 69.1732H63.4472L63.8139 68.0664H70.5691L72.6878 70.2637H76.4036L78.4326 67.9932H82.7513L84.7478 70.1823H88.651L90.5903 68.0583H96.0499L97.3129 69.751L92.1386 86.5642H92.1467Z" fill="black"/>
<path d="M55.0949 85.083C54.9911 85.0549 54.8845 85.0385 54.7771 85.0342H53.7667L59.6907 67.8304C59.7367 67.6953 59.7554 67.5523 59.7459 67.4099C59.7363 67.2675 59.6987 67.1283 59.635 67.0005C59.5714 66.8727 59.4831 66.7587 59.3752 66.6651C59.2673 66.5715 59.1419 66.5001 59.0062 66.4551C58.8957 66.419 58.7803 66.3998 58.664 66.3981H48.7552C48.5565 66.4435 48.3747 66.544 48.2305 66.6879C48.0864 66.8319 47.9858 67.0135 47.9404 67.2119L47.4026 69.3441C47.3687 69.4841 47.363 69.6295 47.3857 69.7717C47.4084 69.914 47.459 70.0503 47.5348 70.1729C47.6106 70.2955 47.7099 70.4019 47.8271 70.4859C47.9442 70.5699 48.0769 70.6299 48.2174 70.6625C48.3042 70.6704 48.3915 70.6704 48.4782 70.6625H49.9123L43.9476 87.6709C43.8593 87.9462 43.8823 88.245 44.0117 88.5035C44.1411 88.7621 44.3667 88.9598 44.6402 89.0544C44.7512 89.0877 44.8665 89.1041 44.9824 89.1032H54.1822C54.4129 89.1035 54.6377 89.0302 54.8238 88.8941C55.0099 88.758 55.1477 88.5661 55.2171 88.3464L55.8201 86.4095C55.904 86.1333 55.8747 85.8351 55.7388 85.5803C55.6028 85.3255 55.3713 85.135 55.0949 85.0505V85.083ZM45.6099 87.614L52.0717 69.1732H49.016L49.3256 67.9281H58.061L51.6725 86.5723H54.223L53.897 87.6221L45.6099 87.614Z" fill="black"/>
</g>
<defs>
<filter id="filter0_d_7_176" x="0.280029" y="0" width="108" height="108" filterUnits="userSpaceOnUse" color-interpolation-filters="sRGB">
<feFlood flood-opacity="0" result="BackgroundImageFix"/>
<feColorMatrix in="SourceAlpha" type="matrix" values="0 0 0 0 0 0 0 0 0 0 0 0 0 0 0 0 0 0 127 0" result="hardAlpha"/>
<feOffset dy="4"/>
<feGaussianBlur stdDeviation="2"/>
<feComposite in2="hardAlpha" operator="out"/>
<feColorMatrix type="matrix" values="0 0 0 0 0 0 0 0 0 0 0 0 0 0 0 0 0 0 0.25 0"/>
<feBlend mode="normal" in2="BackgroundImageFix" result="effect1_dropShadow_7_176"/>
<feBlend mode="normal" in="SourceGraphic" in2="effect1_dropShadow_7_176" result="shape"/>
</filter>
<clipPath id="clip0_7_176">
<rect width="100" height="100" fill="white" transform="translate(4.28003)"/>
</clipPath>
</defs>
</svg>
