<svg width="100" height="102" viewBox="0 0 100 102" fill="none" xmlns="http://www.w3.org/2000/svg">
<g filter="url(#filter0_d_7_209)">
<path d="M91.6667 79.1667L13.75 91.4583L4.16666 28.75L81.6667 16.875L91.6667 79.1667Z" fill="#03A9F4"/>
<path d="M81.6667 16.875L91.6666 79.1667L13.75 91.4583L12.9167 85.4167L81.6667 16.875Z" fill="#039BE5"/>
<path d="M4.16666 28.75L9.16666 61.0417L46.25 22.2917L4.16666 28.75Z" fill="#29B6F6"/>
<path d="M17.2917 86.6666L8.95834 32.0833L78.3333 21.4583L87.0833 75.625L17.2917 86.6666ZM13.75 35.625L20.8333 81.875L82.2917 72.0833L75 26.0416L13.75 35.625Z" fill="white"/>
<path d="M23.125 56.25L23.9583 62.5L75 54.375L73.9583 48.125L23.125 56.25Z" fill="white"/>
<path d="M34.5833 71.4584L28.125 79.1667L28.9583 69.1667C28.9583 68.9584 28.9583 68.75 29.1667 68.5417L40 42.0834C40.4167 41.0417 41.6667 40.4167 42.7083 41.0417L44.5833 41.875C45.625 42.2917 46.25 43.5417 45.625 44.5834L35 70.8334C34.7917 71.0417 34.7917 71.25 34.5833 71.4584ZM63.9583 60.8334L44.5833 38.125C43.75 37.2917 43.9583 35.8334 44.7917 35.2084L46.4583 33.9584C47.2917 33.125 48.75 33.3334 49.375 34.1667L68.75 56.875L63.9583 60.8334ZM70 58.3334C70 58.3334 75 59.7917 75 65.625C75 69.375 73.9583 70.8334 73.9583 70.8334C73.9583 70.8334 73.125 68.3334 69.1667 66.875C63.75 65 63.9583 60.8334 63.9583 60.8334L68.5417 59.7917L70 58.3334Z" fill="white"/>
<path d="M42.5 52.0833L40 58.125L43.9583 54.375L44.7917 52.0833H42.5Z" fill="#03A9F4"/>
<path d="M40.625 62.5L43.9583 54.375L40 58.125L38.3333 62.5H40.625Z" fill="#039BE5"/>
<path d="M31.6667 62.5L35.8333 52.0833H33.5417L29.375 62.5H31.6667Z" fill="#03A9F4"/>
<path d="M70.625 55.8334L63.75 47.9167H61.0417L68.3333 56.25L68.75 56.875L63.9583 60.8334L61.25 57.7084L54.5833 50H51.875L58.125 57.2917L62.2917 62.2917L63.75 63.75L65.2083 62.5L70 58.3334L71.6667 57.0834L70.625 55.8334Z" fill="#039BE5"/>
<path d="M35.4167 43.5417V45.8334L45.8333 50.2084V47.9167L35.4167 43.5417Z" fill="#03A9F4"/>
<path d="M37.5 70L31.0417 67.2917L29.375 68.9584L37.5 72.2917V70Z" fill="#039BE5"/>
<path d="M27.0833 65.625V67.9167L29.375 68.9583L31.0417 67.2917L27.0833 65.625Z" fill="#03A9F4"/>
<path d="M78.9583 25.4166V25.625L80.4167 34.375L83.125 26.875C83.125 26.6666 83.3333 26.4583 83.3333 26.25L82.5 21.4583C80.8333 22.5 79.375 24.1666 78.9583 25.4166ZM70.625 67.5C70.2083 67.2916 69.7917 67.0833 69.1667 66.875C68.125 66.4583 67.5 66.25 66.875 65.8333L64.1667 75L68.75 74.375L70.625 67.5ZM62.9167 79.375L61.875 83.9583L66.25 83.125L67.5 78.75L62.9167 79.375ZM72.5 45.4166V45.625L71.6667 48.5416L73.9583 48.125L74.7917 52.7083L76.4583 46.6666L77.5 43.3333L76.0417 34.1666L73.75 41.4583L72.5 45.4166Z" fill="#0277BD"/>
<path d="M76.0417 34.1667L77.5 43.3333L80.2083 34.375L78.75 25.625C77.7083 28.5417 76.6667 31.4583 76.4583 31.875L76.0417 34.1667ZM64.1667 75L62.9167 79.375L67.5 78.75L68.75 74.375L64.1667 75ZM74.7917 52.7083L73.9583 48.125L71.6667 48.5417L69.7917 55.2083L74.1667 54.5833L74.7917 52.7083ZM70 58.3333L68.75 58.9583L66.875 65.8333C67.5 66.25 68.3333 66.6667 69.1667 66.875C69.7917 67.0833 70.2083 67.2917 70.625 67.5L72.7083 60C71.4583 58.75 70 58.3333 70 58.3333Z" fill="#90A4AE"/>
<path d="M72.7083 60L74.1666 54.375L69.5833 55L68.3333 59.5833L70 58.125C70 58.3333 71.4583 58.75 72.7083 60Z" fill="#0277BD"/>
<path d="M70 58.3333L68.3333 59.7916L66.6667 65.8333C67.2917 66.25 68.125 66.6666 68.9583 66.875C69.5833 67.0833 70 67.2916 70.4167 67.5L72.5 60C71.4583 58.75 70 58.3333 70 58.3333Z" fill="#90A4AE"/>
<path d="M75 9.375C62.5 9.375 54.1667 12.5 54.1667 12.5V13.5417C72.0833 13.5417 74.375 20.2083 75 21.875V9.375Z" fill="#78909C"/>
<path d="M91.6667 13.125C91.25 13.9583 90.8333 14.5833 89.5833 14.5833C87.2917 14.5833 85.4167 11.25 85.4167 11.25C81.875 8.95833 75 6.25 68.75 6.25C56.25 6.25 52.0833 9.375 52.0833 9.375V10.4167C60.8333 10.4167 64.1667 11.25 67.2917 13.5417C72.2917 17.2917 71.875 25.8333 70 32.5L66.25 43.75L72.2917 45.625L76.6667 31.875C76.875 31.6667 77.9167 28.5417 78.9583 25.4167C79.5833 23.75 81.25 21.6667 83.3333 21.0417C84.5833 20.625 86.25 20.4167 87.2917 21.25C88.3333 22.0833 88.3333 22.7083 88.125 23.5417L92.2917 24.7917L95.8333 14.5833L91.6667 13.125Z" fill="#D7DEE2"/>
<path d="M89.5833 14.5833C87.2917 14.5833 85.4167 11.25 85.4167 11.25L83.75 16.4583C83.125 18.75 80.625 19.7917 78.5417 19.1667L69.5833 16.25C70.625 18.125 71.0417 20.2083 71.25 22.7083L79.1667 25.2083C79.7917 23.9583 80.8333 22.5 82.2917 21.6667C82.7083 21.4583 83.125 21.25 83.5417 21.0417C84.7917 20.625 86.4583 20.4167 87.5 21.25C88.5417 22.0833 88.5417 22.7083 88.3333 23.5417L91.6667 13.125C91.25 13.9583 90.8333 14.5833 89.5833 14.5833Z" fill="#90A4AE"/>
<path d="M66.25 43.75L48.125 86.0417C47.0833 88.75 48.5417 92.0833 51.4583 92.9167L53.3333 93.5417C56.25 94.375 59.1667 92.7083 59.7917 90.625L72.2917 45.625L66.25 43.75Z" fill="#424242"/>
</g>
<defs>
<filter id="filter0_d_7_209" x="-4" y="0" width="108" height="108" filterUnits="userSpaceOnUse" color-interpolation-filters="sRGB">
<feFlood flood-opacity="0" result="BackgroundImageFix"/>
<feColorMatrix in="SourceAlpha" type="matrix" values="0 0 0 0 0 0 0 0 0 0 0 0 0 0 0 0 0 0 127 0" result="hardAlpha"/>
<feOffset dy="4"/>
<feGaussianBlur stdDeviation="2"/>
<feComposite in2="hardAlpha" operator="out"/>
<feColorMatrix type="matrix" values="0 0 0 0 0 0 0 0 0 0 0 0 0 0 0 0 0 0 0.25 0"/>
<feBlend mode="normal" in2="BackgroundImageFix" result="effect1_dropShadow_7_209"/>
<feBlend mode="normal" in="SourceGraphic" in2="effect1_dropShadow_7_209" result="shape"/>
</filter>
</defs>
</svg>
